<mxfile host="app.diagrams.net" modified="2024-06-19T16:22:06.717Z" agent="Mozilla/5.0 (Windows NT 10.0; Win64; x64) AppleWebKit/537.36 (KHTML, like Gecko) Chrome/126.0.0.0 Safari/537.36" etag="Lxf3YY0lvsqPLPYla2Gs" version="24.4.9" type="device">
  <diagram name="Page-1" id="pfV1gNPhS3MIuuB1tum3">
    <mxGraphModel dx="2284" dy="4080" grid="1" gridSize="10" guides="1" tooltips="1" connect="1" arrows="1" fold="1" page="1" pageScale="1" pageWidth="850" pageHeight="1100" math="0" shadow="0">
      <root>
        <mxCell id="0" />
        <mxCell id="1" parent="0" />
        <mxCell id="mECkBH8HhTOBhk_B8JF5-5" value="" style="rounded=0;whiteSpace=wrap;html=1;strokeWidth=2;fontColor=#0910c8;labelBorderColor=#0713bb;strokeColor=#0264c0;" parent="1" vertex="1">
          <mxGeometry x="-120" y="-790" width="970" height="750" as="geometry" />
        </mxCell>
        <mxCell id="mECkBH8HhTOBhk_B8JF5-2" value="AWS Cloud" style="text;html=1;align=center;verticalAlign=middle;whiteSpace=wrap;rounded=0;fontSize=17;strokeWidth=2;fontColor=#045b81;fontStyle=1" parent="1" vertex="1">
          <mxGeometry x="-110" y="-790" width="120" height="30" as="geometry" />
        </mxCell>
        <mxCell id="mECkBH8HhTOBhk_B8JF5-8" value="" style="rounded=0;whiteSpace=wrap;html=1;dashed=1;strokeWidth=2;strokeColor=#066ab7;" parent="1" vertex="1">
          <mxGeometry x="-82.23" y="-726.5" width="422.23" height="623" as="geometry" />
        </mxCell>
        <mxCell id="mECkBH8HhTOBhk_B8JF5-21" value="" style="rounded=0;whiteSpace=wrap;html=1;strokeWidth=2;fontColor=#0910c8;labelBorderColor=#0713bb;strokeColor=#0264c0;" parent="1" vertex="1">
          <mxGeometry x="-40" y="-1730" width="900" height="610" as="geometry" />
        </mxCell>
        <mxCell id="mECkBH8HhTOBhk_B8JF5-22" value="AWS Cloud" style="text;html=1;align=center;verticalAlign=middle;whiteSpace=wrap;rounded=0;fontSize=17;strokeWidth=2;fontColor=#045b81;fontStyle=1" parent="1" vertex="1">
          <mxGeometry x="-40" y="-1720" width="120" height="30" as="geometry" />
        </mxCell>
        <mxCell id="mECkBH8HhTOBhk_B8JF5-23" value="" style="rounded=0;whiteSpace=wrap;html=1;dashed=1;strokeWidth=2;strokeColor=#066ab7;" parent="1" vertex="1">
          <mxGeometry x="-10" y="-1600" width="380" height="390" as="geometry" />
        </mxCell>
        <mxCell id="mECkBH8HhTOBhk_B8JF5-24" value="Region: us-east-1" style="text;html=1;align=center;verticalAlign=middle;whiteSpace=wrap;rounded=0;fontSize=17;fontColor=#056f8a;fontStyle=1" parent="1" vertex="1">
          <mxGeometry x="27.769999999999996" y="-1600" width="160" height="30" as="geometry" />
        </mxCell>
        <mxCell id="mECkBH8HhTOBhk_B8JF5-25" value="" style="rounded=0;whiteSpace=wrap;html=1;dashed=1;strokeWidth=2;strokeColor=#066ab7;" parent="1" vertex="1">
          <mxGeometry x="420" y="-1600" width="380" height="390" as="geometry" />
        </mxCell>
        <mxCell id="mECkBH8HhTOBhk_B8JF5-26" value="Region: us-east-2" style="text;html=1;align=center;verticalAlign=middle;whiteSpace=wrap;rounded=0;fontSize=17;fontColor=#056f8a;fontStyle=1" parent="1" vertex="1">
          <mxGeometry x="460" y="-1600" width="160" height="30" as="geometry" />
        </mxCell>
        <mxCell id="mECkBH8HhTOBhk_B8JF5-27" value="" style="shape=image;verticalLabelPosition=bottom;labelBackgroundColor=default;verticalAlign=top;aspect=fixed;imageAspect=0;image=data:image/png,iVBORw0KGgoAAAANSUhEUgAAAHMAAACNCAYAAACE20WPAAAAAXNSR0IArs4c6QAAAARnQU1BAACxjwv8YQUAAAAJcEhZcwAAEnQAABJ0Ad5mH3gAADM2SURBVHhe7V0HYBzF1f6u6Ip6t6wuS7KMDW4YV8DGgG1MB0OMMZhACoSfn/wpEGpII5TQAoQSTO+92KHjRnHv3eqWrN6l63f7vze7K51Op+a7k0v47NXuzs7OzHtv3pv3Zmf3NBIBP+K4gFbZ/4jjAMewMD20dRkV1cAUFpVg4uSpKBg9Fs+/8IpI+2/BMW5m1aZrlL0Mh9MJj9sDk8mopPx34LgU5n8rjvExk4X4oyBVHJ3C7LQVXeMi/+1mQnokHD76KqbfKoLUhmDgx9DkOMLRbWZ7dDPWVD/wycenvfXQ3q71lv9YwnGlmUzI4Y6ggdx7tODo08wBdi1/2VRhDLZ3+gpysPcfLTjKhMlsDJyV/WtY3/Ucqxp6lJlZdUzs6mMuYrqT0p107KRjO/21U6rV4YDT44LdzTkAq9NOubyFRCLpJE0DrUYLc5hBCMqo08Og1cFkMMIIvdjCqM4wusZ7vZc4mT0azbEh3qNGmCxGF/11COFJQoi8lblqsLV8L4rqK1HaWIVGVzvseg9sWglWjRsOLd1FsrfR3s2C1NAm9WS+jgRk8uihpcwG2sy8l2jv1iOGxJmXlIYRiWkYnzkaWfphQqB6us9AmyxgrVcXOzpxxITppk0WmIc2oMnTgc01+7GlqhjF7hpU2ptwyN4MGwlMUv6ReinaJ8tLiIw1h484mTVIaJLYdYfQLlFKp6xZ7upebPSP+ghMJPrhxjik0TZCl4QJw/MwYdhIxGkjhPayYFnYOvn2owZBECbrlJ8+y6UKpnVdZ0GwEFnzmtwW7Gw6iI3thVhXsw+FjZWkcXSduOnWeuBmgcj8FwzmQ2a2ynhOiwwzwUy6E2mQ9z2hSI3AYrRpXGh3WGCVHGh32UTLWMjcLokKpSLhEbfIHURLDdBTgo42AzVoZHwaJicX4JTIfIyJS0ecLpyEKwtV262urpr5WEB0sq48oUDoNFNQJAuSD1m/miQ7Cl0teKf0a3yzbyMsYWRWyWQ6dBKZSpmZ/IdJ1nt0iCKzGOMMo02P/KQs5MQPR3ZCClLC45FtTiMmMguJ6XSTzKa+mcU1yG3hjuVBqbUS1ZZGlDXWoLjhEAprD6LF4ESr3oFmHZltrTDcihAkMtGyUA0uLcKdWswumITLsmYjLywWcRqjMOUi50AFJwgmDCDrQBBkYXZvHRdtJ4Eegg3vla7CN2VbUGFvIGa5SQvdsmYQuPeHO3SIs2oxOjELE9NH4aTofMSaIhBtNCFaayK904sxTB7LtNAdZk/3JlY29W7aNKKzsWPV5rGhzWFFo60D25sPYEvlfuyuL0eL2YUOgxtONgkE7kYGpwZRDj0ywxMwO2sCLs2eiVSyEUZxdegRAs0kLSNS2IgVORuwvHQdPi1Zh4PaVsEM1g02Xybq3bE2PUbFZ+KkhBE4MWkECsh0JSIC4dTHTcSQHsabW9ovl3rPpBI6EEaz6bXRZiEx16MD+5sqsKe+FDsbS7CjrhjNZjdsZFXYLHN54Q4tMj2xOCd7MubnTCFtjRdjrzcNTLusu6FB0IXJ3mgdrPiyaiue3vwhKsOtsNOgwiSweWKTmWlKwPS0EzE/bzoyEYsoIto4ECIHJMxexnBCf7f3d53H+jYSbhmasazoW6yr3IsSSx1aDS4aLmSTbCQznG4Jx7Vj5+OcjFOQLEZzudQBNT8ABE2YXIiNCC10NOEPXz2J3aYm6rmyJhppfIkkM3pyUj5uHHsZcsNiEKsxkAhlDIzA3oXUiX645U2od7bBMpnzs4luJkeqxNGCZ/Z9iB8q96Cdxlt7mFyL0aXHGHsc7j/zRuQa4kmkPU2v2p7B1N0XgiRMD9rp78c1G/H4zg9RrqX+S2OLwa1FFGnieblTcUnKNIyJTBXjCTsK/YhlSNCXEDuv9ZGJu5c81nqwu/0Q0b8BHxSuQVsYxb86D3nBWmR4InHj6Atx8fDJNICE0sgGQZh8M5vWN+vW4aHN76LeSKRRi6OpZ86IHImbTr4I+fpkIUR2XnyFqFYeSiJV9CGXgMDlcszMfkKhqxZPb1uGFU270EpCZX8p0W7ErycuwBVJk4UvINrgpzGBti9gYfI4st3eiF+ufBCVpg7RmCS7Ab8dvwDzk09BNKXIBpWr4U0OVVSCOgN4eadgACa1N3QWPjgc5m09wFOPrbR9VbcV925+C3UmcqOIxakOMx6b+b+YYkwXsalaobwLgF4vBCRMbkIrNf/qlQ9hs1QpTGu2Mxr3T70eE8ikRgpd7B9qA4LBzKDjMKTMt3SQAd7aUYFbfngGpfpW4cEXOOPw1pzbwX4uMT7okwgBdQd234vbalBkqRWBfxxr5CmLMDkyo1OQfnuKTyLnOyoFeZhgWiKItadEZOI3xI9Yh0Hwp8rdjqKWGjHO+grSL58GiYCEyQ1otnfAQ4M9IzEsGuNj8kSY0adwjiXJHWZbmQPs2E4kfgwzxIg0nqZsdXD0GhoEbKhjjRGkojLFtY5mbLUUkjMgC5dxLMktmGCBeUj7ilCNWluzSOPpwDhTuF+mM58CFXJAwuQQIzkiBnpywbmgVpMLT697HxVuK3m4XQIV4JaK1lJ6qLpmSOBDxwDB3m2Nx4onvn0HzcQXBvMrwRxJvPLfxQPt+AEJk2/mx0JGjeyhujQS9kn1+PX6J7HdVgULMUJ9ZCVaKlrrv8oAneoQon8WccvV1rPo2ZAWkof/m43PYKvjIJxkXjXEG72bPH19TMBC6w0BCZPBQUdecgY1lJuohV0PbLJV4PqVj+GDxi1oJm9XngfygqCmU8wCwfbshgrcCdWWM508K/RJ6w4sWXE/fmgvhk3MCGmgc2tRkJIt+HXUCpMxIiFNmFoZ/EjLg0qzBX/Z9Bqu+/YxfGTZhXoyPLKxUaEam25iPubAnZCFWE+ddrl9L37+3WP447oXUWG2iol41eIwf3IShodMkIyAJw149ud16yb8Zc2raKOxIUpjgMEqiclnF8WdHF/FWnUYF5ODWcPHYVrWGGRo4hFFwhTBsxBmKEkMDXhM5En3KqkN3x/cgRVVW7G5sRgtZreIt1l4MWSm7GagTeNAtE2HP0y9AldFTYGRZ0pCQHLgM0B0+3pnNX72zQNoCHciRxuP26Zfg7fXL8P21jI0hdnhVJ6a8IR7okWPqSkn4Ky8KcgPH44kYxTFZGEcRtPfoBiKoIMZxB66/EjMhVp7K8qt9fiqdD1Wl+9AQ4QD1jB52CBlRJzDiDEUay+ediHuW/syCl11SOgIwxOz/w+nGzIoZDlKhck9dJ+rBUtW3ocyQztyHFF4edZtSNQZsdVahfu/fwkHXU2CWLvODQ2v46EamaB4IjrZHo5ZI8ZjRtZJOCEyW3n4zA+heZMn5cUTfG4mmbRuPFBb7p3IaX4YxWSySVT3/sC3quuS2HTKD695gRlQ5KjEyv2bsLpkK6qNNjQYbHCKNSw0YNCOH++ZqbNmkIPz++lLMMGcjma3HVet/DuKDa1It0fgpVm34wSKxQc2LzZ4BCxMJrrCbcFVqx/AXl0DhlmMePnMOzE6jL02DSySB5uaivBl/VZ8c3ALGjwW0lRiGHFAdFCqndfY6Gkfow9HmjEeqfpYpGrjkJ+chuy4FKSY4xGvZcMsO1zMCt689VgegWVh+ydI1hz1Gnud6jkfs+DaSO8q2+tQ0daAA3UVKHPQMXXESlsjWolG8mFEPklUTKaUBKinkwSNGWdmTMDZieNxclwOzBrufsAeZwuu+uZvqDbbkO+Mxauz/oBMXYTonKFAwMJkFjVKdixe/RA2aw4hjszoo7NvxmxDFnhVDBfOk/Ecd7ZQvtUV27Cubj+2W8tRaq0jt53K0FAptGe/kHs5j7MsYJK5CLQ5zawLE2t/0mOSEW+MRJQxHPGIRqRkEtdjzcQkYqJ/SGQN3Gi2UrBEfGzXWNFAomuzW9Bo70BVez1qLE1od1jFQjLO46Y2uXltEh1zpxOtI6lz28IoMcOUgHHmTExJHoXT08ZSiMZLW2Q/gLMzzWvsB/Grbx5GY4QL4zwpeO303yKR8vUWZwaKgIXJIBZg8bePYI2nFFEOHW6acBFuSJgpHnt5g6NONll2IpQfFzVJFqwo3YAVhZuFBjTqHWgLc4h4tbNRCt28kwWrCpzS+FzJwIJnLZcZ3xOCTLFUU5wJJ0UIis54MRmf87GAcsBF6anASJcBCU4D0vVxmJU/AWdmTUasJlyM80wjj/XdKZUdw+fbfsA/1r6FVqMb07WZeP3U38AcMiPL9AcoTL5dojHoFxuewXLLToqnJJybPAGPjfkpTDyZQNd7G6NYq/nBLk8utEhWNFk70OBow/6OchSRmSuurUC1tVm4+BaKuB0Us/GENY9p/srklMESw53ASObS4NLA7NLBRKYiwRCBUak5yE1MR35kJuINUYgnzY8hc8rrk1iAvsLrAncXreisdxW/g7dLvoWDHIC5hlFYOu1XITOxjKBoJjf/7yWf4NmSL0SMOU6big9Ou00slRgsuCwWMG/MkHY6anC3otHShvr2ZjRa22B3OdFETpeT7F5Da7MwjayWHWQmLXbyOVnQXlRFGI2INISLNNbohOhYcsC0iNNHw0iOWnxEFBIjYhAfHo0EXRQiSVwsMFnzui/KElDL9isXvqgha+XB5d/fj03kOOlpsL0u+0zclXthV1lytqAiKMLkAl5tWo+/bHhVrFpLbTFi5bn3U0+WI8nDQRetavO6SuIUHpN4boknIoRTIvayGe8OSYxj7BlzHtVTDiMhqePbYaGrgT3Al6irYdayW1ET40Qkxdl3TFqIJfFTu27p4/7DxeBVxxfcKEJaTJIwVzxo8a7R00GslS/yXyXbgNFFJx/1pJpXvEWQWNjRj6MtgbYkSk2lbbiylzejSI9X8sTQxvfx/b3xsrN/99XoPgTB1qWZvF/mg8fjIRMOZMQmdy+vj/sPF4ELU2lUtnY4wiX5FQF+bldraSaiZHeDs/TZ9gFJWy6L0VkW3aOEegLqnmNDdrJYe7nYPuv2AzUe7Xkjl0bt4F0f4FobbO2KJ0ym2q1DhjZl8A0ZJAIXpgJe8JsYGSuOuUfW0RjXxf5+wET2S6ifpna7j19AktAqufB9QxE+KN+MFbV70UDhEKf3w38FXh3Gr9PGadQOP5e4fLUONvu1llYhTMawqDgxyxVqBEWY3GZ2FhLNsjCZiAZegSDOhgb8ikGVx4rrVj6MX63/F+7e9wr+d8szuPw/f8ZOR40QaL+QZwMOC8wDVcZskWqtrXAqKzCSIuLIGQxgfB4ggiJMNknsuSaRN8gvJ7CZrdQ0DKkwed70iX2fYJOnUsyVthhdaDK7UGhuw983voGuEbwPKNwemBZ7wecGpvuQplHwgZFojqbOHhRW94ngaCaPC8SJxLBY4cizZla01w6pMJslCz4r3wBbGE8wdsFJMerWtnLssR4cmHYSBq1BPjcw3ZUd9SJk4ksJBn6dd9ClDhpB6y48E5MUQfEbDZgu6pEHW+qGTJgsolanhbST3+nqCSsJ+M3iNdhuq0EjuUXsGIUSTHdFO9FP3DVQz040Rod0skBFcISp8GZ4TAKMFOjxhHRZczUxNrRMU8FsSjHEI5EnsTsfkstgb5JnkN6uX4+frv4Hbv/239jlrkUTCZ4nJtQWerdUDU0GF4JzXrn7coc62FwjzKzRoUVKdEL3CkKE4AiTZ6AJ8eYohLv0ot0OjRt1Lg5PhgZm2q4tmId4qxZhZN905MyEUa/iV+3CnaQX1Kg6ox3LnHtwxYoHcPPGZ7G8egsa4BCzNd68Vj1Z/x5tb+C8NMTQ3xaKsdvdFBxRpfzqYhJ7+aFXzGCZWbmYeH2UaDy3202MqOogJyAk4uxeJguCp90WZEzFb0+4BJMMmciSYjBOn4rrM+fh+ow5GKXjSQ2NGM+bw+xY0bYbt25/BVd//zDePrQO5e5WIdSBhzH+wZ7sIWu9HJZI8pvW0fqIAEsdGIIynaeimnr5dZ/fh42mWkSQNtyTfxkuz5o+JJ6cSgQLhOd0WSj8QIzfc9HQMU/mf1G7AS9u/gwl+ha00zjKvY5XBpiprfzm9oKxs3DJ8NOQrY8WE+qMwbac6/6wcgPu2PM62gxuxFnC8OiZN2NGWBqixARi6KC7h6AcBwx2LLa2FmOXo1pMZBfoUzBpWD4xNPTCZCbxxuziMIkfActPOPjFJTK1dJwfkY45eVNwckIubPWtaGpvg40YbtVL6DC6sauuBF+WbMD6un3QJUaQpYkVHXEwzx/50dc3lduxrr1IPIR3U5/4tngTdjeUIW94LqK9vn3gDTHhFKCkgypMHnn2WCqxrq1IfG8nTReDM9LGEUNDL8xewSpLTGI+8ZPEGBJtlikBp2dOwISUfESQRrbWN8JG4z4vbWnWO1DmaMCaoi3YVLsPtW4rjLGR1EH4qwr9C5ZfOP6oZB12O6rgEg+3qaPoXSi312PlgQ1w6LXIjE0TM2beHm6ggmQEVZjc3yqczfiiYZtoZjK55OekThKacsTgxSQ+5FFFr2HN1SPHmIAZyaMxM+8UCqk8sDdb4HQ4xBdQ2klTyzzNWNtwAF/t/B5VjiYYw6OhN4bRnSwIWaxcnrejxGb+vaofUOysE159qjYGko20nzoKL27bWHcAB6pKMHIYaaneJCyJbxmHi6AKk3tag9OBD2rWifNorRkXpU/rHH+GFOog6sMjb6bxEZvgJDJ9MxNG46ysKRiZko3S0hISKg8aGjjJBPNrF1utFfj84Aas2r8BklmLxOhh4rqWymOxclkslA7S8DfKV6Pa1Sq68D0n/RSjopJxoLJUrHuykVBL3I34tnATRpNlSDbQSEqdKxgIqjAZDZIVy8rXwcbzkh4PFmedIcavIQdz10eQfiHGKlkgERo9RhqScfGI6ZiSNBoGnQ71zfVwuWkAoTx2oqlOb8O39XvxSdla8dURi8eF+KhE6HhVBeVpJzP7fMmXaCWDG+HW46dZs3Fh0nhMTz8RFY01qLM0keZLaAlzYG3ZNmTEpCAnPFkoQqAIujBbyAX4pHgt2vVOuFxOXDXiLPHMMfCmBgBl3PSLznQPCVRe2mkioaaZYjEj8QScR9o6TBMFu8OONnsHXKR5vAiNFzaX2Oqwum4XlpX9gBJXA9GrgTvCgBcLPxezPwkuExblzsJwXTiSw6IwO/1k6El795IzZKWO0aZ1oaiqDJOzxiGJrJi8QqmvxvaNoIYm3I4yTTuu+s+9KAxvI7dfg5em/Q9ONeeH2Cn3gUqRWqUvf3yv9wF26ngSn0MOXv/7xrbPsLJuNw4ZrOStukQ8yUtReIKCY2wuu9XkpqIlZNij8PKcPyCf3C7Ow3O17RQ0fVW3E3dseQHNlI8/NXN+xDg8OvlnAT8kC65mUmN52cbyPd+hlojlkWRseBrGRGdSQ4MzLgwILCRvQXkfM3yv9wGmQQ13ErURmJp6IubkTMa0xAJITRa0NbaJR108FvK0oc3AES4VTv8dJLgNh/ZiQ2MRak12dJjZrzAhJiIeHfFa7KkuFgvU+GMeF2dOFWNnZ7N8OqDH07+TFFzNJLTQmHHn90vxgX2HaNAV0ZNw56TF1DePwLipwIcvXej1gozulxU28VpO+s8ia6G/FVIz1lfswdqqXdjRVI4afTsJVRLZ1HsMFGzyancTmWGeqzCbIlAjtcNCMS6HLjM0mWJNrRyB+sc7776PyxZcopz5R9DVhRdLnZCWS72EDA21rKi2gkgOxZTewNEbgwIBewEJpLPjNEm4NuM0PDT553hm7u0Y7o4ik8prezWIdOgpjtUTH0jwRidqIp2oiLVjv6lZfIuPBZloM2JO1mTyqv0LUulCaGttU456R9CFySYpPzldTGyzMJukDnRIdrqiNusoQj9S7n6Zz2jzcw+LgReKJdPGXyJjpvLTm5tPX4j/mXAhphqzkNpmRHKHAYntJiS1G8Q2vCUMvxu7AAuzTu0q1odNavqiRVcoR70jeGZWKYUdgkKpBXO+uUuMBxm2CLxy1i0YqY+XMxzHOOBuxlVf3odyc4dYVL3sjD8hVyu/KW2V3KixN6Hd5aAzfhlKQlpEAmI1JmHN+ptZGgiCp5ncFtq4wChNOCJ0JjqS0EYhSocg4PiHxWmnkExez2DWGJCg5WlAXkytJaGFId+UhPGRaRgXmYqTaJ+kkT+SGAxBMoJuZhnsYidRXMWeYIfOgTaK0XoFUx4c23DEYXVTx6VwhYeYxLBIwQcVLC42x/w6BA9FPObKImTiu3yKQFgREmFyT0s2RIvYij+22+hpJR+3l2YqGn2sg+PRRmeb+HQ4051klF9pFGR7kd4VXqiJfN4lhkBYERJhchASj3Dh0XKfK2+pEouSj2fwTG6FpQYSSZLpTqCYlMdCIR0vCfXLBR/hDwYhEqaGxoNoQRQH0BWtdRRAH9nwJNTg9UQlDYcgEc0cliSJTyL3hUB00D+CKky1U7EwM+KSxfjAjT7YzMI8vsH08SIuhtZDnmpUPPGhJ3u7RNhL5/bR5MEgqMJU28E9MiM2SWgmN7q4oQIWMdF3/MJOXkFZQ7U4Zp8hPSapD+ayIH2vUtphmlcVQRWmCu6RmTGkmdxmkif/QlCDp0W+6KdHqhp9LKMRbcKTZXr5Ff7shFQaM7vY2z2c98d2SuO+HwBCJEwgRU9mhtrPRPBcZW17k3zRT5VMQ4B0HHFUtTaIiXYG058WltiN0v4myYOB4AnTR7VIfjRuJIpvAvArAw0drcoVwrGuhn7QYG0VK+c5LBkeyW+DqnHk0CG4muklJF5OkRXFThB/T09CvaWFDOxxKEUF9dRZ+Tt57MmmRXbXyqFCcOv06opccFb8cPLs+KGshBoHv+WhCPNYt6k+4Ffx65xNgk4eL1Mj+3J+Qofg1ekjIC44zZMgNJNR3dYknth743jRU/50DptZBn8zLzts2DEuTJaMl3R4xEgwRMoeLVXTZG8XwvQW4PGgoEwPr5avFg6eVtDLn/EO1uT5YBBczfRqP08cJJqjxPJ/DkfqLc2iBx+P4NmfJhtrpkcMK3EG/tz+sSxML3A4wqQkGIkoxcy2Oa3gV3OOR1hp1Gy0tYnwg7+ll2hmYQ49gmtmFbCJZc3kFe16/oQlgVeJF1krfILnYxeSJEwOwYMyqUYs6mLaWDP5235M/1AjuGbWC3zKD2hjTfyBeYiJg5L6KrrQlfHYEKv/VnZNAmhRVHNQhF9MJ//aboyWf/Vr6BEaa6BQwoXn8Ce/3TqhmZWtdSL92NLO3toqE8kuHf8qLs/+cFiSl5QuZoCOBEIjTAVsbkcNy4GB/B5+z6KyqZZcIP6IoXpdBrPr6BVv3yzidlc0sZmVxELonPjU0DK1D4RYmECe+Bg/P9ckJ8hjRYckr5HxBudTBXssgelgD71DPHonYdJ4mZ+cQbQcGWpCLswR/AU7XrJHxHa47Gj38O/YHYNgyfn0QhZgG9HT4bQLAfKXVkbpso+QKIdAmBFaPSL1vFJPA4uHhCmF+sMtIQA3mInpJiX+fBXQ4SHNdMtzW+F6I9E7pG/VdEPohanRw6Q10pGEVrcVtWRqZc2UXfljAn6lIw8dLdQ529zy6sNw6rRM73EpTJ4FiSbNjNGZxdME/jX4x3e8jWJXs1hmMRTP+EIFHvkrYcGzxR+jPUxeRRGhCUOk98s/Q4yQa2Yk9dSZGeMQadfBTh7fupZC/Gb1k1jRdgDVsIlX5YR+HiNKyh+gaIATP3SU447vl+Lzg5thpbAkwqHFyUm51Hn5XewjI86gvwXmCy68lljwx40v4rPmXeLNJ16BEOUMQ549Bjed8RNMDJd/c5NXfjMr+u1hXGh//FKponz+sjPZsmVgo997jdzVeJTn1YU8Mu6zH8KTq97GVm2N+JiFh7/C5dJgsi4TD8+8CRlEBRV+RKxOyIXJcFMNFe52PFf8Gd4q+xYW6sn8fT1exRbm0SHLkIAJ4TmYMqwA01JOQLxeXnPKLJa/8CGbbGbPQOToC+97VGJ9y+Jj9k75UQCbUBYiP6ds9liwue4A1lTsxBZrGUptDXBoKVrWQXRK/kD/nJRx+J/8C1BgSlCm8biD8F4tfWgwJMJkTvGDW/7trBVV2/BKyQpstfAUmEt8yYvHU34OyJ9J414+KjETJyVmo8CYgXRzHFLCYzDMGAP+rjoLVmZTVzTHe1Uw6qaCp/xlAr3/ynvFwIu/HDDVOVtR1dGMio5GFErV2FR9AHvryuVfbKBNzL9SA0iWMLi1JLxhWJAyFRfmzUAs2ZROP5YL9G7EEGFohKmAK2Jzxd+I3tRaiGe+ew/79U3ikyrqLxDxGhr+eUIOwFnA/FOOPOmgIwZmxg9DbnI6MqISkRqTjCxdGszEwjCtTmgyv4LDP7+h9zJxLiLPJrHYWOvIXHpcFOg7USodQlVTLSpb61HUcAhlDVXiUy/8OgX/OA3/MgP/hpmbBcgFcbuogdFOA3Is4fjpjAswK3G8eIlY/l0TzsUbd7cjgyHTTO+eyqc8Z9JOTD1oa8L2pmKsKtmE7Q0laDFS3EbjKgvXF7xIjANzXiTGTyf4JybYrJnCDESIrKkmnRE6L2G66Z/Vxd6m3FmsTgdZAzbzdE58d5DFcLPZ51Z53ScsAN3An2GLtelwQkw6Zo2chHFRuciMSBDvY/p709mH1CHF0GlmL1RyMj/c5S81V6EVBxorSFMqUG6tQ2lTFWo6msR0mY1Ujyfr+XdTxISSF/jUmwjf8x7wysB9hk0m/zAb9SOYPWEYHpmAjOgkZEWmIDs2hcx+BlKVn4nkr42J6vl+n3YwekkeEgypmfWlVFStaIM3A9iwdZBGsYAttC92kxlsqkZ5U434lk6b0warRAJ2u8iM8ncBPELjVELUsjoJI+1jLTPpedQlk0xm2UTxr4niwuiwcKST+U6PG4YM2nJ0wxFNhpMFp34SzbttPiQcVRhaYTIGyA1/jRItpXv5e892GgdtJEgWoTwu9pzA9wZXaaSYN4w6j/h6iEYHA42vLF71ujcOX2B9hzqhxNAL0y+4CbwNnAnyHXLT1bv7gyog3nt7w4cDrk/c33ngH2q7AqlroDgqhNmT4J69ux+edUNoGDjA2HEwDQ0yjhLN7B2hEYwfhFIIQ0TEEBl3pqZ7n+nqQ7znXi+f+/Ytpr8bD7pfDgjdigolo3sQERocmZGa0H3uUn7DWjC3W7ovBiDJXrMMshcMMrt8g89Ngy4jMBxRM8sVV1XXYO++A9i2YwdaW1uRkpKCySdPRF5eLqIiwuWMnRiAp8iF+u0PvV7wj8FkF3n5D2MQdQQZR1SYTz7zHB586FFYbVbiBwuKWUFBOYUM8bHR+PiD95A3IlukHy42bdoCi9WK006d7ldATH6XlfBxcgYjUB9s274LFRXlOHf+OUpK6HHEhPnMcy/grnv+IhTt3HnzcMmF5yMiMgIVlVV48aVXsHP3HiTExeDt11/FSWNGyzepPO4mAG90577VasMpU2Ygd2QePnz3rcOVyyAg18/rvqfNmEmWpgW7d24dgnoVsDCHGmRapaz80VJS+gjpr39/UPJ4lAsKGhqbpMkzZkrJdP3aX9ygpEqSxWKVvv9hrbR2/QbJbrcrqTL2HzggfffDOqm4pEScu91u6bMvv5bSskdKZ5w9X/pu7Trpe9pKS0slieprbGyk87VSfUOjRJorffv9D9LHy/4jrVi1mtIaRBkqXC6XtHbdemnT5q1KShd279kryj548CCdyYR88NEyanuOlDvqRHGNt6JiuV2hxBER5iP/fEIQmzNytFTnwzhVrnsPFEvDMkZI6dl5ktUmC27/gUIpJS1bys4/QaqurRVpKn51082izFtuv0uc33n3n6Vh1BmS0vNEpxmWni22u+/5s6jj08++FOdPPvu8dN7FC5TrOWI/6qQJUm2d3C4P9bTmlhYpc0SBNGnqaZ3tU7Ho6p+Kex586BFxfuWSa0U5XKeoN0Mu85bb7xTXQ4kh8Wa97TiboB07d5Pp0SAnK4tMaXy3DGyS+DQ9dRgS4uPgcLlBWiNfo7HU48e8cn65CCpVub7g0otx5x230ZEHBSPz8fzS5/DCc89h4cLLxXX2nj203X//g2hqasaLS5fiheefo7wj6bwFZ8+bL8ZatTzOqzaT+KYcyeCJfzXl59deiyWLFws6oiLMWPrcv/HCv5/DkiuvlDOEEEMemjBv2tv426kSxoweLc79QafXIzxc9marqqrEnrRC7HuDd1Hjxp6IaVMmibR4GnvPmXMmzpl7Jk4oKPDKx8IH3nztZcybMxvnnD0bzz37NHRaLaprarF9+w4lH4PrlutXBdzZGn62pmDm6TMwZswoyuRBWFgY5iv1jh5NaSHGkAizi1QZslA0RKz4IJmcwUtOfCo2hWlOJy/gGAi8CiGo5fQOCePHjUNa6nDlHMjLzcHYsWNI2yQUl5Urqf7LUs/9OWMiPzVHXOl5OSQYcs1kqBp3oLBY7AV8CHbxj8bYbOI4KSlJ7PvkSXc5CnCSHPD0AuJ2fLz808reyMjIEHtyksS+J7qX6s9gqGl+LoUMR0SYI/Nz6a+EPXv3oK29Q070QVNLC+obm4TJmzZ1qkjrSzDkJClHgwC5DC2tXp+0UWpoaWklOWsRER4pzlXwd/FkyItEGDzR0SeGUJpHRJgXX3gh9DQmtlMc+NU3K5TULtjsdvzulj/ASc7PlMmTyBGKEekGvfwFV/Iwhen15tPBigrlqCecLm8z3Z27u/fsg406gpyqRUdHBzZt2kRWQCInLEWksk1g56uFOhj/YI2cAnRYOrBtx046Yjb2tBv8iE59TDcUGCJhMgNkopjkE0YV4JqrFkMixlx/4//i6aUvopmconZi5KHaetxw46/xzcrV0Os0uPGG61klxL3p6akwGgywOuz44qsV6KDO0E4e59IXXiUPeZev8YMhzAA9afYeElhtfSNpr00IzhsU0+LeB/4Bi8VC5Vnx6ONPobXDCp1OixOVyQq9XofIiAi0trfj2X8/L8rpsFjxwitvUMfr+U3A6Bg23Ro4nE4cqqoW+dkzDjnkCCXU8I3OJKm9vUP65Y03iRiMJwd4EmHk6PFSKgX5SWk5FOzniSCe4zxv3HvfQ5Sf7snIlU46ebI0ZvwkKYViuYsvX0Rp2dKtd9yt5JSkxuZmEbhzvDdi1EnS2FOmSjf/3+/Ftf9QnMnpM8+aJw3PHCGNHneyKGsYlTs8M0969/2POyczuA033PRr0daUrFxp3KQp0phxp4g2/v72e0Q5Dzz0qJyZQEMHlTdRtGfkmPEi/1XXXKtcDR2C/vNR/sH6qJgbHnfov8FAbvu8uZg4cQLiYuMQFRVJIUQ8TjzxBFxy0fm4796/YSqZWF9PcdKkCUhOTobRaEBMVDTlPxG33vI7XHbpJfCQOZ0+ZTJGkeZzdWaTCXPmnA2X0wFzRDhyMjIxd85Z4nphUTE+/HgZTj9tBu79659JM60wGY2YRO35zc034YLz54uvjDG4DXPOPoucpXgYSdujoqIwfvx43H7bLVhwycXoIKsyfdoU5I7IEfmZttNPOw0OO9VrNiMnOxvz5s7p1PRQYYjnZqkqRZi+8G6EHJ77yeQFJboR6DunjM7sSkWffvE1lvzsFzhv/lwsfeZfciKhMw/Fid6jELPJN77sr16vJg4JQjJmMhHq1h1EWi/UiWRmWNdZn2C+cq6eObuPnCo683ndxMLxFky3PAprOq9TXh5vN2zcjI20uWg87EKv1HaDbw6/euQnaaAIqmZWVVfj1dffpJBjP9xuN+LiYnHKpJNx/rnzEU1mlMG1fbJsOVauWYPGego9dDrkj8zF4kVXID0tVeTpDRs3bsLHnywjemU2sUccHm5GekY6Tps+QzhIA8Wnn3+FJT8nzZw3D0uf/VcPxvtDIcXFp55xpjjevmUjkhMTxHEPMEf7LZA6Hc+mUj4hAiV/QMvMWJjBwA/rNggngie7vTd2Gi5d8BPhAlXX1EqTp58m0ngCOmNEATkvPAk+QsobPVbasm2HXFgveOmV18S98gQ230d1pGXRRo5JZq50x91/6uEwSZJb2XfHipWrpQnkEP32ltuUlP6x/0CR3Haqv0aZiGdwjV21qvUp++4X/aKktEx67PGnpObmFiXl8BAUYdodDmn66WdISSSgcy+6VCqvrJZa2zqkT7/8RrrksoXSilVr5Hx2hzTttFnSJT9ZJO3cs1fQ2NDQLO5JIs8vf8w4ye2WKfdH/4skTO4g4tHSuk3Sug2bpQ8/Xi5ddOnl0jDyQPkaCyk08HgJM1uq8xLmoOFDHMXUosyS0nIl5fAQBDMrUaBtwclTZlAc1oF9u7chSpmuY4jCqQrVeWhtbYOZrodR7KZi1bff4bJFiymfBvt2bCbvNtavpXr51dfx+9vuQlx0FHZu30xxaNe4duGlP8Ha9Rtw9aKF+Mf994r0tes2oKqmFhPGjUV2ljxFx+AZnm9WrRHH8+eeLTxjFQ6nC1+vXIXNmzfD4XCgYGQBLjz/fESEG8X042lkZpmW7Zs3IilR/kks6n9Y9p/P4PG4MW3KFKQMk6cfuV1bt+/EV199jXaKUcePH0v1ze2sj6/v3rMf88+/AFaKV//2p7uRmJRIvNGLdmkpRu6J7o5ZNwiRBgSPRMKkuEs2sWs3bPGrVZ3wc/H9Dz8RpnM0xXkOh1Ok+SuDzSzHpAWjx0lOV5f55LyX/ORKKiNHevDhxzrT5GeL2dIrr70l0lRs37mb0uUhoK6uXkmVpLXrNwoLw+kcy/Ke880770JhMbw1s1a5j63SwsXXiLTFVB91AJHeRDEuP1jnGJavpSj3nTrzTGnz1m0izzKKo7NyCyh9hKBLtImGjILRJwkr5o0ufvjjjIxeRDwYaGA0GTFy5EgxeF+1ZAmWffY5mprVD+z7gNSNp8x4ZqSs/CDWfLcW995/PyLJkfn3M09Brz5J6RX8OoIHxSWlKCouwb4DhXjtzXexccMGoSm//Pl1Sj4Z/OPDffm3qjPFnirPRhUVl5EGjcPzzz2LF59fiisWXo7bb/09aQnnUzf5L8/s/OqmX2PFypWYMX06XnphqXDKGE89vRTL//O54MsXn3+KnTu2Y/GVi1BYWoJbbrtDaOXEiRPx6CMPi/xc3r+eeALvv/sOXnnppT74INfvF4pQA0aHxSbNOvscoZ3cy0YUjJEeeOiRrn7k1aGeW/qClJ07ihygkVIyOTILFl0jVVbVKVd7h6yZ8lP89Jx8sfEsDJ9ftmiJVFXbpWWqZvJM0cuv+9NMWVNUR+arlWtEu6effqbkcMrWgeHtT+3n1Q9Cg1gzG6Tf3XqnOJ4x60yyTlYllyRWRqSTc5eaUyBRZ1NSySWismbPnS9orlHaWn6wkspgKzFCKikLbMwMgmbKCDcb8dF7b+HxRx5CXm422mkc/ccj/wSZFRQWlXTrUCNG5GA+hSuzZ5+BnOwsrFq9CudfdBFp2NtKjt7BxZiNYbjm6iW4Zsk1WLDgUuTmZGP16tVYcPlCMbPjDZKGctQF1gp+3Z2hMmD58uUi/dQZ08SYRbwR6cpQr4DTeOpcg8efehovv/Y6hqek4P2336QQib91JGPLtu003tqpbAmvvPoG7r3vQbI+D+I+2tra2lmDsGHzFiU3g8v1bz8GBVmmwQV35nfe+0CaMmOW6O1zz7mg00tVwWfc63n/4qtviB7O2wGvnuwLOTTJ6RwzRRnKtuRnvxT3z5g5m66RIaY01kzWWl/NJKdEqW9Ep1d6+ZVXi7x/f+Ahce4P6pjJ+VjreJ9XcJJUeahaySHj4+WfCrrZKuSPHk/tHS+NpDYXjJkg5p95vvbj5Z+JvLJmUpnkzQ9MM5ky/whYM+X+2x3cmS+95CI88c+H6diDbdu3o6aWv2jJgbLIIvJwr+f9VVcuFJMHvJamqIS0eAAQ93tt58w9S2hMdVWN8Bxl8JUuqG1tE8tWGLI2cHpMdLQ45qcnXehdW6ZNOQUXzD8HbTT+X3/jTXC5VV0HIsTibUn4Aet+WI09u7Zg766t2LNzM+3peOcWMY14eOhOkzcCFiYX3ZtAeZKZwdeFm63MePiC19uQ5ooHwiaTSZg43vxBTe28qhzs3LmX/mpEPWFhsuuvhgCNTU0im1q1/LiMjKBqSmmbOXOm2K/fsLGrbH+NJbBL9c+HH8Tf//onEpyZ7tmAhx99XLkKCoXGC4fJarejprpGlOJv86aR38d2+xkSBoOAhcngp+0Lr1yCJ596VsRoGzdvxadffIU//umvgmlTp01FcnKiiAP/+Od7xVTaXvJCi0rLsILivd/89hYqRYMIEv7oUaNEHKfGpf5gczrx0SfL8MHHn+DNd97FXff8Fa+98SaVIGHhwssoJjQLZk2adLLI/9JLL2PVmu9QerASZN7w7HPPi+veU2fnz5+HmNgobKbx7ne33oEt23dg+849ePu9D/DgPx4ReeQ2yffws9KkpAS8/85bNF5GEO3P4OsVq8W1uNhoLL7iCrhdbtxAWsvPZqvIMpVVVFKeVXj62aVy56LyomNjlI6uwWeffYGS0oPYRPwb+LonL1DvCBgcU6Vmcawkx268tlXsM3KkU06dKZWWV4h8X369guKuXDFWqXl4DOQpvfGTpkpbtvY/nad6s/K9cjzI57yW9rpf/KrbiFJxqEo6aeJUuq60R9Q5gsbXG4QnzecizlRueurfz0sjRp0o2qS2n+u7bOGV4voBGjPVeNF7Bugvf3uA8uZKYydOlhoaGkUaL64+a+65UooyMyXam5ol9jPPnNvZTo6Wb7n9bsGDlDSZL/kjR0vNxNPBIigT7dQwFJaU4ZNPlmMHxVNWqxWZmZm44PzzxEtAqrnjcYXzffjhR9izdy9slC8tLR3nnXcupp5yMswUr3prJDfN+3z7jl34ZpXc+xnccH4GmZmZhWmTJyE2Jop6uXxN1iANOmgMfPGVN7D2h7WIouuLrliEKZPG48OPlqGyqgq/uO4ahJtoOODsVGBNXT3eevc9bNxI5pas3uSpk3Ht1VeStoeL9bUvvfaGKP2X114DM1kABpvHN996D3UN9RiVn4d5c84W5fGylx279uCdd99FcXGxWMg2neLRiy84D4kJXT+ozvk+JN4x/5gHZ82ejUsuPl/4EYNBUJ+a+EKYEvlQwFc4PcFjhiyN/vP6wLcyL6gEdrvcR35G5+V+8vWF3m71nx5ARQqCMmb2BrVp3Ez+q+l87a07OFW+ws2RnQBZkHzs7x7FUei6UVTmLyeDS+pkk3pPZ4J/dF4WB0p9XvCuqzd18K1CzSb/eLMv+mnQABAcYfZCTCcEtdxYqo4PffLzFZWUruWMDG5e13mXEVGaLW7sYox/JvnAq7KBGyVvNrGn7e5Wl+h3XnT1Vm4XJYGwvXcaD8vM8i2ylh1Go/i2Lqo6z+UyvS8MFL4FDhL+bj+sIvkmRgBt6QMD4c9hdRG5UN5UAgaPzjtFpzhcQTICZZ7ckm6UBFpkAODJQn9cHQh/QuoA/YihRSDG+0ccZfhRmMcNgP8H9+luI3ZIT+AAAAAASUVORK5CYII=;" parent="1" vertex="1">
          <mxGeometry x="260" y="-1310" width="74.22" height="91" as="geometry" />
        </mxCell>
        <mxCell id="mECkBH8HhTOBhk_B8JF5-28" value="" style="shape=image;verticalLabelPosition=bottom;labelBackgroundColor=default;verticalAlign=top;aspect=fixed;imageAspect=0;image=data:image/png,iVBORw0KGgoAAAANSUhEUgAAAGsAAACJCAYAAAArM8aFAAAAAXNSR0IArs4c6QAAAARnQU1BAACxjwv8YQUAAAAJcEhZcwAAEnQAABJ0Ad5mH3gAADnESURBVHhe7X0HYB3FtfYnXemqV8vqlmwV915xDBgMGGzAdkwPIeGFl+QR8giEkgABAgklpJBAEkoIJISEUAIEiI3pBGMwxlUuuMjdstW7dKVb9j/f7J179zbpyvZ7/xPw2aPdnZ05c+acmTNnZmfvxhgCfIFBgVjv8QsMAnyhrEGEL5Q1iPCFsgYR/Mo6KjfDIyFCRkaHuTXovJkI9egL/SY/CpqEzxv0eAy89+/3lfiVBmNjkZycjLLhpcjJGYIYxvnvmtAFmjf9YHxw3LGgX3qBfB3v4qPFug0b0dzS6r0C4uPjMWTIEFSWj4BdzgNhCm/37r3Yu3+/XJkcx8XFISUlBcNLhknebG+sWSOfsnp6nBhePhKeGIlUSSgAJovBrJkzcNON12P2rBkqLkRpRwGTVb9QOzo6sX7DBkyZMhmpwuwxo0+NHSP/YWgzasn5F+Gj1Wsst3hmIC09HRectxTfvuJylJaWmLe8uOfen+M3v3tIUgkFUUWMyF9j8uRJ+MF11+HUU05S1z6OtfCMGANzT56DpV9egjlfmo201FR8/PEn+Np/XIGWVt1qjk1R4bBy1SpcdMll2Lt3nzcmCJrBSOB9a5qIihIYx8h/BNps5GKgcOKcOTjvy1/G2QvOQumwYukIPXjsiT/jpHlnYmf1bm9qE4bQItuZGWk4XxR63tIlOEE6R6rIff2GTfjGN/8LDkevN7EXXY5eI694uAoffPiRN9Yw6hubjFPOWGgMLS4z7v3lryXGY97wQnqkUbV1u7F+0xajs6vbGxuKHqfb2LJtp7H647VGzeE6RUVT4vFb37nayCspNzZu3hJwj1DX8mdX9V5jzdr1xv5Dhw2nxLm99xS8J/qax737DxnrN1QJj71mpBednd3GRuF367YdhtPp8sYGgvn3H6gxVq9ZZ2zbUW24hQFfWWHAe4uWXqTk9N77H5qRAkXn4CHjvIu/KrItMybPmG20dXT67t11730qft78BSpOo0HkPn32XEXvqaefUXEBTcxsmKJqS1fMyc7CnNknqPONGzeqI+Ho6cUPbv4Rxk2eitPOOAtnLTgH4yZOw3e+ew1aW9u8qZiuB3f89B5MmDQF804/A4u+fB6mTJ+JmbNPxOsr3kRPr1PiLsRLL7+qxs35Z52DguIyTJg4FZ1dXYoG702T9HPmnoJzF30ZM2fORtGwESgsliDHF196VbF9Nu/NPgk1tfW45KtfxwlfOlFoL8WhmhpFp7WtDVdfez3GC8/zF5yNU0+fj4nTZuABMUNWvPH2uzhp7mlCaw4WLVmKU049DZVjxuOOn9ztTRE9xFBhWFEhfnb3T2SI8aDmcC1efXW5966GJGIXsyBb5D50aI7qxB6nW8UFKMtMLnbT1JrWHlpamtUxRwZLpnK53Pj2f12FJ/7yFBKSknDhBefha1/7qgyIWfjHP1/GQhFat8Oh8qz5ZAMefvQPsNlsuOqqK3HnHbdh4cKzEB8Xj2nTprFnY8zYUUiWcYr2+txzzsbXhdaFF16oBtvq3Xtw1XevRl19HR579FFs3bwJN9xwPWJibcjJy8MLL7yARYvOVqwaUp3GljYsPf9CfLJ2HUaPHo2JEyaISUmB2+3Bddf/EM8+/wKKxTTdecftuOmmG8WPsuHue+/DI398QvHb1eXAt6/8Dnbt2YfFSxbhzjtvxxXfuBwlw4ahvLxciyQ8fIILRfmI4Zg+ZSqlizVr16o4U978K+bT40G7jNsMjc3N2LBhMz79dLsMQylYsuRcldJnBrstZnDVR6tVF6XpeebZF4yi0grVVddu3KziPlm33sgtKlVpt27fYRIQo9Qq3XvMpOlG/rARxspVpin9/cOPqa58w00/8pkRHnt6e8wLAa+nzDrRKCipMKrEDFpx/wO/VWUtOe8iM7/8aWvvMMpHjzfypJytWz9V6XhvwblLjdxh5YqvLZ9uN1wul/Crcgk/q1UdeK+2vkHFEZ+s32TkFo8wTjjpVGUuN2/ZKtfDjREjxxr1DY3eVIaixRAJLGXReReGmEErfnLPfcbQohHGxZddbtZFcJfE5UqegpIyo2LUeBXKpOzC0nIxmV8y/u2VIxEy0nqkdX736msxe+48MRczcPX3r4PL7ZYBczEmjhutLOSWLdvkGIvp06dh9MhKb04gLSVZ9TK3dOlly15TcdOmTkZcbAz++vSzuOJbV2K1OCtSrriydnVfI9baKM1uoiACUj3Obk8wI6T8WJlWKAid7t4edWq2T/GpJO6OO36MMaMqpTfLkO816Z9IaxYBYdSo0dglg/wq8doYOPgniXWg9eh1OlFWNgL5ubligh1iSr8mfD8DGdeUZWDQXvJAoKuWkCB1EH7Yi3ww2UNsnB15hQXIy88X1z0VHrEEbrcLL774knJaVBrzoOG9FALxwlhhUT7OOGMefv/g/fjtA79CnMQxX119g0o0stKvKJogYkTpcFX+zt3VKu1UccX/W8xfRnoqli1fgcViopZecAn+/f4qlT4sTMkrzJNxKk5M5uo1H4vH+CEOHKrBv5a/Jh5SDwoLCzF+zBiVjmV5vHlOmzdP/vLCX736+nqVZtv2HcpMWkN3dzdcohDpH0hKTMSjD/0OY0ZXQnoZvn/jDzF11hw8/sRT6OjsFApBIrPCK1QNfellC9W7qtUxKytLHTV4f1RFGd5/+3W8/+4b2LjuI7z9xnKZ5yapRn7b7XeodEEls1958OBv7se/334Dry97BU8+/hiWLlnsK5CI9bZWp9Ns1QRjGFzSOnlMlEoTcXE2maNdhw2frMb3rroKKTLRXv3xGlz4la/irXffV2n6wtSpk3D7j24R5Thw3sWXYvoJc3DN969HYoIdf3z0Yelx/smmHjI41ln5JVSc8H3q3JPwioxzr7z4Il5WxxfwqoRn/vaUKCpJpZ05Yxrefv01qfsfpfGVoLGxCTffdituv/PuYH0Ewluo5sPKQ1dXN15dtkwiPcoa6Xu0BEqt8t+fPkbG21FYsnixKu85GWfZu8M2E2ayBit4XVlZJn89WLnyI1oiH3jKgZ2dfMqkiQF57fFxuOmH12HNRx/gjNNPU2kfePC3/vyS2BBhWsgJPOq6vqFBrQD86bFH8c9/PI83XnsVaz/+UMqYYCazQJdpCsGPkpJhcs/A5qrNMvGehBnTJ4tSpqgjw1SJY8MiqFSx3MLnqXj3rTfwyO9/i1ixKs8895xyriJBlyijQAj+/Je/odclnUGEc/aCBd5YsyxC88srnb1FHA1C0ZMQVlmB1QzFtKlTVYs+fOQIHnrkDzKmmUJd9tobYqKWwy6VPmv+fJVWHAZsFa/GLYaXabIy0jFcPCOCZtXLq/I03TI2rlu/SaWTeY1UwLz52OOPwyamMDsrG9nicdrtiRAnQwQXefzQQtA4de5cJAjPDU1NeOSxP8r4JGZP4hn27DuAN99+R6WrravDm++8C5kXqnsJ0oNHlA1XXmOcLU5iGNs32Lj2HTwEcb6wfMUbuOrq7+POu+5WY/dtYiUqxeT5oJQUA6eMzQcO1qjAfH/7+7N4+dVlqoEtWXSueM9StmhUgd5gvnhB9JY+EG+wP7yyfIVRWjFapS8bOc4YM36qOi8aXmFce/2Nvknk7x56ROJLjYlTZxhLLrjYmHvafOUtjqgca7z5znuKFtP9/P4HVP488cwmTTvBGD9pqiHzInXv2/99jfKyeI9p8oskXeFwY/L0E4w333rHR0N5g5Juj0xmw+HZF140isoqFZ3KsROM08861xg3aZqied5Fl6g0GzdWiRxKjWKpx8JFS42zF5+n6sQ8N936YymHJYWCsfQGTY9T+CSPit8yxfuYCVOMe+/7lSFTCDODF3crb3CEeLFmvVSQa8ooX/ItOGepIZ1BpfX1LDbEooICFIlHkhCy6BiKc86aj3feeA0nzJolnlMnmlqaxDxW4ok/PoZf3nevr8fMk8F+1syZkBk5PvzwI2zfsRMzZkzHP198HqedcrJKw6TfvfLbuPQrl0jrjcWR2lpkZmapcWbZshV4U1qnOHaoKC8Tez8K5ZUVsMXbpGfXSau9xtfWc3OyUVyQL86Rt1pBneB8GXs/eOdtnCrltrW1S6+vQqP0tLknz8Xtt92u0pdJGZdddpn05DisXbdBmXUuxv7m17/CHbfdIrxKW5feQNJW8qxD7pAckWG+KceiIowT5+fshQtkbH1IzP9K/OCGa6WHegWj4BHHKw3FhfkYVlCkHCaGCpnPnTn/TDzz9F/x0j/+Dps3TwznITQZumAzWpuXsFbS5NJSJlcpaFgTEu2+aFZIa4x/OUDSNaaXaRfTEglc0WBemixOICdMnqa8p5eefxY5ogxddI/QW3r+RZA5Hz758AMMKy5Q+U0wFYPmn/Wx1EVuOWXs6RW3n46QTSvXArLPiT3LSkoynaXjAdbNb6KD+PJC11FD5xHHzozmX38CEggl4oOVkiBR5g+JFkURpGulGR8fK55gkl9RWp5BoJLo6TE/PaiGphYMHZorY1W2um82K0ME3atcaQqbyzIaqpGoUq38B9VFbsdLz0yReWE4RRGkkCxKClVU5HEyGsQoV1FXPDacCHwy0/DpSCoXkj5Q+5EQvlX4wfuk0R8dE+HK5GRw9kmnYt++/TjzzDPUqjQnllXi0f32d7+Tlt+DRQsX4tGHH/TmCAQrFrH0Pm8K+rvfF8g466LzK1qmvKKTrRV+Of+f34q2c9du/Oi2H8sk+t9SabNfsaojR1Xi+9deg/kyDUhSKwMq+Wcag2LfIBmkQ9DQ0KiWmjKyMtUUgFA60hr8jGNQKCsYZHlgpuSzgb4Gnf/viNSOPo+KIv7PKmtgvefYPLTBgkFpBj+v+D9tBr9AIL5Q1iDCF8oaRPhCWYMIIQ4GL7ilkNs5+Rw4Wu8j3OITfTk+e+VDbPOx3mcXlJNLQqME75bMiNA+brBsdTyPXJHMkMAnaL74YGWxoDVNXbjhw4PYLtpyxVrFzKQ6q4Y/u/msMIZE1TUxO8GBZ88ajzS5F5wzvIoHJ1iT/b0GzvzHGhxJzLZU1r9EFgotJ+tdAwmGG5OSDDx4chkqku1KYUSIpNib/rWdiopBW3wKOuMSLSFJgj1MnBm6bAyBcY5Yu2LJrz4rPjtWWNVR5oXdcQnojPfXnzLq8sqqI94bQmSnr824ZpF7VacHa+pb4DTJK4RIi4W2uVzSo2K9PSUQMRIZKz0n1vBYAq+FmPc6RtqZL17ykGb4ljXYwZoFTshNOWj5BMrJ5mFww+aLk4m/0NAbbChvnjLWFROPLiHtvaUQYgZbJNyychuebEhQrcSKIaLnb03LQ67LkALNbOZf89lVIGkiBvmxLpxdnC5dm5efHbOnqmppgbxsl+q9uKdFehaf2ZkJuDslUo2d0hMPx8fgkU/q0K6MnZZfDNKdHbh7cha+NiIXyTo2srLsqvsSmqcUVzcuLEnCTVOLkCvX2pb2BTLKTQJ+ZVpq+BkDmyKdDB51La3nGrymeTso4cZ/78HbzYDDphVMBCvLlFvEZq5uCFW7x4l4GfBYAMek5/d14f6PdoOvHlBZVGdfgSz4mQ1kO6CVDDKE450yY31Zb1oSBnrDtE9WmTDdEbcHNy6vUorqsSUop4yORZwEK8xyzL8RlUXB0pamObuxYHQGsnraVWxHXDL+Umvgtne2gftyfaRNehawTfkjQ24LAlU3uBCRd11RJvAmsqZljzok4fuvb8VbzlRRVDxiZRzLdbbj4tl5SHb5N876YaqpD2WZg1+qy4FvlGXgxonZyHJ1SpwHnbEJeL7NjrtW70GtpFQKC+GepL2RUgHf7XBa+ywhRA5+aNN3w7s78XZvCnpjRVHSowqMLvxidgFOy0xEkku/OGeqRpHzyqwPZZmgwrKlk1xemYvvVSRhiIc7fgx0io19qsaFe9ceQL2ks3bewFFQ4NdZn5X5LEMpymPg2nd24fUWGxzi7cXKdYGnC7dNGoIFBZlIEyGaszKBcsa88MqsX2URTMS9RVdOGIb/LktEpjgafNbUHp+Mpw44cNOq3WrmrhUW6TGUjiY7wfocrIimHk5JRUV98/XteKctVhp6gtqePVRM372z8nD+8Bxwk0Ko2AKpR6UsggkzJXxLFHbj+ExkOjrUmNZuS8YrtW78cNUe1Ml9aw+LBDIVQZ+DDuYcKbLKTNMXg2vfq8bHjngZQuwiSwNFoqhfzy3FgnzpUZJGyaMfzYcoixF6kqZgmRmzEK7z0SReMz5b5lvtqhe1itPxUq0L94hJ9I1hnxcEtLpAafvc83d34e3WWLW6Q/mWitxunVGAM3NSAnuUnASQC7qKumeZiFELssokjsrFFZUZqisT7fQS9/fgHnE6ou1h/TSkQQQtVH+NqKg94p5/b/lmLG+1iaLE9Mn9ImcbbhJFXTDM0qMsIIWAzmJBiLKUw60oeMmEycklFZrEa8cX4Kqx2cj0KqwjLgl/OWLgVnHrgxVmvmcSiGBGBxNYmzCSUX91j7pe3PM3nWlwiNfHJabc3jbcd3IJLig2FRUJSv7iDQbLJ2LP4u9hBMMXI1RIiEv435Ie9oMJplvPlkMv8fm2BNwlE+cjcl8rLLTowQ1dm2ApUVGcR934npg+cc+dsXEy0TVQ6OnGL+YUYn5OKlJVygjQw47VG/SiXzPIXqQZCxY3M9Mkarc+Sxhies7D/nrYg59pt17XKLhmgxyUh1Um2uu7RtzzFVxCojPh8SDf04nbp2RjoTgT4b0+C8LZQG9Uv8rie7rB2X2ylxZD5Vjd+gyX+dsVNIlP7XfgZvESG4WGm5OvPrkc3FCmTzoD3fO3W2PUuipfQuCYfs+sfCwtzQk7RkWEmEGf3L2ZIirLVDD37qlLH6ggHaX29cl/EuEY9m3t1lucjpfFS1RuvaTty+nwMabAq8CYiIgy2f8k9Bh17bu7lXuuFCXXRb3t+JW45ws54ZVrrv5EAyV7ZQYDKxeiLC7Oprl6kOtoRn53E7IdbUi0lKEfhgTDahKvHWe69YTPrf/k4DG59Vp9IbpR7ITE9o0BJg9EYGatqBvf3SkTXulRdM+lQZdKg711ZiHOCnDPw8tOI1mEk+NoRZ6jCbndLUj1BL70Hfax/s5uDw7ExMIttFNdwPgUPsvqG6rHSXo+euT+jfs3H8Yfd7aiLk7alLSS7J4O3FISi2/PGKVWoQcKepNsKMHVJfNmi41oJEJhZgqBWYe+BRqMDgm3vPoRnnQOUYvcXC6ie05F9ef1WUGW6JBtk1GkS+ZHCVKlyjgDxfExvkdRIcoiGKGFwJew9U8paESoqxfm4zY+F3toex1+vaVJeYjjbQ48ftYoYcCmHiNEA2s5PGev5PMi/cxIHxn0/XAgDaqSgeecK/KcRz5rYxiAqgPQLaHK6cLXl+3AfiSKV+zA/WL62KOiVRSh1GCVs6o8m75w5hVEWGVZoW9ayJjwEogECrBJwlM7juDFT4/g/tPHYmyyXT3PMUECDOHFxPzs5VQITQ3PD/ZIyzvSjAOtnahpbUejtLl2w4a23lhxkW1odTglnZUp8zxRKp2WEC+t1Y2sJAPJhgs5Nmm16SkYlp6KsfkZKBCNsQVr5fE8GgWyBlTYyuZO/PT9nbhqxnCcJWOUeiFJ9VRLHfuRWX8IVVZYgow0Cx1IeRQ4fUOaCo5n/fUoptfKqRd/f2N9G6o6nFhd68TmuiZ0eWxqb4hHTDTbHHuwW1ojf9CSTDEukDvznBZCrWbLf7VHQvogZRgn8XStbYYbmWJuJuUNwawcYEJGMiZKzzC3ghlKccoAR6g8+SbPtCZUEhtkmGTHjH57Vv+IUAMLdAF9paIJ41i3rdeFP2xqwnvVNeJV2eEUE+qIsclRRCZHsqvp8Gj+Aqb/OhhUCueZKoklgaq1xexQ/XbpeQnuXvV0PNnVi0UTy/HVihRUxNv6nx8JFEnz9PjCSziisiIW7L0Rcj9MBpOw6RiY7S/UsDANe9+HXW78YuV2bOsw0BybiG5xf3mP3GmZsnckuJ1Icfcg2dmLRB5jPSjMylCCzs/JQiJ3ZXnLVIqVvF0uD440tYBP4mqaWmWyGgeHLUEaQwI6JfTKdTDzVF6y04GhMb2YMSQB188px7jYmKBtCmGr7YNZfqS7USCI+PFTVl9QiUNzMIam47HqZvxh4wEciMtQY49OZxfXNc3ZhaEyEo0emonSTDuGybhXnJmGwgw7MiVpquifomZgToZgsNcy0FTRzLbIRVOvB3XtTuxvbsV+aSh7m7vxaUMzWuJSlFfnFKUrhUt6Nooydzuu/1IlluYng7/gG3Xd+0GfcrS2VMFxMIN+RCw4wg3OxP66twO3rTuAlvg0JdB4+ZsmLXqY3cC4jATMGzsMc4bEqUcz9K7YssMN/GYr9l74Cgvfm61gCv6MJXmhQ/T24R68u/0gtrU5UeO2oUPmTW5bLOKk5w6VOdCDcyuxIDfR4ihFhslTWIn4EE40/rjAu8egrCBBRFBIeDBvDDb3GLjgX1uwR3qUW1oy9x8UejpxzZyRmJ8Tj2IKSaU0EUreyoNJMzhVtGxpIfDILSt7xXQ+d7AXf1q3C3W2FLVVLF7GsjnJHvz99DL4f3nDzMOgOAlbYJCsjhLHQMGbVXPqY5CMmVE0O/yFPnqDZqwG88bgSGc3DtjSxKOzScv1YF5uEl44dxwuz0tAqSjK7EWhPp4fVvZNmsEIjjHZDeSG0GWQCntNZVwsbhyeiCdlbjglPV7uGeKJxqOq3a16oglS8yjlVjs94G+YdQoR1jsQVj6PHkdFhSz6oGtJyA1xhtWciEra1u3CE9UNuHnlTqWwgHwCl0RwjOIecQ5p+RmJSBYlBYo9ChaDCfcBk92+aao0htlIMuzxyEkxJx30KnuEV61qujFuobVfIha9uAkXv7sXf9pbj08dHlVfKs0jhkuxNwAeI+GolOUXJNk2ueBfLk81y8maHhe++VENzn1lC24XN/yVmk5sbe9Vg7sPXuZ1bqco6dkd9fjGW9V4Uwb8BrmhqXuTesGroJ7hZygUgZn7hC6LfB4Wzfyj3YVvrNiOt2s6JF5EJXFsjBoslo3ymU01OGTPwEqZe9y6rhlnv7wZ311bi7VONzosyg3lJage/eC4OBjKw5LwVlMv/rxuD7a0udEsA3O32Hm2vnRnJ26dmo1vleYoT0rjtcZOLFrVpCa5BFtuosuJbI8DlSmxmFMyFAsqslAqAxcn1QmmyLxOEtmO1NYoBHHhIw7wcp/78tQtGsUYJXSase1i45Ztr8XqQ83YLeetMoVwivnTSHE5ULWkHPq7BweFja/+YzU+TshHbwxHWAoVSHI7kGM4MDoZ+ObsSsxNF+9V7mmO9fRiIDgmZVEkVNIHzU78teoQVtZ3okG8Ov1OlxBHkqcHhV2N+ProAnxvyjDfJnsinLKUDgR8DM4KZzo7UJGegjFD01CeZkdRZiqGZScgT4qgcWKwuu7h1EeSemWER5rpLomsl4v9TQ4caGnDzjYXPq1rxb6uXrTY6VAkKCUqKMZMOtz0alVWs8fACztq8FZDL1YfaUN9XJrMEc3XnJgp3nCpJxdnFKXh/DFFmJMVr1ZGIjWzvnBUymIGDrK7Za7yp61H8MzORtQmZiszyOpx+Ya9qTQhBifkp+HyqUUYITfIpHUetFyUtdirLL4CUxwvZqPLod5T6rG0Zg1OiCksviCR5JJGkJGCnORE5GWkIdUWg7zsNKEfWh0K/VBjOzrdHjk2o6GrR0KvTIqT0BHPiXGSTIwtnHG8kutEKStN5lhxSck47I4TPkVZMq2wKovglEP1SmkFf686jFWHW7FXzvmelsvb27iHPa+7BZdPLMLFZTJntNsCGm40GLCy2Ju4LLRaxpWbXt+GHTGppmClInHSilKd3ciR8IMzx2BeWgIKRIgUO5VoBQulspaIsgwRjF2E8uAZwxHvduNPq/Zge6tDucuOuHg4pcL0GDXomeleqHuiSZGlmBHWXmrGm1BRvktz0qtB/u1SfqKnVxTVi5lF2bh0Sj42tDpx9yfCp+RjQ6laUhGgLMIUozgckmafNIoVjU787v1tOBzDl+mSJF6UJvc40R/lbsZPT5+MOTJx5H4MawPuCwNSFk0I91Q8uInPqmS2b08V5dF78yDZ3Yty8Xm/OWEIzi7KUvMQKkkzYlbFHEs0rGYwSVrxc6eV40SpAM1VdYcT6+qb8XFrLNbI+FHrcKoKu2IpECmRgSXLmETrr45ecxUOTMXeq45iurgopShIXJyEeBFiSVqKKCgVM9NjMCUnEyVJJvd/PtCF6zaQz5iIyrJCr5bUug28VtOER6qasUf8ey5tkQMuIA91d+Mrpcm4RoYGyor9LwLrPoRXlinZALBwuqi3rqrGijqX2jpN2bCShTIKXFyciP+YVIp8qR9fc4nGJluVlSzKen5eOU5JN5XMhqHHF5Z9SP7skvTbDjfggMzPGo14NDltEF8G7TLHcUiJ7T1UqJVx85xvHGYkxqtXajIS7UiLdSM7zoXcGKd6RDImPweV2UnIE4lRaCxfNzTOoR7fLxP1jSaf0ShLg0rjcMGHio9trMHTe9tRJ7M4J3/IWYScLhZosSjshvFFKLPTArHZEUHC9yKqnsVCd0lr/MYrG7HZkAFUBl8qKlF605fs3bhnwThUSBp6etF2aUIri22czoRWll1zpHmWa5oXrUAdyBf7qg7MFlwZTYJHNiDyx6M+p1K0gsI1MAr7aJWlQV4579ol5vG65Vux3p0kMuTjfzpRPZidHouHTylDoTBAPiIhHH/eGrP65ul+Cde8vhVVSFebQRjL97WuHpWB358xFuMkho8QTEWZ+QYCKj4AvLbGyTlpczsAGwQdFW4z4NuX+RL467jFEoZJoBCtoVjaIuN5v1BCnoShEpifrjTpka4WROS2Gym+f7AxkOcJMpd8fOF4XF6apORH5dM0rmoz8J3Xt+CwpOlLeuGVpcCOCvXC3C/XHMCHjgRzC7CYknx3J26amofvjR6C4XExQXsqgiV/rPCuAFjgu45CftEspFoROf2x1YvSpJxGiMRvmlyIa8ZmI6+3VeTJPReJ+MBhx283HlSLyZEQXlnCF60nx4qXjnTjhX1tah8gn7ByYPze+CG4YkS2aqGhZu/4KysYwSXo6yh0FxahzaEPHHX1zDIocFqCK8fkihzzMcTdJXEedNiS8JedrVh2uEuNk+EQsWexO9aIN/OHtftRn5ih3GDa6yvE2/vPiqFRPTmNFqbp4c8JhDMDfXZ+H45WUSQRvJJgpcXzAJ6OtqCgevCRzzdHZuMrw5OVXLkiU5+YicfX71PvCYQrJqIk6IX9dX8HqnvM6iTI3GNqqg3fGmHuLI2MgY9ZND1uccnXHm5Uz5U4IFsRKMrwMLk8PtB0yAdXaDbX83X341cCFcFAOV49aRhmD02W+Z1Z6y2OWDy9q1k5T8EKC6ssJmqVXvXU2mpx0ZPk2kC+4cBP547AUMnhz0TFREWyX3Di++CWRvx+e51aGXEIXZrhYOrHA33RZI1Yrtpi1u3GXRtq8Nw+OgNU1PHgxpzrkRqHkFw5uXJUJtJcXSquVaZEK6prIT5HSGlhJctetbm5E63iSNJj4aRxbFosxsfbAlxLc2p5fFoby2mWhnH/1jYsXrYV9+7twVaXWzHNNkfGdYgW4dKHu1ZB/lBJTXLc4HTjh8LH+f/aiif3daHNPtCFIT+CyzNF7pcZ1zbnDE1FeSKf6bmVHA5KIzkkdQ+2UWGVxUR7O7rVRhKaKP68wsIJ5SF7D3iur0OZGhg4JlL5HaKw3bYM/Gb9AVy0bAfOf30bbt/WhNdk1OVHY+mdcoNNNOVZ+dPQcczPuQ/Hh10SXug0cP3GWixd8SkueXU7/rSjHgcSssRTo2Uxn7cdDYLLDwYVwEWEC2aWIVnmmkSbTCq3doc+Ig07KWYlfr6zAQ9sblFmsLirHk9fMBkn+EpW7HvPTZBIf4wFw7qCwf3hqeIZcZ3RXMQ1qdFT4uP+dG6ciTMwPDsDxel2DI03kJeWgty0VKQn2JAifrFdsnATDaF5YYWbpGvyQWe7w0CHtNj69i7Ud3RJCzZQ0+bA3uYO1HnYUPhYhw42c5ti4cSflqWTSpPoo5kU9ycbWrK1vS5c+PJ2HBZnjnW9YeYwXFuUFLDXI6yyOMjftaMRD29pURUo7TyCly+ahrHmbYW+Co8WVNbiDzmYxqgFzjvml2LThv1YX9eBWpcN7TIBd0vvNk1tIJtULlfek8Tx4V4/rmrTjMRLiOEbGJKcufgkl3sO5a5a5nHIeU+sXZRCE8/vd8kIYhEBe1C84USqCKxQbNS0/HSkleTgd2sahKRewQhcdT9W0PxuEdN7oViS3bY09WThP8fk4yejUlWv04joDVgfNXDFmyvtBAWgFcUU/lRHBwqKAooTZU2UJvbgCSV4fuFo/GTeCEy3daOAb7L0tKlHE7qVE2r2Lw2pMSEdh5KGYH9KLnanFWB7RjE+TS/Bpxml2JZRgh1yvSc1X+7nSKvNRrM9XT2CoaKIWLdH6DqVqc/ubUdhdwPmJLtx3xkj8cKC0fjFjGJU9ohToBR6FLUNyBZs2PxwCP1uJ0dn81fnCrPN14asCFWWEGY1KsUa2KSFEZwQf3SwS7mTVpiKIyd8GcHPyECrZC43mf2HQ3lFXCz+I9OO5WePxrJzxuKBWXn43qQMLChIQbmMWEN6WpHV24bM3k7VA9SmT+llfKzBZ16J4gazt/GcgWY0WdKwVzB9huSjYkhnrN2JhXlJuGFyJh6anY/XFk/AC6eX45K0OLVphy3brKOJcK/v9glTSH2CKvpEzFm39Him5S6qitRQ5YQ1g7Shq5q6cenb1ahLzFJLTKclO/D0vJHqFzm5RGJlQPUOVYmIHTUsIq2600MiSJENhJVhs+E5Q6u0iz2tThyRsaemrUOOneiRsYjbrNtl7DEfm5gs0kJkxvIRiBupCXYMSU5AYXoaijJSJdjU+iBHSDZQvaDrHfYUjsdCrh9s0IEyIp9cYlr82g6sdSaoKUy5qwXPS0MdI943eTLlSycnWFlyxSeiJHDSM2uxOylHjRtFva3468KRmJkY5xNmMLSAokWgsnpFWSMClBUMzSiPWomsvu7x1nOdlqLRwVSe/6hDKPxCPb7KCgXpL69tx5UrD6BBTDo7wimJXXhezDAnzVZ5BqqZkLuM5BPMK08ZJ5M1Tk/FZRZTePN71Tgk9aCQwmEgiuoXWtoWkD4D+WMPoInidIJLXwzsJVxNz5b2xwd6DNxow/h0UUCaEKWZZT42iPCKIkLFcjwQXCXKkW+D3r+hVj0fZO2yejuwZExJyDSJiMgVhbF4aIKMXS7ladGDquqKxcNba5WzwbZ3POBnKKgqUWg+jD4VQlfOmTIKghHBvMeSPxA0ZrQAXMr65boabOqKUdMVLpRPz4jD4mLzl2iCEVFZNqnfsNgYfGdGBYY6OfPiY+kkPLGjWVx6i8Ioh0hSiwa+vOH2yfaDIAseGVrYdNNVRNRg8uPdMDmmNgrhP+xsV3v9+TYL7+X2dOCr43LVM7dwTSO8ssihpObNc3MTcGllprLVbA3N9hTcv6MFD2w6rH4JzWnKwAffEMiD97Qv6AeP3JXbKFKJ9HiA0CR1GQPbd8c84oL3k8XKMs+5RtgSoK2BlBkEIUhHiXL7w+52/HJLnfqFb3Oy3YX/mlCMMwvSlVOhYGVGEF5ZFn44Flw5rhBL8xKVi8ybbXGisN1duGVVNfZIRThIaro+E8RDpHoxcRAjfMXm5+9vxQcdvarX0iM1nzP5JaVIiqIGpiSdn3kiGhIfmIqlsqbcXvbykXb8ecM+JdCBeu1WMGu30OCS2XUrq/GLqiNo5WqJEOUcclG2DZdXpKvx1YegaoZ13YPBgXC/dKtb3q/G8hZDPdmkyLh/YFKyBzdMyccpQ1PV4K29rWhg9QaZh5tv0mUOtLQyGxcNz8TkjES1C5fbS2iW2Q6ipR0JrKyi4TsxTxloOVjXTrlYI7w9LSZqxb4mtRLuEo+YCN6R2x/YVBi44/ct8fp+tu4QtvbEq9/FVT1KJuPnDI3Dz08coR7mBvSqoMqGdd0DE7EoPjWOUYuod6zai+dqXWiX8Yu2N0EmcBlia5eKB3PVmBSUed/+CCyHNAJbNYvR+wapLA26rnx5LVXMbrE9Bl85YQROzrKjwGZDtiSj40ME1cN/rfkPqYcZZYV5bUgvpgk21Er3v2oceGnDXtS6Y8Efy+8Vx4r1ZK+icJPd3di0uALmB+cjg7RpGUh7j8uDX2xqxPLddWq3r7kdm7ubunBxUQpumVmkxqnI3qmJqHqWBltdvaR+proOv1hfi8YE801FtU4nAi6L68W5ZVn4xth8VTjXq0PF6oe5I7dRhKHZtChVaHJpietkGTEu5CXFIU+UN7ZgKMYVZWKk2GeaDC67snHwSBFYm4SuGI8cK2jaaF5ptpukG20Xe7u5pgGf1jaiTiJre9xoiYlXr8i6FE/MqamY9dDzLG7CUTEBVfTzzycD++Te42LuVuxrxl5XPByqgdOCuFHoasd1J5Tgy/lp6hmhr0cFw0J/QMoiyA4Xet9pduOB1Tuwodsmg6Q5R+DWqjSpzOhEN84qzcSCygKUiwQj7e02zaAoS9oU33g8ryINO3fXYrdIlTStu3AJbsvmUhI3hCZ6epCdEI/0+Dhkp8h4KrP9tMR4VsibWsBKyiVjWrhd2m2gqaMbzY4edEhF+OIEd2vRbeaCr4JXMDbpaZzzjM2KR3J2GlYc6hU6fW/y5KJbq6TZKS1ieXUDXtlZh2q3XS2GMy8bYIazE7PSbfjutBLMEYvBuV+fvxh3LMrSYC/jz+A8XFWHl3Y34JD0IwdXsr3EuRZX1NuGRZX5OKcsG+WpCcgLakF6zDLEDHL97m+nj8AomY0vP9SFVzfvw75uN5rdNnTFJ6A3JkG1So2+BnxWKXCuZalxBNA6cOsCx6Sc+BgMT47BuePLcXp+PF490IUbIuzIpRzYUxtE+Xs6e7Bsdyv+uaMGh+3pamznwhd3Iie5XCiK6ZbxOBf/OTZH9Ux+dSJ0ThgZEcYsiznqA0xK13Zrrxv3rD6Ij2o71FimN4GyJZGhHLeMTRku3DdvvJqZa0RaG2TJHUL8gIwh67oMrNjeiI93H1KNgb/f55L07HW+38SQCnNLNduoRrDC+FyMPZ9KIU/8Jgj3tuut02kyWE4vKcDisdkYmxCD4jjzxQGaz8f3d+Gajc2qsQQqS3qSVPSpqgN4amctdsVloF0aFV+5pYpilCVwI93VgbnF6bhperEMFSZdJR7vMVr007P6Vxoz04uit7O2qQt/29cqJqBRrdQr8yLCzehtx+2ThuCK8hzFqEYkZXEMUnTlD3fikj7Hmur2Xhzu7sWhjk5RpA2HxG2r73ahsdOBNqdHTJ1DCZRQglAthgLxIEtMZUZcLAqzMuVooDjVwDCbB0VpKShKTkBxcpxahmJtaXwZmJu9xlSW2bPoYGwWB0P3rCMioq+98CE+ihtqPriURmQT5bOXZoh1mV+Rh0tLUzEtMzGCt0wZE8FyDpX9UZtBDWtmCpQ9ba/HgyfX7MY7TbHY08Pdu2147uxxmJzq/xYUEU5Zp4qy4pWkzTQa9Kz4kJKK0y42k7FK+khEqgyrTZLm0ZwOWBUTKkQTprL8C7n0UjdZelaH5Hp0exPu3NakflSfvbQiEZifF48LxpagXPTHRkDnJxz9gSBYnQMGGdCBHhk9tPFiBn48qwKvLCjDY18qxiVDPBgriqJAlFi9EtUCprnS44866FpZJM+JMBXNMthCOVmn45IlabhYqxduOVcJF9QCrwTylyG0uFBNOqRHuj5BskxLuRq6SQfekp4mfy8clY2RzhbMj23GX04ejpfPKsfNU0owQYiTx9CpzNHhmJWlEFQ5jgkUZpEELlfdfPo01bpMhqVIL+c8xHCskfRcbtJxPshFGLkFIiBDMLzNISwR3VQIJvAmUkyZp1ZYhr8AUIBsJH9ZNBWPnjMZZ2Tb1I5bPt7Qc8LjheOjLMIiED2w8y9bLltxuLqy8BgxmbzL8WCfjD80o8HSDSvrqOAtNahwk144jkLBsfigg4bXXORSKym8YQE3tYxKiEWuUDaddNbp6LmOhOOjrOjqHYIU8YzSPQ7lpXES+uv3q/BuUw8ahCDHpGNHX4xZ7/Hcf00xc/zls6Z/Hnbg6Q27Vc/nL6hxh1XECaxSFP+pZmhGHUccnbICGg0vpCX1yxunjIEoT0/ERKNVLVnRFd+ZMBRXvVuNWz7Yiy1yn8tbbNnamSB4DKYTaNJ433odeE/BS8BKh+d00/kwiG93rhVX9MoVW3HTR/twMJmGzqMWss+QU+v0IxDHz1CFwzF7g8cCtt4tMvG96r3dqOrhNjE7GVIfV8s0nOLuxuHkoQk4sSQXFalxagzQnhvF0pcXZ4WuINNRdQw0bPrIQK9va7MT7+2twQfNBta38AXxBNXjuUmG3uqpOYm4bybfUjR/puh/G8dFWSRwNJ2e+bhet6nTjR+vrsaHLeL6c6+gOB28y72Edpm48qXwYSl2TMzPwLgMD0oS4lGQkoQcOXLulCaSMz3NyGBZVI7oAy1ONxp6elEr87I9MqGvavCgqq4FdQ4Pem1xygU3lSSeokye06VHzRsqHu7McoxQr5NScKTKE+/xfwH/Yz0r2rowHc0cN+i8dMiBh1Zvxx5bKrpixTWRzBwFCP62E1ccOI/hNgMeuVZIz5OrEnlpychMMafcrJLp5DCYnBxpa0NLt9PsTdIYzBUQm3qOxi+X8qcV9IKyyik0Uj3dqPS04wdzJ+Fk8fLo9vfVk1lSpHvHA/9LZpAistrzUFUyhgvER0Rz6xu78OLmg1jT0IlGe5pabKW32BfUJ2VJhclUlTglkEtvNpecmMrQZZvwK1ZyyDkXonOcbTipeAgWj8zF+Oxktaappx7MHcxJuLhIGEjaYIQoqz9i+v5ACg1WlZmbCE+BppFPi3fKQFJ1pAXbW7qws6ELu5vbRaFxarWc64S9XDiOOKj7OQzmlb9eY/f0qsVV/gJOlvjjZdnpqBySgLFyHJ+bilLv04LguVK4eus41pPH4PuREI5WXzhqZUUDeleH3R7sbneIs5Dsm29ZW3N/oACoPL7Oxt1Ae6TnbTvUjb2iuINNLehwyThjxMLhMeDkYqLmTu13pyJViUiQcc0uZSaJYtLibRiWnYkR2WkYV5iAYklCxXAiH261ITK/pui4DEb+NkqjGi/15FuN/Y2hRLAs+5Nt32ZQ5da3g8j0dU9ARfERyjXLq7Cp28Dds0twtu8zDwODj0FVpvda/tABYDk9ct4t1eAxEpIkbYIInG+amD//ZXJh/jVhPY8WbExsRA9XHcCj21tw+pA4/OTUMeqXBKJRWF/wVteHEGWxcAqAgTdYIFtb/64qc5omSSvqxnd2YXmbOYgXuzvxs4lZWFRWoOiFQzBz0UAzz9/18w1QCl5q3nje0eHY4a8r54GPrd+F+/aJhxmbrN5quawgFj+cNUL97EN/CrPWWcvdXC8x5a48TwlEiMHn3Oe1/Q34+af1uHtHI367+TBqmNsCLaBAWBQlJkl9lqhNzJN4WsEiYv7gnUuEuUxDhN6LBFJmsIlCKBh/8F5LvDaGgVxERz88QsSmwFWOTlsinhKB+T5HZd5SCF0W8PPEO9Vi4n+z5Qju3tmIX35ah3XNXQErOSGlUtjv7T2CRzfX4ZGtLXhy017UBdWLBYQW61cUP0v0riiK7rf6amhvB+46oRDzpVdp1ZltPbh4fR16L1x5fUOY9mYyywuGSZ9JBk7bD3qJl02pwHfKZerAz1EJWfU5qjBfme3vg297RYBPbDqIhza34LGqIzJJbzNXb7zGL1hainCPzDnoLrfLDJ4P1PgAMLhKwcVSUfwi27Xv7Qr8aqirLeSroX0Nk5EQUF5/2Xnf9+OPfYNJokgWERQg51++z1F5v5SuvjJbF+Yrs33w7hZT0C0y554N/vKMk08keMNr3kOUFQIRrJJtH4WoHiXhBv3VUCmIhEvcbbh1RmHQV0O1ZxWZaB9FmRiQdPulFoCoUgclYl35rMz6OSpWsVUUNpCvzFLOmrS1PevqRlCWNaUYLKbmnyAmCSoq8Kuh5ht7hdKjbp7u/yyRLjAsEQt8zHqPRwXFr3l6jJSihqkwI8JXZh3+r8z6BdEnwk0VIigrMKFPy0H5dY8K/mpoXk8b7jupFOcHfD9KD3y6SBILZUjHht45WkSoYgREVW6ERByTaBIDvjIr8z2atUhfmbX2oECE3ghbk2gY5sco1VdDafqsXw3lR/3nmKbPryhiYEIbrKBHywm27yuzTu9HS23hvzIbpgOZsH7z0YvwEoykbW+86lHSUZR73iLuOZ0JD78a2o3bJw+J7quhgxwURXgx8ZdNDd8YZn5llg9YRWGWr8xae1hYOmo7YCAGbCNMRZnuufpqqHiLZM78amiu5auhLMzCRviaDVqwIaoFnDD1ommjYKmwSF+ZvYVfmZVrfmXWP7+MBPN+WGV5t9sFQhjQYxQ/6r+mx+5TFL9xeP/cEstXQwmSthAKR3OwQ2nMPLXCt4ovIcCtD/OV2XpJ69u6HRHm/f5S+cCX5tQS0ns78Y645+zSzKw+6q++Gpr6mTd9kRHZbND8hXXr+ZXZOhfuXrtfufXWlQoTpBlINyplUVF7tXveEieDpe5R7bhJ5lGh7vnnDZGVxWU1ClmZxCC3vk259b3KrVdLU/0IMKKyaEkJPlGtkZn19W+Y7jlfBPd/1H+YKCojyOv7/MDf9r1iDKOzYJOo3fqs3nYVxzFMu/X1cZQ3Y5nHDFaSEZXF0ZMKa4tPwp0rD+OtHtM9p6IKxD3/+Zei+Kh/H/BXdPBCi9QHuQiuk/WaDol262+cyHlYp1IHl+bo1j/8SZ1a/YkkmcjK8oKa39niUj2K+/vyjG78aNIQLBBnQiuKpPsKnzcE1908l3+iTCqXPexrMoZdLW59prj1dB+56L25tsd8uUHB2gz68AYJ/VzRfKVGRijJmyYt4Yez8jFf3HO+h8XXcvjjjX0FfqBF/oeArFjZ+SyAIuX7yOHk0CYC1OdMw529l44fhv+oSEGKp0fJl68yaVlrl9w0hKaaQh4+8qnnLSu34akGu/r1MCVSNRfgNmEXRia7kermd34lG+PFJvsJqFLMM7MsjLe7ce/cMUiWa2/UZxJU1BGnge++tg5Ndj2K++URDtwE1GazY0dXDHoDNvPEIJOPlaZk4bIRub7XpEKUxb0Et7y/DU82amV5YU1lkXrf7AAnxnfin/NHIt2bx5/Vz9jghb8OXI3g86hTX9qImiTu4DXBDuLb/RAC3rDW30+PyrpnciYuLcvzKSvEDFK/JWmJ4G/7cY7gA2myYPNKgXpWxUVkxptJwLTWvIMd/irrM+t7l35QNoHysUohWCKmvPgrdImuHuQmxAfQDOlZbCG1MiDdtuYI3ttzSLnuAaWp03CF8OBdNtHNSY7Tktx44tzpSGEUjUWUDwUHBygMUzbcElfT48HSZ/6NhsR0iwy0uOXcKxMFLVN1sAhE4vkmyrljh+NGmURniankkMPhJkRZBBXGpSW90BgJOmNfsmdP5caPcK3uswY2VXEVRG6mRALlQmn1JSkNU6rcQxIst7DKOn4gaQZdJKvzeVBbIALUpKUdrLeAROHRv7IiEY+EKAr97CHKRngUsrFm+R/uWV/geOLzZ5MGLYD/B/N0nh4Y6L+pAAAAAElFTkSuQmCC;" parent="1" vertex="1">
          <mxGeometry x="30" y="-1500" width="73.03" height="93.5" as="geometry" />
        </mxCell>
        <mxCell id="mECkBH8HhTOBhk_B8JF5-29" value="" style="shape=image;verticalLabelPosition=bottom;labelBackgroundColor=default;verticalAlign=top;aspect=fixed;imageAspect=0;image=data:image/png,iVBORw0KGgoAAAANSUhEUgAAAIwAAACJCAYAAAD+DdCNAAAAAXNSR0IArs4c6QAAAARnQU1BAACxjwv8YQUAAAAJcEhZcwAAEnQAABJ0Ad5mH3gAACaNSURBVHhe7V0JgBTF1f52dmdmL+77hoXlMiByCvwi8iPIERAMGA2gAUW8knhExMQzf7i9gjEREY94oJEjIGq8Ihjw4lZAOYXlWHYX2HtnZ2em//dedc/0zM7swS7LzDIf1HZ1VXVVvaqvXr3qru6J0QiIIooKwqIfo4iiQogSJopKIUqYKCqFKGGiqBQqTZjKWcge/WgCZ2DOJGSGQa4lVK+FzrmZygmsmx9C1CdwzVBmHoHwBEkaWA6f66kqnG9whK5acNkEARcEXSW53W5s2vwlXHQcOmQILJYYPYaup+TfbtmKvIJCdErpgHZt2+gR5CjZyfRT2Pvjj0hKSED/fn0RE+O7tmxwpUPzl7P/7T334733P8BTixbg2nFjVYQZeh3OBd5LQ+QRGJyenoENGzci6/Rp1KlbFz0u6Y6ePXogNvZ8K+2y2+m8gwkTiKIih3ZZ/4Fak9btta++3aaHKhRyXD+O66BN/fUtmsejR+iY/dDDWjOKmzjplxQXEBkUbnXgpN7kepgJHHXr7XdpTalO/1y1RgXWBAJEcLk92rxFT2rN26ZoTdq0J1kN10HrP+gK7dix4yphRUQPlqYi11UnKlmeH1XpXI52uw0tmrcgnwVr162TMAMFpFkyMjLIF4MffvgRzhKniiC4PB58/e0WGY2jRl1TQe2iV4GTepMHH0GSn0nblalKKwCup5JYh9+JjgAR3lzxNp559jnEWGIxcfx4PP7Yo7hp6lQ0atAA1jgrWrZqqdox4LqgCJamItcFq2c5KH0Jh1Swnib49YzRwXz8+c/HUF4avv7mW7iJCAbefPsdmqo0NGzYEOmnTqGw0KHHAMXFxcjIPC3Xjxs3XsKMivLx2PF0bN2+C8ePn/KGB3a6LoYgN7+Ayt+K06fP6iEU5zeD+qrPuZhjGHx++kwOtmzfiZ+OHCsVb8AbTuJzuu3f7Uaho1gP9IHLXvH2u5TegunTpuJvf3kaM2fcjAVzn8DO7d9g3Zp3pf3NA4XzzjqdjS1bdyCN5DfXwfDz0XCMQ0fSsHPXbr8wP+jZB17HYH8Gtdc3VN6xE77yfDUy0ktNxXfop6PYuXO3+MsFNUJQHEs/JWq3x2X9tILCQgkjm0amI1bB9zzwBzkue+V1iWMcSTuutWiXqg0Zfo2fpluzbr02eMgwrTmp7Wat2mst2qRoQ4aN1P798WcqgZ540ZNPU1wH7eixE9qCxU9r7VO70xTUQVtOZXCSmXfcLdOAeUravfcHre+AwVqblFTt1dconT4N7jt4iKbFG7SWbTtKmeyuuGq4tv7DjySewSkv7d2P6tVe27vvgHb9lGkytbBcO7773pdIB+c9YvQ4mo5TtEce/7MeGhrbduzSxl83mcpWcnM5V/7vCO3jzz6XeM7a6XRqg4ZcpQ2+crh28lSW1Lk5tU/blK4aDS6qf4o28Iqhkt6Mw0fStNYdOmmX9LxMzATG1m07tHHXXe+VQZU3Uvv0840Sz3AUF2sDBg2RtjiRninlcX+069jVLGpIBNf9hJbNmiK1U0caHWeRm5snYWlpx3Hi5EnUr1cXEycoDbJ8+cughhT/mrXrxFDu26e3nDM++89GzJp1F7H4CAYNHoiZt85A//79sP/AAdw841bRYOYR49Ji8Ke5C/Dskr+iebPm6NnzZ+jerYs33oyTpzJw45Sb5XjHrFmYMuVGyiuGtFwWRlwzBpu+/BJDrxyCxYsXSFzasRO4+7f34FRGlp6DytNNGuOm6bfQdLqVyuqKHj/rTvI3UwlMYM0xbNhV4n9zxQps+GITCoqK5DwQRQ4HbrntdtIs2+iaoVi0aD4mXz8ZBw8dxpRpN9N0vs806i04knYMs+68Czt2fYduXbvKgqF7t85o2qI5Dh4+gk1fUzuZsOSvz6PY6caIESMRH2+X8mbefie2bt2K4VTHxQsXYPLkSVTeIWqjafhx3379SqWNfzp6HLfdcSeVtwtdu3ah8vqpyMBGDoROnFJgtt37wEMymp5f+pKEffDvj4m5KdoDD/6RmFqitW7fSZh8NO2YxA+84iqtKY2mN1a8I+ecx7iJk0VL/OHRJzSycSSMVmHafbMfovAU7brrfyVpGQtJw3B5nOcrr70po49HtTiKN2uY9IxMrVO3HlKfPy9YrNG0KXnw36XLX5N8bpw2XXPR/GmE//HxP0n9bpox0xvWs3d/SdsutZu2/8BhSc+alGMNbWVGiculjZ0wicrtQCM4Rbvk0j7aO/9cJXmZ8cTcBSL3DVQHb93ouOiZJSLDnxculjBnMWmYK4ZJHbr16EOjPkPq4CbjmnHXPfdLO7EsBrKzc7QWpHlY9o8/2yBhjz7xZylv6vRbvfXm44Inn5G85y58is6Vhuk/eIgqr2dv0mp6eRQZTN5AhNQwzP6+vXuJlbBixTtCvI3/3QyNRtn4cWNgt8WRnTKOzoE9tIzmUX3o8GGxSfv17UupldbZf+AgrFYrHvz9fYilazlfi8WCR/4wB7FxcfiBrg1Eo0aNcP3kCXIdw2wTxFCNnCUuTJ95O9k4RZh1262473e/8Uvz6WefyrF378vw9Zat2Eyjk12D+g2l/l9//Y1oQgMxVNc5D9yPTh3by7I4lurHoZJnwIiLi43F668swxOPPYx69euJBv7Nvfdj6PCR2Ea2EoNWUnh35UryxaB9+3b46pstUv6XdGTZWIYdO1RaOqEiND7gpmlT0KJZE6kD38qg/sE9v7mb6gPs3rMHNPXIJdvoWr710bJFM1wx+HJQh2PV6jWSWZs2baQco7wmTZpI3jt3UXm+JiKvhum/vhnNm+rlcd+Y2jAUQhKG0VumFg/27v9RGubTTz9Dgt2KdtQIjOt4WiLObd78tahaRgtSoSkdO1B1VNbZOTmom1wHiYmJcm6gTp1kCk9Cbk6eqU9UhXlKs9vjyecpJQTbvIueehbfbtkGC3Xe0CuvIPJa5UpuYEb6yXQ5Llr8JCb+YjImXDcJEydNxoJFiyWdhxqbRrCkYXBYp44d1YmA43TnX7ygXt26uHXGr8XQfezhh9C+XVsi/gFMvmGKTI/FxQ5aDKip6qXlr0gdDDdnzkMiRE52jk9ukVHDwIGXq3MdLHuH9m1lCj91KpMG32G55v1/f0TEj8WdNA3bbTaQ1kCRPjUue+llv/IefOgPFKoh+6x54aCOAyjfyiJOPwYF2zBNiIGnMjOxcdNmHDl6REZIs6Y0v1OhqamdEE8E2rDxC6R0SKErLBg/fpxQRTUBRIu43C7ylYaHOi2WOt0HuiLGg4SEBP08OJ/T09PRvWtn7CE7gG2Pr/67UUYmNzCXaaERw+RZuHA+unbuUqrPuUyr1Sc6X2elevpQ5jgScJ52umbWzBmYQAPnsr4DkF9QiA0bNuLnY9VNRU5z/3334sr/+R85NyMxMcG/XlTxuDhzWyhwmrGjR2HzV99i7sKF+MfyF7Hyn6sQTxp++HBlT8mgIsdpH7jvPgwZPFg0vxnm8jg5l+ff9hVDmS3D+U4Yfy1lbsG6de9RGTG48ZfXk1qmyyiyGRnGSUlJ2Lf/AL7YtEkqPmrkCG/FGM0pTW5eHg4ePKSHKOw/eJimlDwiZGM9RBdcl9ScRyD+OOf3+OC9NRh+1VAy9opxz333C1EMsNHIeZ0+c4amx16lXO/LeogKVqAJwRhy54hmTRqjHWkZzstBxmdigl1UPZ8X5OeXKr9vn0txSXdlyBvg6oj8QTCaCBOjefD5xo14/a0VtOQvFK3WqlUriU9MiEfzJk3JpyGf2rpvv4DyyAWWd64olzAjRwyXxv3P5xtpLo3Fr2+6SUUSbDTCJv/iOplPP6Hpim/4tWzJN/x8uIJWRtwhs+68GydIXXPXsNqedfsdEn75gP4qIUF1XPBGk1CK5mPzpk1parRj6fNL0JYa7fMNX+D/5i0EmWwSP3bUKBJMw3PPPa/sLnUpXB4N23buwtGjaXRmIHh5wUAGL01rT+K9Dz5E2omTtKLT5H7Nv957n+y3I5RCoxWHIuucB2dLu61cvRpffr1F6sZ1KCF7YzvZOsdPnJA8BRxHkcGJq8mKdcK1ZC/SDLls+asUEoNHH3lYbA8Glzd79v1iP67812pZ7RnlOak8Wm7j+HFzefrxHBCaMHqm7dq0FgOXR05b8rdowUz2YcaMGWKg8RyaTDZJUzKyDHBXPPzQHKR2TMH3e/aiT7/LRXX37jcAe/b+gPZt25C2mO3tMj6W1X0q3md7JCcn4tlnnqRlZTzN3cvJsPtewq++ehhGXj2cOtOB62/4Ffr0H4ThI0ejc7efYfSYcWKIe0FyysgOUbC5D2kVgVVr1mLGzDvQb8AgtG7bASmpXXEbLWctMRYy1Cfh8v5s8AOjrhmBsWPHIIsWAxPIlrh80JUYdvUodOnWE2PGTZC75F6UIbRR/sxbuJ0tOECaunXr1hg2dIjfZWNGXyPlZWRkYvxEKm/wUFzF5XXvgbHjqTzz4iK0uOUiNGH0HJkAHdq1Q2syZi8f0K9UQa1bNqPV1GUSf+PkybCZbANGA1pJfPTBOvz27julY9PJeIsng3bmrbfg4w/fp/x9U1LdOnUknwYN6ushPnC7cV6tWrREAs3HBgZf3h+/v/d3aNywEe64627pIF7JLF/2dyxf+nexs/je0W4iLBNj2rSpZFwqrcdo0bwZrTaai/HoHSUmMJeMUBut2h6hkd2716WKZHpr9Lq0B/75zlt4imwmAxzz/F+ewssvvYiONGCOHkvD3h9+kPym0mqod2/9XhUFNCON2apVC7JLeFXoGxAMVY4m9mRqh/ZoQ3UdPfJqVTJXTK+cKu9pvLxsKVJS2uNo2lEhCRP5pmnTvOVxfkZ5CbKwqByqvKeXL5bKk49zUgIGB69Mip3F1Dl2rzotBcnQl6sPqpqsjs0xXH1fkcHLLi52wk2qOZ7mevOT93KhBNJP/MFLWZbFZrWZDGhVx8B6cCg/NmENlRBPxqcpWtW/7DqpyYUlV23GZ3xFqGs5vNjpDFpeVVEFwighKrKiqDCMmgQIaK6gOUo1GMWKoUyusg0jItAfbtHKXhsKIWQoD6Uu4wA6CUUKhiKS/wAqC3qWVULZhDEqrQ4VhpGhXGPkoQvuF1cT8BbIqp5N4eBlhwoPBbM8ZV1XVoebL/ZWk1xl61JZlFmnclDlKSmKiwvVOJ9EcTEgSpgoKoUoYaKoFKKEiaJSiBImikohSpgoKoUoYaKoFKKEiaJSiBImikqhdhLGfO+a/ca5HH1Pg81R4QeqZ6nK+T/JLoUaEObifDTAEnvcysne3vP55KYK8D5YNYFP2VliIbvDY2p2zNd6whjCeZudxXWVIGfnd8h9/z3k7d2LWAoK1jcMvj5IsOB8xvGRt8bKhjFTYg+dJLZsCdtVQ9F86FDEJCdTvSv+xLqqqMWEYc3Bo4/FY6ePRLcbjv/8B1ufeAL1ixyIIy0TbIwajcJH7gxzh9REnHFuSGCkZb+btEpRXByaTJyINnfdyTu8vXHmPM8HLq4pyaPBfeI4Nk+dhma5OYgLEF1pGYNoxrl4awy82VsrY5ox1+l0fDxSH3sM9a++miJMFWWxzlO9Q9es1oBbjx0fPMj6cR8SHEWlyMJQIb6WrmmyMDQ//cLwr6f5rL7DgeztO2ggBBjDzKrzhItAwxjiUUe43Ehbvx5Z8+ahnlN9ncFhtULr0gXFdrukNDgiV/mdXKA43qTFXUQncVT/2MOHYcsh7SgpyO69dgLaPfQQv5Kph5xf1E7CsERG45tBDX5s/fvInDfXS5gzjRqh12v/QBy/RySvyIYxih3Y/cBsWL78EvEkC2vAmiZM7ZySgpFFwExSSl9B7YqV+Z9Hsn5UGej+C+KoZkHDeUuo2hbKX8fjmYdCCeQRQc4/LgIbpjR8baua24D3jD3+UTWM8pfJsp+YEnllqaH6XiRGLxmFNTQCazsuAsLw0CMxL6jGqD24KKekKM4dUcJEUSnUXsLoNgsffIZhDFy0/MyxWnHGZheXZ7dRK/CUFZ2zKoKL7NGAB0WZmcg/eAix+ifL3DYbGl/aEzF2u5c0RoOEHYWKHfj+93wfZjPi9fqr+zBz+GtEcn6+UTs1TKghEGNBQpMmaDKgPxoOGiiuCX/e3kQWBvui+iY4aidhgvU2k4gfLPL0w5/qMlx0OqoUIoowhuIwK5BQyqQUhBPq23dlXcNxgbN0sFk79EwuOShvLUTk2DAuN9K/+hJFu9UnzvnWeX7deuj5i4k0f6vPs3pBtsruV19DUrF6XuSKtaBpjx6o27+/aBSmTMzJdOz94H0klKgPNjpJ27Qc9r9Ibt+e0hC7TOUx1/iWvCMpEd0mUnnGF0Hp2iNr18J9OgsWvRkT+/ZB0z59yGdoLQ6vJg0WtWGCIBR93S4Uf/EF3EuXQnvhBTjpePztFdTTquH84Pbg9PKX4KF0nqUvwLH0RcRS5/N+GIY8/T9xEtkvvazSkCtY9iLc/OlY3rbJMJXH8SUvLkXm628AhYUqnuF2omjVSpS8oNK4/075bNlKEWaChBIoMhF+hAk2GPU29+5PCdyowvHB+iVIXv4KVfnL2z4i1/B/2dikMvVl47tYHhhyvF9+ETXrl4vwkYYb2a+hTad6x3s7Vvd4O1/vJwMB2fjFBfuQTnkbpeQaSePbqGTOxvCqzxWRKye/SEb4EIYbOaCh5bRU7/tQ5leUKtBpUmQZ+fuB0gX7wT2joNCmYO168Bn++rK8jg8SLztGAjtJOtQcqPaV+GuXwIv84SWokRU5DmEvfxKVyaHOOYS1ETsKD1LHSEWYE4Yanj87z4ZmXj4a0iqBlnUSw91dp9gJ5OYA2dm6Yz+5nFwk0CrHYINF88DuLJFwb5qiQu9Kg2Elg7hOYb5Kc1blEVheQgnlkU/xOVQWO6qTncrhOKVhLIhzFCEml9I4HMQXCuNglUWtQJguq/WGpmVx+vr1OEmu8MgRJBYUoJ5T/WSgh7hQSEvJPKsNThndxjCOQSwRpHFREeL1FY+bNAOnzbHHg0M4ZR3KJ4kIYKO0DBelybbb4Yi1UnpapVJ4MsVzeUYDFcXFItdmRzG/REbga3kjtp2IZ4y8bJsNucl1UL9jClInTULSlVeqZb9RvaogDJbVYUoY6kRaGmd+9DEO/+kJNHQUl6EKjepXoEdY41TYaPFBn1hCIHisi4rKiE9E76efQmKfvtSzoXOoMKL3YUKBqlXiQuabr6MeTTtlV5KJUsHhew5kYZRdvi/WsHH4GEdFNXAW48CKFcSe4L/mEokIH8LwiGEbgacc3tFf4kThwUPe94f4b4klBvmk3vOtYepolPP0aCjtOI8H8enpohmUXAGOZT43Dl8whM2U5PzyK6StXYtE+W0lDXF8t3bDBtj0l7TYxoi95BJYhg7V2zhQq5jFqNk4Y8t2LNlMjs8/h2XPHhmJXHOtTjIa9u1LtlEcpeIHDJw2BkU0RSVefTWas43DD0ErgqgNo4OqULhyJb576inUpdWMqHYyKK0Uzg3PVWRDs96ECWj5wO/VNeEIWjGlLZyPkn+tpUqTDDQFuokkbnl+RXThIPZpFjLW49Bg5ix0mvIrWqJVsLOjNowPPPXYqBHsNEptpGVYs/CSVvGZjtTYHjYcuWFI/Yeni4NHvx/DZGHEEkXsbo3koumJtCb7bSSjrKxkhXbhx2tlEDaE8UeQRhTesDoPc0jVuZ6GDGURoqy48ESYEIbm9AYNUNS1K3K7seuGws6dyYA05nbugAggi4CbVNWX9UdxQgIKu3QmmbqbXFeRVWvUmJKH6ZgNgfC5D+OiFZKLmtioTnExto4ahYYOhygWB5Gn7i+uQ+vZs6nWYUoeWj4fmTsf7jWr5LQkxoLYLqno9Ne/A/F2CfOCZeD3ockYlv05FZEpasOYwALzDn5uWHZ2u9zNNWahMKVIEPiPP77L7CeX11EYy0zRFSJLmKBmCcNtaW7PQD9rF7PzA68udG+4oYx6CRUC5WInz5nIRRhqljDceubBZPJrhUVwZWXBlZEpzk1+Xk34oJalYYkQ9bIQw60lLrhPn/bK5XWZWfDwQ1X9WVak4ILZMFyot52pCtnr38P25/8mD/wYVmrIxLPZ+p1eTW581b0uEmyYeWTDrJZTpoKLph1HnbooEePW19RFtARvPvUmdJ40iQwRsmUqItLFbsOYmZpY5EB9GomNdFf3zFnvYwGV0pw6XGHqdaouN66NSFT37BmSKUuXTR1Z1rgI1DDVSphyu9SUINSACq7wOHWYapUQiAn8sKF3PjUdDU0ZQaJVnTDlkcDc/wEJzKdOmnLyaTWRZ4uXPS78kFFWGAI6lsvGCwhv3XyV1GhC4jMXEYcfTOaQbDk2u9exjC6ZioK2WtiiyjYMX165ZSEXx86fq4WHDiFjz17EydyswULG4umFC5DkctK5JSLvwwjhmzVH8vTpcPOjAwHX3QM3kaVul65o0LEDiRc5Dx+rrGH8yMJPllkQ3h7pdkHjJ8/ijDDDEWH0p9AGEtu3Q/trrkHr0WPQeswYtCR/sTzFVVUMU4oEwL85ZYdv/XpoMXKkkkvcaJGv3ahRRJaUipMlTFBlwnjVExHDlXESjnfeRv5zS1CwZAkKyfFRnB5W8JfncOavz8P9303+pOGG4zufVj7SaCG/es/Hh7C9D+NFaQOWt3uKPCyX7jQ+l+nIv/kv0IK1Uqi6huFG4unjvffw7bSbsffZZ3H4jTdx+M23dLeCHJ+/oY5vvYkDK95Czo4d3EJ6Lv6Q2T9IVPg3J6P8WnqHQVC1WZp0wRA4eGqqbapMGL5j6di/DwdIczTOOo16zhIkkbZJpPk8gVyiq0T8gc7uoanKRJgSsmHS167FmdWrkb16DXLWrfPO05xKmjFoA4cvLFRr69kc5K5Tcpldxr/WInffPmk/A2p6J1dm76tI9SqLDzXVNFUnjNuDHz78EAl5ufJCemi1ahLJSGIE0TXO7dtweMFCpM+dh5Pkji9aKIRj1FRjVA98tY0luTzpJ3Fi4SKR64TJ/bRgPjI2b1Y2nR/8pS3dmnr8BZqfq04YjSz+vDzJiEcIuyJaImcmxCM9MQEnyaUn8DHJ69ITE5FtY6uehCe5mWRWsmfsbieRpAQJpKFYuzABjXaJLNIYiAFZKvKII95NmlYcaVhDPtEuuoA80OS9pwKggBwfycXoRxVeCCulUV+KqHrXnQtoWc21rkJ3OIuxdd582Ne/T1ONuq3v6dMHnR5+FLCbl5Im8GliPJBUh/xMGjcc767C908+hXolvIxWSfiXPYz9spGyrD46dy7cq1eRwe7rUI9eX50aggJrHOrOnIWUqVPIKKZ2IlKdpan4CGlWMov9EzNo5Fi0GFhJo8fxdE75c5K4CRPRbs6DyrAmcNj5bB2Sqvqzd9lsQONGQJOmQFN2TfxdE3LJOlkEFrhJE3kofQk5Jzl348a0wuDxGRkw+pePBlnY7yYy8EYplsvrqA1cdERSomoDbgZKzL/dlEykS6JFRBIfdcc2X0KJW6ZofsHOWF05aKUV26aNrLiM8s8nWRjnRa/RRKIagj/MIw0SxJlFo/OkESPQ/50V6L5yJS4h1+WtFci3GRoq/OGTxufjG3exKR2QSqvCbiQTy2a4vm+/g5QJ11Fn611gag7dxBcYPqOjhJDsLBacatgIrUeo30ryu7yCK61zQbUThm0O/8rrMIaADt+pLpyVtBLZOjzqNNI2IOd7NBCZ4IHjZEIkkCZhbWI4lo9lZTtOn1oYTppWTtvtyIqPRxYfyZ0hP/+QlnHO/hNJyTjauQuGLFmiNHgpnBc9IPA9GuC/59I/QWwY58BB6Lp4MTUK2SkGvPkbxQWOigA4HPh22DA04pfaCfyaSR3e3vBgZGxvYCn5OZLWtTO6Llvu1xayJVPawyQHLx7ST8Hz0yGKM8I5kdH5amDJizdJSbCmpsquxGp5BbcSOC+lKUoEIKCPw7TLqw3CB+UNAooJXBYTuWJbtIB14GDEDRqkO/YPVE7CB8NKfuulPZWW0skStL3PE3yEqbEe5ILOsbAaq2PV4W3YIHVWQZUcq2XIXpPNcl40zDmBb2DxfQiTo/lSj6zZUVRtIC0SxzMJT9X8fRq+ZeB1dM7P0iJMsLAhjGP3bhxbtgzpLywVl/HSS+qjQBEMmXUys0iW5STTC37uOMmavX07kSayZAwPwpAmce/fh7Q3XkfWa68hk90bb8hrs5EMviPrOX2aZHkdmf94VWTLeo385NL+QcfvvhPZIwlho2H4k2HxJXyTqgRJ8nhAPRowwL5wblpVN581wTMRn/FraixLEmnLRHFKPn48EMs32aOEqQKkvQMbMDIa1EsV3cNfafAhmAwUpq+U+G+wFOGIMCGMerfa0aUL8rp2k3ePCzt30d+tVk3J/eDtlLCFr9uZMKxlihPiRRbjnXHluqKoS1doDX3vVivZwp82VX8vKciNu+KBg9At8MZdeeBrg7xb3aBY3biLnD29vveSQr5bzSLyYxO/d6u9EewJW4RP7fhpK9+5jCeSceOSn9+tjnTI4414q5LJcAl8DHy3ml14k4URPjUUxcJ/zC4IQgSXBk8I1QdvseaqlVcXsVHIBRjvAvH4wiMF4UMYmoI8uXnw5OSSy4NGfv6ooIw+TT70pZqXB2KFUL5onF9Fu8xbrKEMGCHqYmxeZ77E0WqIZVFy5ULTj55c8vPP80TYm4/hYcNQFXL//SF2LVtOeagNVFb+tNfJ47Tc5nsxFhSRDVNPt2G4Q0L01YWF+eEjycT1dNmssveFX9RT9FQ1549EN/3lDUi9dgKxKvynIgNhU9P4vDwkpR1F/aNp4pKOH5N7M6xduJ15i5CtxAUUFiGG30kuLNAd+4O5suLOlytCLJGGwZqRG9fmLEHi8eMk0xFyLB8djxxBnbQ0xPIn5qMa5tw0jPPdd7GbrqnHz1hMYLXO0xG/3+Ns3AiOdm3lXFjkhTqXtDKFcZARb06r4nhyUzsI5A9BLvAlY0iUHuDdbkCQfPmcy/O/28K74eKICIlZWXLOepBXQMHAr88m38ZbNKeSOlXbKyMBYUOYglUrsfPpp1HHabwp4JGN4Xw3lPeyMrQgJOC/vglKnSnoaQ0C0R9fWo/ss1X/OMp8XSD0OI4WbcAeRQTjeklBHqMpOYzBZ/yhZw8toT1eZU6hJEdBrA2NZt6K1Cm8pzdKmErfh3Hs2oWsTZvESGTEkA3j2LoFhXv3wO6uvNpmsdRyNRh8HV9pCHm509WpAc7RPL9zo/KrvpYePdCg16WypdJ8rdsSh6QB/VG/Vy+abyNn73L43Ljj7Q3y6qxeHSJM/oED2PvgA0jIyBB7hp8txWrKCGbwfRq3aYujghr5sZSXaUxTX/G05ptCOC9x+jmrCKYqp1Pag9NQX5qah2sneZBj8F/RgEauRAgXZcgfcuabdp7UVPSaPw9o1oQSc0l8hZ6W82AS6Xd6VYkqRTgjfAgTCK4VrZA0MoYPvPIKjn/9DZJOHEfDvBxqVOoMUuvZ9gRkN26sv7Rv0Eh1YvOTJ5Hs4l+VpU6kzspPTkZm/QYyPTDqFRSibvYZJJQ4RRM5acSfbtgQ+QlJ1NnqQ8wNcnLQII8NU+ZCDAqsNpxt3ARF8k4VfyzIgyZZGUh0OoV8jMx69ZHdoiU6DbkSHX91A+QXaGt4G+X5RPgSxgBrHdY+RQ5kPfs0clavkVHooo4/1qIVhr32Ki2xAsqh9JtHjkTzIlopUeqiWCtSr58M26xZ1HnU2Szxrp349t7foZGjiE7UN1w6P/oo4qmjpYOJSJnPLkEuLZGpkUSzZDZqhEEvvwI0bMAMIkGLcfCOWXDv269e/yDETZ+OtrfcqvKort9JCiOEJ/XNFGaVzd9WsdtREGenANUD/IpbMT+LIS0jO/DNzh6PEhnVKi33bQmnjed4Ihffmqc8WfMYaXgVVmyjOLl1T0fKo5DfKdLrwlNGCWsyfnzBZfCLeAmUB9VPkvAfch4mCefBdVZZ1yqEJ2GCQvWc3n8Csz8QakHFPVZer/nivYswbxhpjQp2ekVKqg0IT8KEbHn/DlScKIs2lYMsYioJo/RzuTYSET6E4ZYvp+/9+8RYBVXgwnOCf2lB+UAsMTcgk0acfs44HzW7kAjzKYma22hxMjpLLLHyY5/51jgU0opFVke8PA3sTjotonT8wnsBHdkWkR/2NCcj28Obhhz72ZBW+RHo4KT8uTyO5zKL2WA24hnk52dChXo5nI5tGnMxZn9tQPivkgzwcyXjFZQYmpo04jobltRJxr0ML1gkfmPSuOHHvUYdCv5IgNHh/FyKX/fgfBmchY2MVXlISOA8WB5+PcQAE5TzMJbJnD/Hy8eRVBD4fXBOU0sR5hrGBB79/CMPyUmQz4Twkc8DySKgtLSS0TiNpOe0RAazdmCi8T0SPY2WSEcmFSdhx+Vxx3OckQ8PAPM9FS6bV1ycv5GmFpOFETmE0WEM5IrARI9zQ2UKu0gQcYSpECrDFJ6SnE7E8GYmw/EWBRNZgmXH0aGeRNdmRBxhqqw1vFD2jevsWXw1fz62Pf4YdpDb/tjjOLNlK7GByFBGYRwV+uFm7UXt1DAVghI9piAf7o0bYP/4M9g/+gS2Tz5B7LFjRBjdYI7CDxctYYzFIT+btrr512z5U7DqV20t/Pzq4pttKoSLljD+04nu996uvfimmoriIp6SAsAapRofM9RWRAkTFFHihMLFS5hATkRnoQrh4iVMCIJEZ6WyUQ2EKZ1FPL985iyWXXLyTCeMXYyzxPTbkia7N4qgqPrDx+ISbJk/D/Hr13v3x/JTZHn6a1qJGL5ghV3IOBstoRNLfKThrZjNH3kEdcaOpbEQ8IQ7imogTIkLu//2N7jfeB3JxU5qZF8Lc9aRdDeUG8IRZ0XbpUtRp1cPFRhdF/ih6q1BBEkdNRr5iUlwmZ/kEoQsEUAYY8zwXpbMNq2R3LYtnbEsUbIEouoahuFyIe/Tz7Dj2WeQdOYM7C75tUMdxhs3CoGFXeg4w2bhV0gs/B7R7DmI69wJ8rGfKEqhyoThi2VlwYZubi4KP/kUWQcPyktggghYdriojq0u6Qnr0KvUF7ZN02oU/qgeDUPw8SP8CRISEWRvXShUG2EiH/x0WrdZuEWi3AmK6rPqIph2quqmpoiSJSSqjzAR3MhRflQc0XVjFJVClDBRVALA/wO+zzqXjXSVOwAAAABJRU5ErkJggg==;" parent="1" vertex="1">
          <mxGeometry x="210" y="-1501.75" width="97.34" height="95.25" as="geometry" />
        </mxCell>
        <mxCell id="mECkBH8HhTOBhk_B8JF5-30" value="" style="shape=image;verticalLabelPosition=bottom;labelBackgroundColor=default;verticalAlign=top;aspect=fixed;imageAspect=0;image=data:image/png,iVBORw0KGgoAAAANSUhEUgAAAGIAAACJCAYAAADXJu1PAAAAAXNSR0IArs4c6QAAAARnQU1BAACxjwv8YQUAAAAJcEhZcwAAEnQAABJ0Ad5mH3gAADL/SURBVHhe7V0HfFzF0f9fP+nUey+23CvuvWGDMSFgQkIJmBpaICRAwhcI3VQDCQSThF5DdcEYMGAwGMfGFXfJ3bJk9a7T6fr7Zvbdk96d7tSNMT/++q1e2zI7szM7W947jUTAzzjp0PqOP+Mk42dB/EjwsyB+JPhZED8S/HQE0VOXozPpOc4Jcm1OOUGE5IPGd1TQVaYFpldDyYfjtBevBzg5gugqk1ToNB86ybROkaHk0wO6O8LJEUQIJnWmjr3JB86rLRknkNvt4EdlmvyY0g4veoNNwYXQAUI0oN7ASRtZc7EajX+tmBA3BSc8dJTgotAsOeGQ3HC4XSK4JC+8FOwueqqhFIJ6pQpKfhoYtFoY9QbR0sIMJug0WjoaEQYD/Wl9QQMjHYO1xmD0nUj8MILgEgLq5KHggpcY7iXGswAk2OnOEUcpdhbtx8HKIhyoKEaz3gO7jhivpXhaEggdvSQAh8YNjy9PZpi6GhLdN3l0MNCJwauDUSKheLUwU7DQ/ThDFAakZaNvXBpGpg1EoiYGekqnZwH6BMThhxPDDyUIgocYzS2cGe6kcNxRg22l+7Cz/AgKUY0SVx3Km+vhFoyWmSnxnzgS6MgK4Dv13WwfnJYjK1FJXJQHMVjckKClcw6RujCkGqORaYxFnikVo9L7YXhcX1hIHLKAQGe6lvJPhIROqCC8VFk2NSyEYmctdlUX47umAmwp3Y8SWw21cC88WkkEhfnMNT7QLcE0Ld8Q11rEmCwwerSINob7WMQxveI5n/uSy/nQmdVlh43Ezke7xM1AfiYfZSFzIqZTCIWy0pPW6CiCRTJgaFIfTIwdhNNicjA4Op3Mml5ojU4kE4XI4AxVlx0hWPRuCUJJEKpsfs4mp8LbjG3243iv4AvsKD2EZoMXDr0XLjI1bFZEeorMR5NXjyiPAdFuAyIdBgxOy0W/5EzkxKci3ZiAeEMMt0lOIWy6fCb/lxFYPdYnWUwcuDEcaj6GY7VlOFxVgkOVxTjeXI0GgwcNeicaKQiRspmjP85JR0I3EaEmN2mNW4/5o0/HvITxyDFEIJJ6F46jLlFBICWdQa9qBGfUSFU+6K3F69+vxK7GQpQ469BIlWXmU7sXFBqoglF2A+JdJrLR/TA6YwDywjKppYch0hyGCJhFJ2qg/Jj5ejrnVqigOxXlNGwWWSCKI+Cgs3p3MxqddpTba7G9ah+2FBXgsK0SjWEe2IweWTgE1hKzW4s4jxl9wpNx3vCZmB41GMkwif5EjfboC/WsVwTBxDZSpXY0HcNHhzfgq+LtqDSRt0MdLYPV3uLUIpEqMYTUfUhULoak5CIvIhWxxPRwYjO3L4XAYMQymYoX015FO4S6tpSJkhcLqJlCE50dd9dgX3UR9tYdoT7sEA5aK9BgpsZE2szNSUd2NNKhw+DwNJydOwFnZowhgZhJJLL/pRQRjMZQtPdIEJzQTqQdc9fj/cK1eH//WlSFOeHUeMld1MBMzI/3hiMnPBFz+o/D9KQRSCG2R1EbV7fwkwVRdaIzFMMcVLc60p29zhKs2LMWu+uOochVA6tPw7lhWBxa9HVF49bxF2NsXB/EkDi49/JjuOrC774K3RYEa4GViPymKh8Pb34bxaYmOIkCoo/sKsj06HH24Mn4bcZsZBos5IGwgWklIhRBAu0+7PBx9xAiU2FOiXLWhDKvHZttR/HKzpXIbyDX2kgmjrSEORjjNGBO9BDcNW4B4ki/TXJyAWaxcLHpXF2E+rpbgmAbSz4PXtrzKd4sW4danQPk1MDo0iBdE4ULBkzDL5JHI0MfK0wO2/nAOvoR5bsIJPREoLtlMJvYy+K6W8kD21x9BO8UrcX6inw0mcg1oWcG6tiH6FJw7+TLMUKfKkxVm7JCENBlQXgperXGiecOfILXCr8mT8hDmWioEzPhnLjRuGrEXKRro4UA2NVjcBFBR6kKUQoFdB5Ip+pRcHQYoffBRXJn30R6sr4mH8/v+xQ7bcWwU5+oI/c31RGOJ6ddh/Hh2S39RkfosiDYbr56ZC0WHVyGRrMXRnLt+nvi8eDpV2OoJo1MkKwBPxyYfAqskr5i+c4PQQGX46DOvYF48vSOD7CsfDOqzU4xmu/vjcXLM/6CTC27Ih2jc+LygQs+Tr7FOwe+hNXkIiEAY02ZeGbazRhNQoii7EIJgdOeGHB5rUJg9IYQOqZXHmuYqcaJ5MD+ecQFuHXIfMRb9XBpPThCLvwLO1fQgJKHtB2jS4JgfFXxPYqpDTAZsTQOuHv0AvQ3xnaogr3BnB8SXaGX48aQMC5In4grB88Vo3MndeJbrEdIY0JDLewua0RxXQWc7LpRv5AenYg8E7eHU43NvQFVnX0cZbd8YuJg4R9yx97oYee+c7agS4LgojNiEmH06ISXUFhTjkJHlfAkWsHnquvO0XFqwyeTZuovCpoL4dK4qaGSlhjD22WwSpRdEwSjXxJ5AjTUZ1iNHjyb/xENetwqYXD2chHijrq0UwI8bgjWevh+aJADj82Nx/DCtk/EPBrPJiQaIlo8x47QZUFkIknM6zNc5K59XrkTC3e9S514oyBGTW77JLRfsZMHrltbyiW6z+JpFZFMvzw14sW3dUfw4LbXUWzk/pNyIR4lelonKjtClwVhpiSJlhiiVZ5B5Ymx5RWbccXqJ7C5uYRG2/6GKjS6XPRJBbNTCQwWDC9s8Wh7ccWX+ON3z2GfVEUeE8Ug3mhpVJAdm9QiCJ7R5WYaijfdEkRCeBTlLCflvoIHdfv1tbhx3T9w2+YXsV4qFuaqsx3VqQYeS5XAidcq1+PKtU/guZ0rUR3mgJMXURjEGzZNaZGxLWMInlvg1RVFkIHo8oCOO6S7dv8Xb9ZshI4KSzBHwdbQhGbSDBf1UDxVnOAyYlzSAExPG4ExyQORQsM8HtbwZNipCGYQj6Trqe777SXYULwHa4q/x35nBY2nPGQZJIS5dIgyhaPBYYOdGma0XY83pvwJo8Oz/PsJziyINLosCLaJj+9biafLPxf+8pSMITgjcTTe3fopDnuq0GSgjpuUhefvw506pDjCMLvvaEwloWRYEpCgjxArXaxZP4YZ2DYgutn15OVcdj4bJLtYwj1sL8NHe9die0Mh6sLcYvaVOcozC/FuMybFD8TwkafhqdWvo56ex9n0WDX3QepTI0NqgRrdmvR75fh63LP/HdFHjDSl442Jt8HhdeOzhl14YeMyVGqaYNdLNN6gyGQv2ZUzk8vLBGd6ozBn4DhMTB+GNEM8jBRFXn6U56Y4Ce+raM9mMslB5666CDadbEA9VK58lCf1eDS8p/EwVhdswbaK/Sgz2dGgd5D9lxszy8Do1sPi0mB8cj/cOuxi5BgisbJ8O+7a9SaajG7kaeKxcuo9NNDrXHPrliBW1O7GbZtegtXsQqrTgtVzHkY0sY4H8xXuRjEz+XHZJmyq2IcmjYsqQBUWi9DsTVCgJqenkETEp5tikaaNRWZYPPIS0pEdl4IUEpBFw2t0csWVY2totbbBiOcnzGT+Y/B/JXA75iMzvVpqwNHaUhQ3VOEwHY95qlHsqEGpo1bMsPJuEXYQeX1bS52hgQO1vkxzHM7OmYSpsQMxODJNzCpwQ3ru0Go8XLSC8pcwOaovXhp1M/HlBApinaMQN6z+B8ojnIi1G/DpnPuRo41uYQC3KnZlSz11WHNkOzbXHsRuWzEqXA1+uzSYJWLRngL3NywkZrKejrHGCMSZIpEalYDkiBhEaE1I1CSILTImrR6RZI9ZQMGJJ22UPGiw2wTjazX1sGocqGxqQKO7GaXE+HJrDZq8ZICIDg9prZe8HaaNmc5pFGFz6w+TDOhjSsLwsCxMzRqKCYkDyby27o1iGlijHilYgWcrVot+8lcZ4/Fg/4sQcSIFsR8NuPTDB1AUY0eEQ48Xx9+IidF5ZGaYNa3g/oSX5FkobHMPO8qw5uBmrD2yAzV6O2qMTti0LmHiWoigc5aRcEAo8O4N7m+EkOhcPONoHVDNj4XX5luQ8foaAAexa0Q880X0QavRUYsHosjsJLjM6BeRitMHjMWE5GFiswAz3kSJ1Mu6DM6C3fY7d72F9+q2IMyhw80D5uGGzNOFk9IZdEsQJcTaKz95CNstNbBQR3BP3gW4OHey/8Qf56qmlsCaYqfQTD5IjduGOkcTKpz1KKg9InZVHK4uEfd5rdtOauEQ/YzMwJ6Aq8h9CmfD2mZ068TOjDBquSaiPy06DgOTszEgIQvZYemIIW2LN8s7NdipMAnDExpc1Wqq3c0bF2O184DwmB4YdCnmZ5xGmnMCBcGF3rnpRSxv3k1umxbXp5yOm4f+gpxULtSXHeu8j/ogMmkB75NgjWEB8dx+LZpQaatHvdOKWpsVNdYGEpwT9a5G4SZWWutEOs6zluK5vGxIWsHlxIRHwKg1iDhGMmOx4ZEw03WUNhyRxnBEmy2ItUQhOTIO8WTFuQExw2Vz07a1t13k9Ac/LSbqL1/9MHYbqxHTrMfiMTdgenx/oT2dQbcEwTs2/rHvIywu+1LMO50fOQoPjLuUWpCybM5oJaD9ajAj/U2ajNb7fMY2mH15NnGcHwce2cr7RFrB5aj3szJFsi3nrTm+Lt6PoFDly5CjdhyngIzTJSvvwfEoJxKadHhr2h0YZkkVnmBnEDr3dsCqmhmdIM7Z3tbolOUPIlhwyb/w9kkJRULrfT5j5rLGxVLV4ijEU0imu2kBIZUCP+M4HHhqmls6T0230OFHUPsskKN2zKbjUiWcZEoZWur0EkwWdYkdouMSgoDVN8ecRi6ozPMysvPcMYuJMfbvO1++ClwJbnlKoDs+ZRWyFWet4GsuhkuVHQJ5BzkjZPGBmQSgg8ftorCmTExxcNlGajAxNHDtCnO7JQguLMIYBovHKHztSmeDMBF8PyQTOgSnZHKUQHd8g7Zg+fI1M77EbcWX5XuxrHArvqs9TGaTDVYwlpJwAzNR0BJdbgCdhXqccqiySKzK8ThjUFouaWCowoKjW4Jg8LsG4R62vBrUupoEU3rSojoPmVks+F2eKlyxZhH+uP1F3Lv/bVy/4Vn8ccsL4KWqtixtp6o+nvHIoStQunXe/3ekgrprEoTeo0VeYmaXGdtlQSjmwqI3IZw6avbnefR5xHncV31+fiJFwpu9vKj02nH/upewT18j5n7qzW5URrjwdW0Bnt22hLrOgG78BJHEzY/npHgGgWvP5jo3Lq1FSJ1FlwWhmAuLxoRINzlnVDDXcV9FYYuNPtFgFh9wV+FQcyUcPNojiAZCpDUbJDJV20lQNnG/DXqLRF8+fLB6XbB5eJuARKZJh76G9C6KoQemiV/cyI1LEZRwP3GgvJisM4NJ6CoZXQN3iZUe3pXqpTNVWUwLdZjlRjs+qdiCfe5aNCh9xgkiSRaEB01CEGSyedyisYgG2hV02zSxfz40PY8ykIc7+ccPB7XMPYdi7lrBRPfTZwQdtXLMBoMbj+Uvw4LVj+LpXctwnIxHA1EnXlXxCYTj+efaRYh82EiSICQXrC4elmpgMZClIGH4DEen0Q3TJFdBuLDxKYIedmEbdA7YWCd6VLtgYBKVWsmCZuFnk3s4KWGQmOvSe3nSkNxG8lgsLp2YdPNovThmtuH5ynU4e/U9uH/b29jYcIQE4iFXl3VEdjVb0R3CZfaVS3VwauQ+yaIjb1Lb2ZXqVnRZEApjeICUFZHKyw1CEE16j2wn6bwbg/WQkMWuQCaX/0do9Lh7zKW4Jm0mhulSkIMYTArvgzv6nY/zY8ciwxslpq15+r3S0IwP6jbj2u+exU1b/43PKvcQ85rF1IqnhVbS7G7QzSI90kyOCgmemW8iukwaFkTXRNGtKQ4FpaQBs9fchRptM+JcRrw5+c84LYz6jR8I3Abt9J+9Fj5nLeV5IzaRVgqv7P4IK4s3o8jUTIyiISdpM0/4mV0aJNE4/Yrxv8TpkcOQoQsXfj8xgzS+awzksv968G0sObZRLIYNNiTjmbE3YoA+hgZ2nR9b90gQ5VTlC9c/ItZumQlvjb4dUyKzfE9PLth682pEqacJm+oP4I2tn+AgqtFk5DVmdjO1CHNqkaaLxpjEPPxq0AwM1aeCx8PyYKxzLOStNBdueAJbHMfIHPLSqRapnjCckzsBC/LORCr4NTQFofPU3UfwnXcZbGtXl36P4846YQJOTxiKvLCkLrSDEwemgFtknNaMfmGpmNl3HPpHpcFol1BfSzadTAlvBWJt3tdUgm8ObMHehiI0atwIj+DXCvQifSC41Sq14/Mmsgr/3PEhjWNYJzVi7o1fjtxTXYitxXthMluQHpHg044TJAh2DNeV7MYhRyXcpPanRWVhRFSu0I6TD6ZBrjrTw5uEB1tSMSV1BMblDYer3gZnkx1Oj0usfTQY3ShwlmN9yR58vW+TeNHeSEzUGlgkOvqT66SuGQuizN2INw9/IzRN7GAxRMHtcok3aEukRmws2o0mGnzmRGdSJy7e1pYTB6DrglAMGeXHtnhL0X7xjhlrRJ4+ERMSBwk7Hby4kwveOG3WkJOhicJMEsjs7HFIio/D0aNH4XVTt0v9g8PoRZXRgQ1kzj4+8h02HtqJyPhoxJrjqLbsaclLqFw/nug8YqvCksINaKZ0PP29aObtsFVXobKBrAQNLnkjwY66QuwhPk3IOY16JhZrW+50XRCchy8fnvo+Zq/C/+r2wUX+Y6QVmJs7UdjZHx/IvSNGK+RzPxCjNWJEWCbO7TMJg2NyyINyoaauFpKXX8In+0+aUqJrxOfHt+Oz45txsKqE7J0W8eFxoj3yTMLehjJ8WrZN7GXK0yXg6j6zcW76GAyIycaBqkKxRu6iTrzU04ithfkYnzmcym3bVHtkmtgXryE38FPqJ3hJU1frxHzq9KKpmicFagPeBv4P+IqZwQKxaAzoY0nAnORRmJk+AhanHnYaoDU4qbuniNzIuJ4FthJ8UboNq45vRaWmGXaS7QFbBTbU7KH6k2mOyMY5aWPFjpbs8ERMTxuJ8sZqFFkr4SRTVUnCKCg9hNkZoxBGZXLjUPqNHnlNrBF7XKX49ZrHxKRbaoMRL599B0ZpkuUIJwntyqMDyC/Cyx5Xvv0YXlq/Arvcpagw2MVYgTPmHSdGjx4Gt0R9oxd2Mkvsif0meTzuHXAR4qk/YrApqycuPb7rA3xQthGNJjdim41YOPQy/DJ9JJnwVip7pBGcjVZnxOv7vxTE8BTwtLRhyDPGyxFOErosBJXk2H6zh8O7L9JoLDAzdyxOzxiNkbG5sJVUwdZsI1ND4wcyW+JzFmR2eEDLKG+sxfrju7HDWoTacBrBG3lx1oCs5Dxy8Y+h2FYthNgnLgljo/v6eWU90ggGbzb+1bpHke8ppxaiwcLBv8VlqeN9T388CKol6pqHkJ4ShUfhPD2yz16MTcX5+K58Lw42lqLczJoix2FTzaf84RbeC8uBp100Jj2qdDbxPglPydzcfx6uz57tN1fW416V7WxuXKrYCcdrtlXWOr/6nRJoR4X4EU+vmeksiXqUqeYc3EQDtWcn34Jn595BLqvMTP6+CG8tCnfRyJ48yDoy1aWRDhTG2HE0zCqEwHES3WZMiBlAOfmzvhcEAaRHJogdcUxAmYtfhaeLHxmC8lpwWT5tFwFx2OdJJFbyK+28NMqIICHcPn0BLu8/G8OkJKQ0GpHYZER8sx7xTQYkWU0Y6IjBolk3Y1R0ljzWUrXYHpsmG6nr68c24PH9H5DU3ZgfMQKLRl0pdk/8lMGD2Q2Nh3D1hsVooE44q86EN8+9FznkvPMYu9HbjEp7I3lW8nKZRWdAelgc9T3yN58C5d8LGkGjSX2k0AhGla0OvFnslDNPXYSbWHm8vlpsemPE6i3U+OQv1IRRh5yktWBQeDJGRKRjJIUBYUn0nL8nqBKCikk9FgRbyMTwSPGuBKPCWitmRH/q4KZW1kT9oY+rvIudvSDmrbK9kz0wXsNm5vN5oBaob3RDEFxUqyg5g6QwGkv7bjW67aghg/VTB0/vHKsvFwM+5mdeUqbo0AOZHWxavZV7regF06RBvCGCTJOcPfvXhc1l4vynDLbEVVqrWAlkZEYnU8tXsTMYt9tBNwTBEm6VMp9FaM2I1FF7oML5LaHi+gr54U8Y3AVXORuFaeKXbtL0qi8wdCCEVu61oscaweBM+idnw0D9hFPvQXFdZVcbxCkH7gWr3VaxgyXcq0e4wbfvmyvOJ8G43Q66LgguKIDLXGa/ZPKNyafmya9DVUVinuWnCq4ZT4FXuRrFhcVtEIIQ6KIAFHRdEEGlrUH/eNYI+UGT1wGbJPvPSvBDmxunFniy84irFG5Jnj2N8OgRaQyTHwp0fUDba6YpR5MKvW+UaXM7aUAjb+wKIbdTGuwx7S0+BElLYqBGFekywEIjiFZ0na29IgjmK+/lsehk9bR57WiS2Iqe4k0/BHiqnN9GVRpZn/jU1o66m+g1jYjUUKswmMU1a0ST+AT0T1MQrBGHqo6LjpqXX/smZoppi56gVwTBiOBXbg3h4tyhdeOwVAIeWgROZZ0qommPTjuJotJZ3zKY65OQ/uMQBA/qwjU6hEuyC8c7OvLLjpKPTU8CRpY9I/eHQyCdSoPi/00eJ6zkpvMYgrd6DorlnSs9Y2WvaQTPr6dGJ4h9qC6dhob/ZT8p06Q0KP7f5GqGTSd/pYx/8iBK0/6XyjqDXhME+0fZ8SniLVO3ziO+SP/jW5XoIXztyuZykUawE6tBjL7nQmB0Mw+myJ/NnFFmbLIY1LEXW9FUC4fwL059tNSB6iXWGtwO0Q/yx7ES9fy5uJ6jm4JgBW1NqhDaJzydNEI+529bVDj407RBRHGKSUc2SjJcJIpidyl11DyG0CCOBNFmw1g36tcbWtUCXn+K0MojTLEdvpn3ZAfDKSYJFXgTwYGyQtF5846MFG1MrzCx+3moeCnaA13zroT48GjhTfArVDUO/nq2HNGP9dzLnaLg9fgj1aXinKuRzg5KIBsDFKQz6L4gAgpjp4K/Z5ESEScIdNN1jZM1gpkuv8TRil5VxB8Q8ndDimvlaX7WiDSqb2BtutPMepUjvF4bzx9eJHh0Xhz2ki3lC9+HGE8tBDOqWtRKjWgmr5CZzWtCGdG8n8O/mQW00U6hxxxSS5/XbJMMsWKQw55TcWOVmC7uFmUnHSrWqCpZzpsjDPxmEcWg+1nmFIrpX0E1TzqLHguCSVBGnZxZoiVajCV4CbGoodLfKHG07lB5siGqwBpCDkhjrdglLoQQw1vO+K1a/0r5i6Vz6BWboZ7GiLfEiPfUeB6mxFoFq9jS6wNH6w6VPwpQ46L/ZVYaHxk9YmdjckS8qE6gRnQHvSIIGXJzTw2PRaRTzpZHn8/vX4Uq8r79vkpwimkFk8ud9B7U4MuqHWR2+buDGqQb5J/WbIXMg+6glwXB7z/HY1LKYDHC5h0dbxZ+jb/87z/Yai8Vv0vEy0U/aqj4yKf81mip1IzPavbipi/+jh22IuEV8h7X6bFDe7wOoaDHWy5bIMtBLCPuc9fgms8fQ7GZt7BzL6FFgt2MCeE5uG7yfORoEoWHxe8H8KzlibZWXEU2n8qxPbBzwY1FfkdCwv+qduHlLStRYKhBk4F/Twlis/HcpBF4dMQChPwevo8fnUWvCEJdJp/z594OOCrx0I53sLn+EGwG0gKKwO6e2aPFgMgMjDBmYVLmIIxPkN+54x2D/DYBH1lNg71nJkglTnT1cz5qqGllm8+LPDzWkc+B4+5qbORt95X52G4tRIXXJn/gkXpnPQ2OYtxGXNxvJq7LOQNxvm/T9gZ6TyMCwH1CNYnkvUNfY0nJdyh00JVekhdTqETeos7mK8yrw2lp/TA0Ohd5xlSkR8Yi0WQhN7jV/jLjeJFeYaA4skxaLmTwKVdGqZB8lO+Ir6uJP7qif80aF8qcjeRQ1IgXSAqcxdhStl94evzyCb8d5BI77qlxeL3UgPQYE5mDK/LmYEr8QPCcay/a9d4VhJKRwhtuaeL72tTePjm2Ae/sXYOj+gY0GFyQxLcrZLPEmw5YMOKbGnxOI1b+biBvY8xNSEdWbDKSTbHI1KYIQ8BfrGS2MiP4kwv8K5AMLt8leeCU5PG8i6rmoOtmoqIQ5SisKkVRnfyjseWNNeIFE2Y4H/lb3xy4oSg14U/+JLrMGKZPwTWTz8MQU5b4oK545YqjKBUNRHvPQuCEaQRDoYeP/IZ+jbcZx5prsKlyL74+sBVHHVWoM3vEG5m8/qumnr1zFowIJBz+fTeeUmCTFaZnVhD3iOFmPZsHWaCcg8vroiCPfPlTpna3U+TNL6Izw/nIDKcs/cCXXEaEQ4MEpwmjUvpjet9RGByRhRRjNCKp5KD9mT/ZKoR8EBQ/iCDU4Hv80wf8K79FZI/3VRXhSEMpjlmpxdaWiW++smD4/TT+KBYvMsmDQjmwcZHz5P+tpCvl+N9RV43TsUD5G99aGuvIP48cIRmRHZeMVBoT5IaniR0ZA6MzkaCxiNYf2ivy5c0znOooSpEBDasjnFBBdBa8fMRvcfIv5/KLLwfcRThcWYKi2nIcp8Df8HZSr2NzszdPzoCq1TOEZfJdtNyjvzChLcRwPb+XoIVZYxI/QpIRm4SsuBRkR6Ugkzw4/owpfxyUZ4/Z3IUEZ97CW77gEJCihQC/yB3ipAmihV7fkdFCCJ1wQ1PAnxJtltzC9rNno+4HQoH7WQN/65ukxJ/t4U+AhtFR8cYCWdR6zeMcvpLvcBnirOWkfXQyWhucdI0IJJzJCfT1OY56Pke+Dg0lTyUw1F6Xkta/FB/afRgApaBAhLrfDk6cIIIQ0/k6cqtUVN6/hXYWnS+rfXSDp93Cie2sg7TuniI0Y9TC6yF6S4pdQC9R7gNXQCXW3hZCG/jKYoFL6k6FoCKj6+CsfkAhMH7APkIppmc15FzkHOSzpiYbtu/cJe6MGzMaBkOwzS2tqX6s6LoggtSporIKBfsO0Jn8gDUhLNwES3g4EhMTkRAXK+73LkNkU7RrTz7mzD2LKqLBru1bkJAQ7DsgvWi2ThB6rBGceOmy5fj9H25r6VaVDHU6HcJNRtx43e9w6623dCgCJkVtzoKLTWaqElcWxDzxZPf3wQTBuXDofUEE0tsTdJk6pVrBkJ2ZgcXPPIVn//EEHrj3bowaOQJWWzOeevo57Ny1xxcrNAIr5X+llCqT7CewllNVihYi+V4PhRC0wr3riPSqRgwfOgSffbqi5YHXK2HWGWchf/8BLLz3b7j2mivlZ4RGqxUHDhxEWUUF3C43YmKiMWTwYMS3mDEG5079AAkzv6AA5eXllKeX4sRh4IABiKO4u/YW4PQzz6ZoXuzdtpU0Ik6kdDid2P79dmq1wFCiKyLCgu07dqLZbscwvrZYRDxGTU0N9hGNOp0eY8aMgpYYbKMyd+zahUxqXMlJSdhJ/VBpWTlMpOGDBg5ERnqaL3UvgQXRE3gpfLB0mZSUnivNmXuOuBagEz6/ZMGVUmJGH+nlV9+U79Pd8soKqe+AYVIy3U/J7CulZPWl8xyp/5Dh0vGSMl88OX15RbU0fsp08VwOueI4afI0yePxSjt37xX5873KymqRzuV2SwuuulbcmzX7LMnpdIr702bMpvJype937Gylk7Dyk08pbrbUf9BwyeGQ4+7NL5DSsvtKf7jtDum2O+6k51yGXE5On4HS9u17RTyZyp6j1wwnqymbCG7DHHgq4o3/votv122A2ajHtGmTORpBg6SERAwdMhi3/ekWrPp4OT77+EPMmjkL9fVWzL/gN+KbegyHw4Hzf/0bHD16DDk5OVj87D/xLwpnz5uHBx64H1otTwKS4VFZCA9pzJ/+/Fd8sfpLMo2jsOSDd8iTkn/4iScPvYppE/9lkJGhIC9JySUr0GLp8uVYTXmxyX3nrTcwadIkNDsdROevUHz8OMXpJfPkE0i3oLQF1gjRurPypLxBIygMk1Kz+0hJdG/S9DnS19+ukzy+uArIbPlh89bvW1pcZWWVuPft+o1CY0ZPmCLV1NW3lMdH5Zw1gtOwplRW10gPPfakOJ828wzpaGGRL5Ycf8qMOVIS5ccaocZHn6wiWnOFRtj9NKKfuP/12nXiHqOW6Bg+apwo8/0lS313e45e0wiG0WhEdlYGhSwM6NcfiQmxOHToAO57YCEqKvxfgm+y2XDw8BEQU7Bu/SZh68V8EmmW0+UUarVk6VLx7e7TZ81CTHSUX9sLbIe8oPPfd9/H0/9cjOjoaLz91mvCeegMlE43WOfLfcm0qYo2g/KOwnnnnSs06/sduwI0qPvohiDYfZSLDyS7f14ffPbJCnxOYfWqldi4/lvMmD4De/L34657Wj8duH37TkyaOgMzZ5+FuefMx/kXXYg7/nqneOdO9K58oMyPHD4qzhPiY9sVggAlWLToKaKMzIzkRbhFfp+vLafaVpkapP9R/JcREx3jO2tFdna2ONbU1Ipjb6AbguAkMiva1JGg1WpF4DGEJSwMF/3mAhGb7SzHLyHP4/wLL6FBYDWuvmoBvvrsY+zctBErP1wKnZjDZ8j5h/mYyX1FZzCGRtbTpkxCXYMVd/7tXhIs5ddGar69hyriGxsb6X9rRHWSRis/awU/q62WBRAWrn7JvWfokWkKrGPLRLOqZR0vLhF32X3kYwW5q83Ndmrlcbj3b3diyKCBSElJgp1MlYo3ApMnTRR58RRG4DMGmzLWTzZL/MtDz9D45eGF98FiMZNL/SFee+NNEUuBOcwkWn19fYMgXnmyg8xjKNQ3NODo4WMiHcd3kzOw+qs14ln/fv2UGvcYPRIEQ80gXjWrra+nFtmAGjr+56VX8eCjjwhmXfRrWTNYU9gWNzRaUU79hsPpgrWpCf987l+UF7GTI7EgKVx2yUUIJ+Z9u249Fv/rBdGvcDhWXIxXX3uD8pM31vCv/zLCqI/q37cP/vsGPaNy7nvwIRw+ViyeMfL69hXHx574O7V0G+w0pigsKsHSFStFPQInDhls6u5duFCUyw3o3XeX4Pvt26lcCeNpzOHPge6jx4KQIVdg7979GDJ8DAaNGI3Bw0fjnvseFAwdO2okbrn5JhEnOyuT7G4k7GRups86AzNmn4kxE6bA7fYgPY1/GIQqRoJiYUVFRtAg8CrKXcLCRx7D2AnTMG7iVEyeOhNrvvlG5CfDnxnjR4/Er88/l0yaE5ctuEqUxRRefOFvBAO3bvseYydOwaRpszB52nRMnjBBPJd/LcYf2ZmZWL9hg6Bx4pTpuOPOu8T9q666AsOHD6OztsLrDnr0AV4Gk8E2nEelp40YjmHDh2L4sKE4bfhwnD5zOm684Vrcfef/wWySv1VhouMvf3kOjRXcwr9PSkzC2XPn4p6770QWeTmJ8fGUbgbMZpMQxtQpkzGM8rOQPTZTn5OcnET3JuGqKy5Hamoq3B4P7M0OjOTyZs0QnhunmzVjhqArNSUV0ZGRNEJOp/wzMXrUKHkOLDxcdLqXXXoJ/u/2W6khuGlkP4ici6mij6uqqsbrb76NxMQEMX5w0thBq9VhMJnS31HjuOX314t8goLl2UX5nJBpcH86QlHFNtd3n0gI5joGQiFUjilP/vmjPQ7wmgU9pXKUfBjq2OrU+QX7MHvuOUhNTsbmjd+K++3l7odOR2xFp0yTQri6AgrUclRO/WkIQpGIJ3ftIrQnBI6rylf8kq64VkhXRRAxQkE2d/JZaygmZ2Lzlm003jmiSq3k54/W5+1D7tbV4EbTPtrVCH607n8b8OHKlagid1Or04pJsNmzZmLK5EkthJWVV+C9D5Zg7558ManGg6DJkyfi/PnntpikUHjyyX8Iz0TpJ83mMMRERaLfgAGYMW0qDHq5c2daOqs1nWUY4+FHF+Hpxf/CuWefjef//U/f3VaNSCGN2OLTCD8EFNReuZ2inQURDGR7pQcfflRKyeSpCnkKITEzR0qiwMP795YuF/H++/Z7UlbfAeIex83ow+c8MZcr/fqiy6SGxkYRLxh42mHU2EliKkSepmid1OPpjoFDT5PWfLNWjnyCsPCRx8U0xu+uu8l3R8b+gwcl6qCls86Z3zKd4je3Egyq50uWfSit/HiVfNEJBBWE1+sV8yssgCRiLrmOErl7UklpubT43y9Is+ee3ULP7t17pf6Dh0nkEhLTm8T9L79aK2X26S+lpOdKz/zzOTliMFBkFgQz/b6Fj0qbNm+VNmzYLD33/IvS8NN4PqePlJ7VV7I2NfsSdAEqprSHhY8uEoK4RhGEKl0nsyD4ZtJ8CTzEv+GjxkuXX3WtfJ/QUT5B+whWo735+aRuWgwbMhjXX3s1IshrSaWB143XXYNVK1e0qOGQIYOwaf23+Mttf0RkRLi4P3PGVDIr04W52XeAl1BDQKWtOVkZGDP6NEyYMAbX/+5qvPbqS3RXogGUB/tVeXz0ySqsXPW5MAVq7Ny1G8tWfIytW7+Xb3Devvyra+rx0qtv4O77FuLRRU9hLZlbXisJCl+6Qhp/LKf8Vq78BB7yzJTY7Aov++hj3EtjlMef+gd2iAUvHxspnUfyYvF/XkRZZYWYRVhKeTBd+w8ckuOEgk8gbfDyq6+LljJ45BipvsW8BJOrrxn4DgyX20Nac44wM60a0RrBF01A1oi+0quvv+W7I2NPfgHdl83VvgOHxD1O16ffYKn/kBF+efD5HXf9TcS98eZb5Jt0l83roqeeltJz5FnUVrOXI3308aci1kMtGnGzuGZs2rJNGjB0hIj33gfyDCuXsXHzFmnClBkin5R0OR9es7j+93+QrNYmEe/yK66WUui+KC/dZ3Ip7tPPLhbPQyGk1zR58mSEkS9fWVWDy6+5TqwNu9zBen+52ZVXVOB4aQkOHjqMfz3/EvbszcfA/v1w5RULxPOOUEl++6HDR0TgshZRa2PNnH36LDGZqED8grzS1Amipaobt++cXZDlNGLmfHgG9yqi452338RTTyzC5IkTMI0cARFP/JfB50dJE6657gY0NTXj0UcewgW/mi+eOewO3PD7PwhNueLyy1Cwdw8+X/UJ8vLysOzDlVi6fIVIf8sfb8FvL/0tUajBuPFjseT997F0yXu4YP75Ip+Q8AmkDbgFrPnmf2JOnlfAuFWNGDNBrBu0AUUeOnK06LTTc/tJGX0HSc/+5xWpqdnuixAaorPO7CulZudJGZyWQnJWnpTeZ6D03AuvSHbf6hqDacrpP4Q0YqQ4V+Mvd94tHIkbblI0QpIu+u3lgvaHHn1S8noohUjkETZcSS/6CEp37Q03Sw02G9VxvGjNjz/5tOgrFXyxZq3oL3910aWSy3efD2vXbxCrk8NHj2vJ85nn/iPyWHD1deKeEtpDSI3gNjdj2iSs/fIz3HT9tTCRdpSWVeCc8y7AzX+83a8lceQzzjgD8+adhUkTxsNsNGDhQw/hwksuw+Ej8lR2eyA6qJVOxFWXX4HLL70M8+aeKfJ4YOHDuOnmP8FOrZHhrwv+UNxD5TnTtze/AAZyuXmWV8PLeOKhVqxJK/FEMurM7DRynjfvPLLrlfj9jdfj9j/9oSVPzuvDD6nFU7/Cc2SPPf4EHn5sER55fBGWkyZwvArqD/iZApk/qrGSuA6NNoJgpqjRt28u7rnrDmxctxa/u/JyGIlB7y9Zipdfe8NXmmyunnjsYTz3zN/x7n/fwLZN6zF+3Ghs2rwFd919v3geDEpJTMTZ887EfffeiYUP3I2X/vMsVn28QtwnWy5MDIPjc4XkHy/2wZcJbyrwp5xnTusFvWxiQ0Gp7jffrMOBg+QUaLyora1pw7ni4iK6p0EBjS9ef+MtvEbh9dffwkqijxeLeDGKp0Fk8JwB/QUS1A7aCEJpBYHgxZkH778Hc8+cI4pZtmy5j1g5Cz5VQmSEBfffe69gzKEjh1oZxCcq4tQlKWkZfMzrk4MB/fIEy/cf2C/uMzi51qfIIjtfoqqqKr/8GGazWUwm8jp2+9BQPBfu/tudiI+JBY2N8NY77/meyfTExsq7S64jj65g93YR8vfw8XsR8vfsEPNkMjiFqqKdgL8gVGlFJeXTFrCMZII00OsMbSKoL3fu3EnxtTSylj9BKsD0BXKLEKzlNDY14eDhQyJ6pCWiJXOjQQ+rrQkuV+t7ROxSbty0maLI80hKdn1yc+F0ufHRR5/SVWshAUpPkDB79izhmi967FHKRYMHHniYTHGV7zkwd+5ccdyw8TuRk1K2OgTC5XHJq46hoHrWdvbVl+MTT/wdS8j+1dTWoZFsX0lpGb5c8zWef/FlOBx2/OX2WzGUxhALH3oMe0hdueWR20o2tgyffb4a992/kJjgEvb+zDmny5kGwfMvvIIGq1XMcjbbm1Gwbz/Wb9iIp/7+DGnTUei0Wtx911/F4hHjg6XLUV5ZhYMHD6J//wGoIG/rxZdfwzffrhMVGzxwAJk5mWl1dXX4lu7zs6SkROgMBhw+fBRLli1DuMUi9it9+7/1+I6EOHjAQPzyF/PQr19fGnfUkGC3UD2+wHnnnYOwsDDkZmfjnXfeIfN1CJXV1cjIyBDeGK+NMF8qiabcHHkJladsli3/SOytGjt2jNgjVUu0xMW2XXZtkaDosn1Qewl33XO/8DjYU1BPO2Tm9pduufXPYizJsS+8ZAF5DbJPrfjWfJ1Kns/8Cy4i/9om8gsFZWTNXoY8lSKXw2UOpTHMkqUrfDFlLP738+RRkWcl4nDcXCmHxhYPP/6USN86jpAkG3lt8399sZRMXpna9+ewZu23Io7wmtKz/aY4GmhMMHHqTIrXh7yxe8R4hPHFV2sETTzVw0HJi8PzL7ws4jCYL2MmTJP5R3nz87vve0B+GAIhJ/3YU1lPrWLVqs9QXFQMvV6PocOG4NKLLxRrAtxSGVabDWvXbcCXX36JkpISsd4waNAg/Paii6kVJ5AJCzFn78PLr7yBhiZri5ZyA4mOjsFpI4djAI0fuDWqQdXE/oOH8cJLr+A4lcdl/e7qq5GUGIfn/v2CWKE7gzXQ19fxesWuPQWiNR87dkyY1gsuuADTJ08QdWLt27R1G6XLw1lz58gNlP6VlpfjvQ+WiTzm//IXYq2EVc5K44tPPvsMq1d/BWtjE1JSkzHvrLMwddIEmIzGlhZeW1cPajTYvXs3srKycMWCBaSt/eSHQRAgCPY8gn+SgSMFu98lqLndRTCZakeCs1JWNBRntC2N/gUqz9vG6zz8c1TBl2mbvDtZWBcXhtj7aONoBYeaAHHOaflG+1QFMlwGZ8AhdNnq4nqC4OWHBpdLibqUJhg65qooiUGM7OR+tDayFTRy2naI5SQUuEJKenmPBp9zuvbLDpqzL0815LyVfBl83op2GRokP47dXpqW0U2QtGr0zlIp56CiJeDSH+0+DITCJFFd+bQj+PLnagUyqE3RXaIleJ7+4AwZ7WcarNjeEcTP6DE6Z2t+xgkG8P9ApW/093izQAAAAABJRU5ErkJggg==;" parent="1" vertex="1">
          <mxGeometry x="460" y="-1310" width="62.23" height="87" as="geometry" />
        </mxCell>
        <mxCell id="mECkBH8HhTOBhk_B8JF5-31" value="" style="shape=image;verticalLabelPosition=bottom;labelBackgroundColor=default;verticalAlign=top;aspect=fixed;imageAspect=0;image=data:image/png,iVBORw0KGgoAAAANSUhEUgAAACkAAAA+CAYAAAC2szLVAAAAAXNSR0IArs4c6QAAAARnQU1BAACxjwv8YQUAAAAJcEhZcwAAEnQAABJ0Ad5mH3gAAAUASURBVGhD7VlbaBxVGP5m9ppJNomXSsC+eKmtxkIxpoigMUXxRZRI0T55K4UGxAexpkUq+KJUwVofBG1VEBSx2EcD4kMR0QcbEUpfFBW0BBsTTLdpkt2dnfH/zslkZ3Z2N7vZcedlv+Wfy7nNN99/Lv+ZNVwBGoCZhr4UeEUrKY3hSBWzTnHJg+Q1gQ1J1oJXxTCaJavrtFLej5ZIBlXdDJpXzw9VQ7Gsospb0ldnleIhnNI8WifIZ4mSZXlisHJRbEWM750S6xFLrBNrT8uWsPbIgLt5aUu/+eHSIt74fBoXFxYxNnwrjkw8gKF0Soh2GppakKTY3yUb40dP4KLRh7KRhFVexfP33YmXHxmDJfkd1HEdAT/TvfNLV3HZTqCQSKFomlhOpvH19z+qLtBpUDRaZeAIeHOdZSGXdGGKwFQt4di4Z9dO5Wq+RLmDxucRoSmIin07v4y9x05iJZ3DcNbGF1P70SuvUlJFazk80EQVNt9BDGmXgzZEkuxnyw7uPvwOllL9ODB6Gw5N3I/JN09i5lIejkG9a5BqmnuzpF302QUc3DManrjYBKedhHB3XUcKUHgIYQvzmX78kx0QGwxbpobVKqfqV2w+M4C5nlwlTdUbwJVkFqM7b8dTjz4YJlkP7KFUsSxTVJRmm9IupVi7d0WlpONgh2Xg9Wcfw6A8u2mS/xdM1SW8LuCKBx3cUMzjvReexpC8QFJSYyfp+LpoQhQcLORxYvIJDA9aSKtUmWnUOWZQTNNxkbNXcXTfw9hzy1Y9qlWuETNJ6YCGMOSc3OMUsG9kB54cuUOmu+AcEC9JYUIyGVkwRq5J48jj47hWEkylbQUxK8mpzsZWZwWnXnwGQ8mEWtlEX52/hlhJciRvcZbx0Uv7caMQ5PxcC7GRpFaWW8LhvQ9h1/V9yPpcHHR2rEq6sDIZ3Du8Pezi4EodH0muYIuFEibfOoV/5d7WyRqy8lQQ8zxZMpO4cBU49P5p5EW89dBMHakmLeZ5kmv2qgTV07/P4dNzv+CKSvNAqppurCQNWbi5LC6lLbx2ehrnFvIoSDqjR38EGStJRcQ1VX/Mp3rx3LEPceHyEorSJysfElrqk16l6OAR4dkxEphL9uHA25/gr2LZN5Ba6JM6WuFBr7e0dqGUNBx1dqRBDqRfiwlMfXwGC5Kvw+0W3M0ggNLTGJjS2gVjSR1P6vYoxKrsUr/5Yw7vfvXd+kCqSzKslIrNuSmKzLwfr01ho9OAlUQWH5z9CV/+/Jv6klKXpF8pXmbLRfRKvEfrE8vZK5sw1hMrNTZLNmCu9NPjn53BzJ+zJC/0feDNnOwW75o6jsVUDgd3b8crE2M4O3Mes8ur4pII/KzQqB1RV44pidRv7rc2Jjm5extenRhHZi2PCFRoAa2+HstzXd9w4JAQC3O/ka0yhvi06nS/eWXql3NrpGmjME1vxEhSq0DKMnjk7FfFy69ljaA9UimlncrxHPRV01OQBhtklY0e3xyqW9GTe7j9FknGgy7JqNAlGRW6JKNCl2RU6JKMCl2SUaFLMio0JBlN1Ng+QiRVcCzGP3ySjq2+xlYQjJg7hRBJBscpsZssE9tkY7Ilqf/w0YhH29BukaB2/LeWZxLkt+w4XV+TZHNgtc5Qb2N0d07bOiT9g8V/HQ/qkPQn85pE/b2C15vsJZvAGpvqB1bU03RYzHOvV7Zz7m5j4HQKwH+yg1Ar9j0P+gAAAABJRU5ErkJggg==;" parent="1" vertex="1">
          <mxGeometry y="-1600" width="27.77" height="42" as="geometry" />
        </mxCell>
        <mxCell id="mECkBH8HhTOBhk_B8JF5-32" value="" style="shape=image;verticalLabelPosition=bottom;labelBackgroundColor=default;verticalAlign=top;aspect=fixed;imageAspect=0;image=data:image/png,iVBORw0KGgoAAAANSUhEUgAAACkAAAA+CAYAAAC2szLVAAAAAXNSR0IArs4c6QAAAARnQU1BAACxjwv8YQUAAAAJcEhZcwAAEnQAABJ0Ad5mH3gAAAUASURBVGhD7VlbaBxVGP5m9ppJNomXSsC+eKmtxkIxpoigMUXxRZRI0T55K4UGxAexpkUq+KJUwVofBG1VEBSx2EcD4kMR0QcbEUpfFBW0BBsTTLdpkt2dnfH/zslkZ3Z2N7vZcedlv+Wfy7nNN99/Lv+ZNVwBGoCZhr4UeEUrKY3hSBWzTnHJg+Q1gQ1J1oJXxTCaJavrtFLej5ZIBlXdDJpXzw9VQ7Gsospb0ldnleIhnNI8WifIZ4mSZXlisHJRbEWM750S6xFLrBNrT8uWsPbIgLt5aUu/+eHSIt74fBoXFxYxNnwrjkw8gKF0Soh2GppakKTY3yUb40dP4KLRh7KRhFVexfP33YmXHxmDJfkd1HEdAT/TvfNLV3HZTqCQSKFomlhOpvH19z+qLtBpUDRaZeAIeHOdZSGXdGGKwFQt4di4Z9dO5Wq+RLmDxucRoSmIin07v4y9x05iJZ3DcNbGF1P70SuvUlJFazk80EQVNt9BDGmXgzZEkuxnyw7uPvwOllL9ODB6Gw5N3I/JN09i5lIejkG9a5BqmnuzpF302QUc3DManrjYBKedhHB3XUcKUHgIYQvzmX78kx0QGwxbpobVKqfqV2w+M4C5nlwlTdUbwJVkFqM7b8dTjz4YJlkP7KFUsSxTVJRmm9IupVi7d0WlpONgh2Xg9Wcfw6A8u2mS/xdM1SW8LuCKBx3cUMzjvReexpC8QFJSYyfp+LpoQhQcLORxYvIJDA9aSKtUmWnUOWZQTNNxkbNXcXTfw9hzy1Y9qlWuETNJ6YCGMOSc3OMUsG9kB54cuUOmu+AcEC9JYUIyGVkwRq5J48jj47hWEkylbQUxK8mpzsZWZwWnXnwGQ8mEWtlEX52/hlhJciRvcZbx0Uv7caMQ5PxcC7GRpFaWW8LhvQ9h1/V9yPpcHHR2rEq6sDIZ3Du8Pezi4EodH0muYIuFEibfOoV/5d7WyRqy8lQQ8zxZMpO4cBU49P5p5EW89dBMHakmLeZ5kmv2qgTV07/P4dNzv+CKSvNAqppurCQNWbi5LC6lLbx2ehrnFvIoSDqjR38EGStJRcQ1VX/Mp3rx3LEPceHyEorSJysfElrqk16l6OAR4dkxEphL9uHA25/gr2LZN5Ba6JM6WuFBr7e0dqGUNBx1dqRBDqRfiwlMfXwGC5Kvw+0W3M0ggNLTGJjS2gVjSR1P6vYoxKrsUr/5Yw7vfvXd+kCqSzKslIrNuSmKzLwfr01ho9OAlUQWH5z9CV/+/Jv6klKXpF8pXmbLRfRKvEfrE8vZK5sw1hMrNTZLNmCu9NPjn53BzJ+zJC/0feDNnOwW75o6jsVUDgd3b8crE2M4O3Mes8ur4pII/KzQqB1RV44pidRv7rc2Jjm5extenRhHZi2PCFRoAa2+HstzXd9w4JAQC3O/ka0yhvi06nS/eWXql3NrpGmjME1vxEhSq0DKMnjk7FfFy69ljaA9UimlncrxHPRV01OQBhtklY0e3xyqW9GTe7j9FknGgy7JqNAlGRW6JKNCl2RU6JKMCl2SUaFLMio0JBlN1Ng+QiRVcCzGP3ySjq2+xlYQjJg7hRBJBscpsZssE9tkY7Ilqf/w0YhH29BukaB2/LeWZxLkt+w4XV+TZHNgtc5Qb2N0d07bOiT9g8V/HQ/qkPQn85pE/b2C15vsJZvAGpvqB1bU03RYzHOvV7Zz7m5j4HQKwH+yg1Ar9j0P+gAAAABJRU5ErkJggg==;" parent="1" vertex="1">
          <mxGeometry x="432.23" y="-1600" width="27.77" height="42" as="geometry" />
        </mxCell>
        <mxCell id="mECkBH8HhTOBhk_B8JF5-41" value="" style="group" parent="1" vertex="1" connectable="0">
          <mxGeometry x="-80" y="-723" width="187.77" height="42" as="geometry" />
        </mxCell>
        <mxCell id="mECkBH8HhTOBhk_B8JF5-7" value="Region: us-east-1" style="text;html=1;align=center;verticalAlign=middle;whiteSpace=wrap;rounded=0;fontSize=17;fontColor=#056f8a;fontStyle=1" parent="mECkBH8HhTOBhk_B8JF5-41" vertex="1">
          <mxGeometry x="27.77" width="160" height="30" as="geometry" />
        </mxCell>
        <mxCell id="mECkBH8HhTOBhk_B8JF5-18" value="" style="shape=image;verticalLabelPosition=bottom;labelBackgroundColor=default;verticalAlign=top;aspect=fixed;imageAspect=0;image=data:image/png,iVBORw0KGgoAAAANSUhEUgAAACkAAAA+CAYAAAC2szLVAAAAAXNSR0IArs4c6QAAAARnQU1BAACxjwv8YQUAAAAJcEhZcwAAEnQAABJ0Ad5mH3gAAAUASURBVGhD7VlbaBxVGP5m9ppJNomXSsC+eKmtxkIxpoigMUXxRZRI0T55K4UGxAexpkUq+KJUwVofBG1VEBSx2EcD4kMR0QcbEUpfFBW0BBsTTLdpkt2dnfH/zslkZ3Z2N7vZcedlv+Wfy7nNN99/Lv+ZNVwBGoCZhr4UeEUrKY3hSBWzTnHJg+Q1gQ1J1oJXxTCaJavrtFLej5ZIBlXdDJpXzw9VQ7Gsospb0ldnleIhnNI8WifIZ4mSZXlisHJRbEWM750S6xFLrBNrT8uWsPbIgLt5aUu/+eHSIt74fBoXFxYxNnwrjkw8gKF0Soh2GppakKTY3yUb40dP4KLRh7KRhFVexfP33YmXHxmDJfkd1HEdAT/TvfNLV3HZTqCQSKFomlhOpvH19z+qLtBpUDRaZeAIeHOdZSGXdGGKwFQt4di4Z9dO5Wq+RLmDxucRoSmIin07v4y9x05iJZ3DcNbGF1P70SuvUlJFazk80EQVNt9BDGmXgzZEkuxnyw7uPvwOllL9ODB6Gw5N3I/JN09i5lIejkG9a5BqmnuzpF302QUc3DManrjYBKedhHB3XUcKUHgIYQvzmX78kx0QGwxbpobVKqfqV2w+M4C5nlwlTdUbwJVkFqM7b8dTjz4YJlkP7KFUsSxTVJRmm9IupVi7d0WlpONgh2Xg9Wcfw6A8u2mS/xdM1SW8LuCKBx3cUMzjvReexpC8QFJSYyfp+LpoQhQcLORxYvIJDA9aSKtUmWnUOWZQTNNxkbNXcXTfw9hzy1Y9qlWuETNJ6YCGMOSc3OMUsG9kB54cuUOmu+AcEC9JYUIyGVkwRq5J48jj47hWEkylbQUxK8mpzsZWZwWnXnwGQ8mEWtlEX52/hlhJciRvcZbx0Uv7caMQ5PxcC7GRpFaWW8LhvQ9h1/V9yPpcHHR2rEq6sDIZ3Du8Pezi4EodH0muYIuFEibfOoV/5d7WyRqy8lQQ8zxZMpO4cBU49P5p5EW89dBMHakmLeZ5kmv2qgTV07/P4dNzv+CKSvNAqppurCQNWbi5LC6lLbx2ehrnFvIoSDqjR38EGStJRcQ1VX/Mp3rx3LEPceHyEorSJysfElrqk16l6OAR4dkxEphL9uHA25/gr2LZN5Ba6JM6WuFBr7e0dqGUNBx1dqRBDqRfiwlMfXwGC5Kvw+0W3M0ggNLTGJjS2gVjSR1P6vYoxKrsUr/5Yw7vfvXd+kCqSzKslIrNuSmKzLwfr01ho9OAlUQWH5z9CV/+/Jv6klKXpF8pXmbLRfRKvEfrE8vZK5sw1hMrNTZLNmCu9NPjn53BzJ+zJC/0feDNnOwW75o6jsVUDgd3b8crE2M4O3Mes8ur4pII/KzQqB1RV44pidRv7rc2Jjm5extenRhHZi2PCFRoAa2+HstzXd9w4JAQC3O/ka0yhvi06nS/eWXql3NrpGmjME1vxEhSq0DKMnjk7FfFy69ljaA9UimlncrxHPRV01OQBhtklY0e3xyqW9GTe7j9FknGgy7JqNAlGRW6JKNCl2RU6JKMCl2SUaFLMio0JBlN1Ng+QiRVcCzGP3ySjq2+xlYQjJg7hRBJBscpsZssE9tkY7Ilqf/w0YhH29BukaB2/LeWZxLkt+w4XV+TZHNgtc5Qb2N0d07bOiT9g8V/HQ/qkPQn85pE/b2C15vsJZvAGpvqB1bU03RYzHOvV7Zz7m5j4HQKwH+yg1Ar9j0P+gAAAABJRU5ErkJggg==;" parent="mECkBH8HhTOBhk_B8JF5-41" vertex="1">
          <mxGeometry width="27.77" height="42" as="geometry" />
        </mxCell>
        <mxCell id="mECkBH8HhTOBhk_B8JF5-45" value="" style="group" parent="1" vertex="1" connectable="0">
          <mxGeometry x="-79.99999999999994" y="-670" width="404.99999999999994" height="523.75" as="geometry" />
        </mxCell>
        <mxCell id="mECkBH8HhTOBhk_B8JF5-34" value="" style="rounded=0;whiteSpace=wrap;html=1;strokeWidth=2;strokeColor=#039b4d;" parent="mECkBH8HhTOBhk_B8JF5-45" vertex="1">
          <mxGeometry x="19.999999999999943" width="380" height="523.75" as="geometry" />
        </mxCell>
        <mxCell id="mECkBH8HhTOBhk_B8JF5-35" value="Original VPC" style="text;html=1;align=center;verticalAlign=middle;whiteSpace=wrap;rounded=0;fontSize=17;fontColor=#02ac73;fontStyle=1;container=0;" parent="mECkBH8HhTOBhk_B8JF5-45" vertex="1">
          <mxGeometry width="160" height="30" as="geometry" />
        </mxCell>
        <mxCell id="mECkBH8HhTOBhk_B8JF5-43" value="" style="group" parent="mECkBH8HhTOBhk_B8JF5-45" vertex="1" connectable="0">
          <mxGeometry x="-30.000000000000057" y="-70" width="435" height="523.75" as="geometry" />
        </mxCell>
        <mxCell id="mECkBH8HhTOBhk_B8JF5-44" value="" style="group" parent="mECkBH8HhTOBhk_B8JF5-43" vertex="1" connectable="0">
          <mxGeometry x="55" y="110" width="355" height="217" as="geometry" />
        </mxCell>
        <mxCell id="mECkBH8HhTOBhk_B8JF5-33" value="" style="rounded=0;whiteSpace=wrap;html=1;dashed=1;strokeWidth=2;strokeColor=#05141f;" parent="mECkBH8HhTOBhk_B8JF5-44" vertex="1">
          <mxGeometry x="16.384615384615383" width="338.6153846153846" height="217" as="geometry" />
        </mxCell>
        <mxCell id="mECkBH8HhTOBhk_B8JF5-36" value="AZ: us-east-1a" style="text;html=1;align=center;verticalAlign=middle;whiteSpace=wrap;rounded=0;fontSize=17;fontColor=#0a1619;fontStyle=1" parent="mECkBH8HhTOBhk_B8JF5-44" vertex="1">
          <mxGeometry width="174.76923076923075" height="30" as="geometry" />
        </mxCell>
        <mxCell id="mECkBH8HhTOBhk_B8JF5-47" value="" style="group" parent="mECkBH8HhTOBhk_B8JF5-44" vertex="1" connectable="0">
          <mxGeometry x="5.000000000000057" y="40" width="175.77999999999992" height="130.87" as="geometry" />
        </mxCell>
        <mxCell id="mECkBH8HhTOBhk_B8JF5-37" value="" style="rounded=0;whiteSpace=wrap;html=1;strokeWidth=2;strokeColor=#0e8b51;" parent="mECkBH8HhTOBhk_B8JF5-47" vertex="1">
          <mxGeometry x="25.779999999999916" width="150" height="130.87" as="geometry" />
        </mxCell>
        <mxCell id="mECkBH8HhTOBhk_B8JF5-46" value="Public Subnet" style="text;html=1;align=center;verticalAlign=middle;whiteSpace=wrap;rounded=0;fontSize=15;fontColor=#02ac73;fontStyle=1;container=0;" parent="mECkBH8HhTOBhk_B8JF5-47" vertex="1">
          <mxGeometry width="160" height="30" as="geometry" />
        </mxCell>
        <mxCell id="mECkBH8HhTOBhk_B8JF5-53" value="" style="group" parent="mECkBH8HhTOBhk_B8JF5-44" vertex="1" connectable="0">
          <mxGeometry x="165.00000000000003" y="40" width="175.77999999999992" height="130.87" as="geometry" />
        </mxCell>
        <mxCell id="mECkBH8HhTOBhk_B8JF5-54" value="" style="rounded=0;whiteSpace=wrap;html=1;strokeWidth=2;strokeColor=#030bdd;" parent="mECkBH8HhTOBhk_B8JF5-53" vertex="1">
          <mxGeometry x="25.779999999999916" width="150" height="130.87" as="geometry" />
        </mxCell>
        <mxCell id="mECkBH8HhTOBhk_B8JF5-55" value="Private Subnet" style="text;html=1;align=center;verticalAlign=middle;whiteSpace=wrap;rounded=0;fontSize=15;fontColor=#024bac;fontStyle=1;container=0;" parent="mECkBH8HhTOBhk_B8JF5-53" vertex="1">
          <mxGeometry width="160" height="30" as="geometry" />
        </mxCell>
        <mxCell id="mECkBH8HhTOBhk_B8JF5-56" value="" style="group" parent="mECkBH8HhTOBhk_B8JF5-45" vertex="1" connectable="0">
          <mxGeometry x="24.999999999999943" y="290" width="355" height="217" as="geometry" />
        </mxCell>
        <mxCell id="mECkBH8HhTOBhk_B8JF5-57" value="" style="rounded=0;whiteSpace=wrap;html=1;dashed=1;strokeWidth=2;strokeColor=#05141f;" parent="mECkBH8HhTOBhk_B8JF5-56" vertex="1">
          <mxGeometry x="16.384615384615383" width="338.6153846153846" height="217" as="geometry" />
        </mxCell>
        <mxCell id="mECkBH8HhTOBhk_B8JF5-58" value="AZ: us-east-1b" style="text;html=1;align=center;verticalAlign=middle;whiteSpace=wrap;rounded=0;fontSize=17;fontColor=#0a1619;fontStyle=1" parent="mECkBH8HhTOBhk_B8JF5-56" vertex="1">
          <mxGeometry width="174.76923076923075" height="30" as="geometry" />
        </mxCell>
        <mxCell id="mECkBH8HhTOBhk_B8JF5-59" value="" style="group" parent="mECkBH8HhTOBhk_B8JF5-56" vertex="1" connectable="0">
          <mxGeometry x="5.000000000000057" y="40" width="175.77999999999992" height="130.87" as="geometry" />
        </mxCell>
        <mxCell id="mECkBH8HhTOBhk_B8JF5-60" value="" style="rounded=0;whiteSpace=wrap;html=1;strokeWidth=2;strokeColor=#0e8b51;" parent="mECkBH8HhTOBhk_B8JF5-59" vertex="1">
          <mxGeometry x="25.779999999999916" width="150" height="130.87" as="geometry" />
        </mxCell>
        <mxCell id="mECkBH8HhTOBhk_B8JF5-61" value="Public Subnet" style="text;html=1;align=center;verticalAlign=middle;whiteSpace=wrap;rounded=0;fontSize=15;fontColor=#02ac73;fontStyle=1;container=0;" parent="mECkBH8HhTOBhk_B8JF5-59" vertex="1">
          <mxGeometry width="160" height="30" as="geometry" />
        </mxCell>
        <mxCell id="mECkBH8HhTOBhk_B8JF5-62" value="" style="group" parent="mECkBH8HhTOBhk_B8JF5-56" vertex="1" connectable="0">
          <mxGeometry x="165.00000000000003" y="40" width="175.77999999999992" height="130.87" as="geometry" />
        </mxCell>
        <mxCell id="mECkBH8HhTOBhk_B8JF5-63" value="" style="rounded=0;whiteSpace=wrap;html=1;strokeWidth=2;strokeColor=#030bdd;" parent="mECkBH8HhTOBhk_B8JF5-62" vertex="1">
          <mxGeometry x="25.779999999999916" width="150" height="130.87" as="geometry" />
        </mxCell>
        <mxCell id="mECkBH8HhTOBhk_B8JF5-64" value="Private Subnet" style="text;html=1;align=center;verticalAlign=middle;whiteSpace=wrap;rounded=0;fontSize=15;fontColor=#024bac;fontStyle=1;container=0;" parent="mECkBH8HhTOBhk_B8JF5-62" vertex="1">
          <mxGeometry width="160" height="30" as="geometry" />
        </mxCell>
        <mxCell id="mECkBH8HhTOBhk_B8JF5-65" value="" style="rounded=0;whiteSpace=wrap;html=1;dashed=1;strokeWidth=2;strokeColor=#066ab7;" parent="1" vertex="1">
          <mxGeometry x="370" y="-726.5" width="422.23" height="623" as="geometry" />
        </mxCell>
        <mxCell id="mECkBH8HhTOBhk_B8JF5-66" value="" style="group" parent="1" vertex="1" connectable="0">
          <mxGeometry x="372.23" y="-723" width="187.77" height="42" as="geometry" />
        </mxCell>
        <mxCell id="mECkBH8HhTOBhk_B8JF5-67" value="Region: us-west-1" style="text;html=1;align=center;verticalAlign=middle;whiteSpace=wrap;rounded=0;fontSize=17;fontColor=#056f8a;fontStyle=1" parent="mECkBH8HhTOBhk_B8JF5-66" vertex="1">
          <mxGeometry x="27.77" width="160" height="30" as="geometry" />
        </mxCell>
        <mxCell id="mECkBH8HhTOBhk_B8JF5-68" value="" style="shape=image;verticalLabelPosition=bottom;labelBackgroundColor=default;verticalAlign=top;aspect=fixed;imageAspect=0;image=data:image/png,iVBORw0KGgoAAAANSUhEUgAAACkAAAA+CAYAAAC2szLVAAAAAXNSR0IArs4c6QAAAARnQU1BAACxjwv8YQUAAAAJcEhZcwAAEnQAABJ0Ad5mH3gAAAUASURBVGhD7VlbaBxVGP5m9ppJNomXSsC+eKmtxkIxpoigMUXxRZRI0T55K4UGxAexpkUq+KJUwVofBG1VEBSx2EcD4kMR0QcbEUpfFBW0BBsTTLdpkt2dnfH/zslkZ3Z2N7vZcedlv+Wfy7nNN99/Lv+ZNVwBGoCZhr4UeEUrKY3hSBWzTnHJg+Q1gQ1J1oJXxTCaJavrtFLej5ZIBlXdDJpXzw9VQ7Gsospb0ldnleIhnNI8WifIZ4mSZXlisHJRbEWM750S6xFLrBNrT8uWsPbIgLt5aUu/+eHSIt74fBoXFxYxNnwrjkw8gKF0Soh2GppakKTY3yUb40dP4KLRh7KRhFVexfP33YmXHxmDJfkd1HEdAT/TvfNLV3HZTqCQSKFomlhOpvH19z+qLtBpUDRaZeAIeHOdZSGXdGGKwFQt4di4Z9dO5Wq+RLmDxucRoSmIin07v4y9x05iJZ3DcNbGF1P70SuvUlJFazk80EQVNt9BDGmXgzZEkuxnyw7uPvwOllL9ODB6Gw5N3I/JN09i5lIejkG9a5BqmnuzpF302QUc3DManrjYBKedhHB3XUcKUHgIYQvzmX78kx0QGwxbpobVKqfqV2w+M4C5nlwlTdUbwJVkFqM7b8dTjz4YJlkP7KFUsSxTVJRmm9IupVi7d0WlpONgh2Xg9Wcfw6A8u2mS/xdM1SW8LuCKBx3cUMzjvReexpC8QFJSYyfp+LpoQhQcLORxYvIJDA9aSKtUmWnUOWZQTNNxkbNXcXTfw9hzy1Y9qlWuETNJ6YCGMOSc3OMUsG9kB54cuUOmu+AcEC9JYUIyGVkwRq5J48jj47hWEkylbQUxK8mpzsZWZwWnXnwGQ8mEWtlEX52/hlhJciRvcZbx0Uv7caMQ5PxcC7GRpFaWW8LhvQ9h1/V9yPpcHHR2rEq6sDIZ3Du8Pezi4EodH0muYIuFEibfOoV/5d7WyRqy8lQQ8zxZMpO4cBU49P5p5EW89dBMHakmLeZ5kmv2qgTV07/P4dNzv+CKSvNAqppurCQNWbi5LC6lLbx2ehrnFvIoSDqjR38EGStJRcQ1VX/Mp3rx3LEPceHyEorSJysfElrqk16l6OAR4dkxEphL9uHA25/gr2LZN5Ba6JM6WuFBr7e0dqGUNBx1dqRBDqRfiwlMfXwGC5Kvw+0W3M0ggNLTGJjS2gVjSR1P6vYoxKrsUr/5Yw7vfvXd+kCqSzKslIrNuSmKzLwfr01ho9OAlUQWH5z9CV/+/Jv6klKXpF8pXmbLRfRKvEfrE8vZK5sw1hMrNTZLNmCu9NPjn53BzJ+zJC/0feDNnOwW75o6jsVUDgd3b8crE2M4O3Mes8ur4pII/KzQqB1RV44pidRv7rc2Jjm5extenRhHZi2PCFRoAa2+HstzXd9w4JAQC3O/ka0yhvi06nS/eWXql3NrpGmjME1vxEhSq0DKMnjk7FfFy69ljaA9UimlncrxHPRV01OQBhtklY0e3xyqW9GTe7j9FknGgy7JqNAlGRW6JKNCl2RU6JKMCl2SUaFLMio0JBlN1Ng+QiRVcCzGP3ySjq2+xlYQjJg7hRBJBscpsZssE9tkY7Ilqf/w0YhH29BukaB2/LeWZxLkt+w4XV+TZHNgtc5Qb2N0d07bOiT9g8V/HQ/qkPQn85pE/b2C15vsJZvAGpvqB1bU03RYzHOvV7Zz7m5j4HQKwH+yg1Ar9j0P+gAAAABJRU5ErkJggg==;" parent="mECkBH8HhTOBhk_B8JF5-66" vertex="1">
          <mxGeometry width="27.77" height="42" as="geometry" />
        </mxCell>
        <mxCell id="mECkBH8HhTOBhk_B8JF5-69" value="" style="group" parent="1" vertex="1" connectable="0">
          <mxGeometry x="372.23" y="-670" width="404.99999999999994" height="523.75" as="geometry" />
        </mxCell>
        <mxCell id="mECkBH8HhTOBhk_B8JF5-70" value="" style="rounded=0;whiteSpace=wrap;html=1;strokeWidth=2;strokeColor=#039b4d;" parent="mECkBH8HhTOBhk_B8JF5-69" vertex="1">
          <mxGeometry x="19.999999999999943" width="380" height="523.75" as="geometry" />
        </mxCell>
        <mxCell id="mECkBH8HhTOBhk_B8JF5-71" value="Original VPC" style="text;html=1;align=center;verticalAlign=middle;whiteSpace=wrap;rounded=0;fontSize=17;fontColor=#02ac73;fontStyle=1;container=0;" parent="mECkBH8HhTOBhk_B8JF5-69" vertex="1">
          <mxGeometry width="160" height="30" as="geometry" />
        </mxCell>
        <mxCell id="mECkBH8HhTOBhk_B8JF5-72" value="" style="group" parent="mECkBH8HhTOBhk_B8JF5-69" vertex="1" connectable="0">
          <mxGeometry x="-30.000000000000057" y="-70" width="435" height="523.75" as="geometry" />
        </mxCell>
        <mxCell id="mECkBH8HhTOBhk_B8JF5-73" value="" style="group" parent="mECkBH8HhTOBhk_B8JF5-72" vertex="1" connectable="0">
          <mxGeometry x="55" y="110" width="355" height="217" as="geometry" />
        </mxCell>
        <mxCell id="mECkBH8HhTOBhk_B8JF5-74" value="" style="rounded=0;whiteSpace=wrap;html=1;dashed=1;strokeWidth=2;strokeColor=#05141f;" parent="mECkBH8HhTOBhk_B8JF5-73" vertex="1">
          <mxGeometry x="16.384615384615383" width="338.6153846153846" height="217" as="geometry" />
        </mxCell>
        <mxCell id="mECkBH8HhTOBhk_B8JF5-75" value="AZ: us-west-1a" style="text;html=1;align=center;verticalAlign=middle;whiteSpace=wrap;rounded=0;fontSize=17;fontColor=#0a1619;fontStyle=1" parent="mECkBH8HhTOBhk_B8JF5-73" vertex="1">
          <mxGeometry width="174.76923076923075" height="30" as="geometry" />
        </mxCell>
        <mxCell id="mECkBH8HhTOBhk_B8JF5-76" value="" style="group" parent="mECkBH8HhTOBhk_B8JF5-73" vertex="1" connectable="0">
          <mxGeometry x="5.000000000000057" y="40" width="175.77999999999992" height="130.87" as="geometry" />
        </mxCell>
        <mxCell id="mECkBH8HhTOBhk_B8JF5-77" value="" style="rounded=0;whiteSpace=wrap;html=1;strokeWidth=2;strokeColor=#0e8b51;" parent="mECkBH8HhTOBhk_B8JF5-76" vertex="1">
          <mxGeometry x="25.779999999999916" width="150" height="130.87" as="geometry" />
        </mxCell>
        <mxCell id="mECkBH8HhTOBhk_B8JF5-78" value="Public Subnet" style="text;html=1;align=center;verticalAlign=middle;whiteSpace=wrap;rounded=0;fontSize=15;fontColor=#02ac73;fontStyle=1;container=0;" parent="mECkBH8HhTOBhk_B8JF5-76" vertex="1">
          <mxGeometry width="160" height="30" as="geometry" />
        </mxCell>
        <mxCell id="mECkBH8HhTOBhk_B8JF5-79" value="" style="group" parent="mECkBH8HhTOBhk_B8JF5-73" vertex="1" connectable="0">
          <mxGeometry x="165.00000000000003" y="40" width="175.77999999999992" height="130.87" as="geometry" />
        </mxCell>
        <mxCell id="mECkBH8HhTOBhk_B8JF5-80" value="" style="rounded=0;whiteSpace=wrap;html=1;strokeWidth=2;strokeColor=#030bdd;" parent="mECkBH8HhTOBhk_B8JF5-79" vertex="1">
          <mxGeometry x="25.779999999999916" width="150" height="130.87" as="geometry" />
        </mxCell>
        <mxCell id="mECkBH8HhTOBhk_B8JF5-81" value="Private Subnet" style="text;html=1;align=center;verticalAlign=middle;whiteSpace=wrap;rounded=0;fontSize=15;fontColor=#024bac;fontStyle=1;container=0;" parent="mECkBH8HhTOBhk_B8JF5-79" vertex="1">
          <mxGeometry width="160" height="30" as="geometry" />
        </mxCell>
        <mxCell id="mECkBH8HhTOBhk_B8JF5-82" value="" style="group" parent="mECkBH8HhTOBhk_B8JF5-69" vertex="1" connectable="0">
          <mxGeometry x="24.999999999999943" y="290" width="355" height="217" as="geometry" />
        </mxCell>
        <mxCell id="mECkBH8HhTOBhk_B8JF5-83" value="" style="rounded=0;whiteSpace=wrap;html=1;dashed=1;strokeWidth=2;strokeColor=#05141f;" parent="mECkBH8HhTOBhk_B8JF5-82" vertex="1">
          <mxGeometry x="16.384615384615383" width="338.6153846153846" height="217" as="geometry" />
        </mxCell>
        <mxCell id="mECkBH8HhTOBhk_B8JF5-84" value="AZ: us-west-1b" style="text;html=1;align=center;verticalAlign=middle;whiteSpace=wrap;rounded=0;fontSize=17;fontColor=#0a1619;fontStyle=1" parent="mECkBH8HhTOBhk_B8JF5-82" vertex="1">
          <mxGeometry width="174.76923076923075" height="30" as="geometry" />
        </mxCell>
        <mxCell id="mECkBH8HhTOBhk_B8JF5-85" value="" style="group" parent="mECkBH8HhTOBhk_B8JF5-82" vertex="1" connectable="0">
          <mxGeometry x="5.000000000000057" y="40" width="175.77999999999992" height="130.87" as="geometry" />
        </mxCell>
        <mxCell id="mECkBH8HhTOBhk_B8JF5-86" value="" style="rounded=0;whiteSpace=wrap;html=1;strokeWidth=2;strokeColor=#0e8b51;" parent="mECkBH8HhTOBhk_B8JF5-85" vertex="1">
          <mxGeometry x="25.779999999999916" width="150" height="130.87" as="geometry" />
        </mxCell>
        <mxCell id="mECkBH8HhTOBhk_B8JF5-87" value="Public Subnet" style="text;html=1;align=center;verticalAlign=middle;whiteSpace=wrap;rounded=0;fontSize=15;fontColor=#02ac73;fontStyle=1;container=0;" parent="mECkBH8HhTOBhk_B8JF5-85" vertex="1">
          <mxGeometry width="160" height="30" as="geometry" />
        </mxCell>
        <mxCell id="mECkBH8HhTOBhk_B8JF5-88" value="" style="group" parent="mECkBH8HhTOBhk_B8JF5-82" vertex="1" connectable="0">
          <mxGeometry x="165.00000000000003" y="40" width="175.77999999999992" height="130.87" as="geometry" />
        </mxCell>
        <mxCell id="mECkBH8HhTOBhk_B8JF5-89" value="" style="rounded=0;whiteSpace=wrap;html=1;strokeWidth=2;strokeColor=#030bdd;" parent="mECkBH8HhTOBhk_B8JF5-88" vertex="1">
          <mxGeometry x="25.779999999999916" width="150" height="130.87" as="geometry" />
        </mxCell>
        <mxCell id="mECkBH8HhTOBhk_B8JF5-90" value="Private Subnet" style="text;html=1;align=center;verticalAlign=middle;whiteSpace=wrap;rounded=0;fontSize=15;fontColor=#024bac;fontStyle=1;container=0;" parent="mECkBH8HhTOBhk_B8JF5-88" vertex="1">
          <mxGeometry width="160" height="30" as="geometry" />
        </mxCell>
        <mxCell id="yCuCPkyOC491UmM06Bov-1" value="" style="rounded=0;whiteSpace=wrap;html=1;strokeWidth=2;fontColor=#0910c8;labelBorderColor=#0713bb;strokeColor=#0264c0;" vertex="1" parent="1">
          <mxGeometry x="-70" y="-2690" width="900" height="610" as="geometry" />
        </mxCell>
        <mxCell id="yCuCPkyOC491UmM06Bov-2" value="AWS Cloud" style="text;html=1;align=center;verticalAlign=middle;whiteSpace=wrap;rounded=0;fontSize=17;strokeWidth=2;fontColor=#045b81;fontStyle=1" vertex="1" parent="1">
          <mxGeometry x="-70" y="-2680" width="120" height="30" as="geometry" />
        </mxCell>
        <mxCell id="yCuCPkyOC491UmM06Bov-3" value="" style="rounded=0;whiteSpace=wrap;html=1;dashed=1;strokeWidth=2;strokeColor=#066ab7;" vertex="1" parent="1">
          <mxGeometry x="-40" y="-2560" width="380" height="390" as="geometry" />
        </mxCell>
        <mxCell id="yCuCPkyOC491UmM06Bov-4" value="Region: us-east-1" style="text;html=1;align=center;verticalAlign=middle;whiteSpace=wrap;rounded=0;fontSize=17;fontColor=#056f8a;fontStyle=1" vertex="1" parent="1">
          <mxGeometry x="-2.230000000000004" y="-2560" width="160" height="30" as="geometry" />
        </mxCell>
        <mxCell id="yCuCPkyOC491UmM06Bov-5" value="" style="rounded=0;whiteSpace=wrap;html=1;dashed=1;strokeWidth=2;strokeColor=#066ab7;" vertex="1" parent="1">
          <mxGeometry x="390" y="-2560" width="380" height="390" as="geometry" />
        </mxCell>
        <mxCell id="yCuCPkyOC491UmM06Bov-6" value="Region: us-east-2" style="text;html=1;align=center;verticalAlign=middle;whiteSpace=wrap;rounded=0;fontSize=17;fontColor=#056f8a;fontStyle=1" vertex="1" parent="1">
          <mxGeometry x="430" y="-2560" width="160" height="30" as="geometry" />
        </mxCell>
        <mxCell id="yCuCPkyOC491UmM06Bov-7" value="" style="shape=image;verticalLabelPosition=bottom;labelBackgroundColor=default;verticalAlign=top;aspect=fixed;imageAspect=0;image=data:image/png,iVBORw0KGgoAAAANSUhEUgAAAHMAAACNCAYAAACE20WPAAAAAXNSR0IArs4c6QAAAARnQU1BAACxjwv8YQUAAAAJcEhZcwAAEnQAABJ0Ad5mH3gAADM2SURBVHhe7V0HYBzF1f6u6Ip6t6wuS7KMDW4YV8DGgG1MB0OMMZhACoSfn/wpEGpII5TQAoQSTO+92KHjRnHv3eqWrN6l63f7vze7K51Op+a7k0v47NXuzs7OzHtv3pv3Zmf3NBIBP+K4gFbZ/4jjAMewMD20dRkV1cAUFpVg4uSpKBg9Fs+/8IpI+2/BMW5m1aZrlL0Mh9MJj9sDk8mopPx34LgU5n8rjvExk4X4oyBVHJ3C7LQVXeMi/+1mQnokHD76KqbfKoLUhmDgx9DkOMLRbWZ7dDPWVD/wycenvfXQ3q71lv9YwnGlmUzI4Y6ggdx7tODo08wBdi1/2VRhDLZ3+gpysPcfLTjKhMlsDJyV/WtY3/Ucqxp6lJlZdUzs6mMuYrqT0p107KRjO/21U6rV4YDT44LdzTkAq9NOubyFRCLpJE0DrUYLc5hBCMqo08Og1cFkMMIIvdjCqM4wusZ7vZc4mT0azbEh3qNGmCxGF/11COFJQoi8lblqsLV8L4rqK1HaWIVGVzvseg9sWglWjRsOLd1FsrfR3s2C1NAm9WS+jgRk8uihpcwG2sy8l2jv1iOGxJmXlIYRiWkYnzkaWfphQqB6us9AmyxgrVcXOzpxxITppk0WmIc2oMnTgc01+7GlqhjF7hpU2ptwyN4MGwlMUv6ReinaJ8tLiIw1h484mTVIaJLYdYfQLlFKp6xZ7upebPSP+ghMJPrhxjik0TZCl4QJw/MwYdhIxGkjhPayYFnYOvn2owZBECbrlJ8+y6UKpnVdZ0GwEFnzmtwW7Gw6iI3thVhXsw+FjZWkcXSduOnWeuBmgcj8FwzmQ2a2ynhOiwwzwUy6E2mQ9z2hSI3AYrRpXGh3WGCVHGh32UTLWMjcLokKpSLhEbfIHURLDdBTgo42AzVoZHwaJicX4JTIfIyJS0ecLpyEKwtV262urpr5WEB0sq48oUDoNFNQJAuSD1m/miQ7Cl0teKf0a3yzbyMsYWRWyWQ6dBKZSpmZ/IdJ1nt0iCKzGOMMo02P/KQs5MQPR3ZCClLC45FtTiMmMguJ6XSTzKa+mcU1yG3hjuVBqbUS1ZZGlDXWoLjhEAprD6LF4ESr3oFmHZltrTDcihAkMtGyUA0uLcKdWswumITLsmYjLywWcRqjMOUi50AFJwgmDCDrQBBkYXZvHRdtJ4Eegg3vla7CN2VbUGFvIGa5SQvdsmYQuPeHO3SIs2oxOjELE9NH4aTofMSaIhBtNCFaayK904sxTB7LtNAdZk/3JlY29W7aNKKzsWPV5rGhzWFFo60D25sPYEvlfuyuL0eL2YUOgxtONgkE7kYGpwZRDj0ywxMwO2sCLs2eiVSyEUZxdegRAs0kLSNS2IgVORuwvHQdPi1Zh4PaVsEM1g02Xybq3bE2PUbFZ+KkhBE4MWkECsh0JSIC4dTHTcSQHsabW9ovl3rPpBI6EEaz6bXRZiEx16MD+5sqsKe+FDsbS7CjrhjNZjdsZFXYLHN54Q4tMj2xOCd7MubnTCFtjRdjrzcNTLusu6FB0IXJ3mgdrPiyaiue3vwhKsOtsNOgwiSweWKTmWlKwPS0EzE/bzoyEYsoIto4ECIHJMxexnBCf7f3d53H+jYSbhmasazoW6yr3IsSSx1aDS4aLmSTbCQznG4Jx7Vj5+OcjFOQLEZzudQBNT8ABE2YXIiNCC10NOEPXz2J3aYm6rmyJhppfIkkM3pyUj5uHHsZcsNiEKsxkAhlDIzA3oXUiX645U2od7bBMpnzs4luJkeqxNGCZ/Z9iB8q96Cdxlt7mFyL0aXHGHsc7j/zRuQa4kmkPU2v2p7B1N0XgiRMD9rp78c1G/H4zg9RrqX+S2OLwa1FFGnieblTcUnKNIyJTBXjCTsK/YhlSNCXEDuv9ZGJu5c81nqwu/0Q0b8BHxSuQVsYxb86D3nBWmR4InHj6Atx8fDJNICE0sgGQZh8M5vWN+vW4aHN76LeSKRRi6OpZ86IHImbTr4I+fpkIUR2XnyFqFYeSiJV9CGXgMDlcszMfkKhqxZPb1uGFU270EpCZX8p0W7ErycuwBVJk4UvINrgpzGBti9gYfI4st3eiF+ufBCVpg7RmCS7Ab8dvwDzk09BNKXIBpWr4U0OVVSCOgN4eadgACa1N3QWPjgc5m09wFOPrbR9VbcV925+C3UmcqOIxakOMx6b+b+YYkwXsalaobwLgF4vBCRMbkIrNf/qlQ9hs1QpTGu2Mxr3T70eE8ikRgpd7B9qA4LBzKDjMKTMt3SQAd7aUYFbfngGpfpW4cEXOOPw1pzbwX4uMT7okwgBdQd234vbalBkqRWBfxxr5CmLMDkyo1OQfnuKTyLnOyoFeZhgWiKItadEZOI3xI9Yh0Hwp8rdjqKWGjHO+grSL58GiYCEyQ1otnfAQ4M9IzEsGuNj8kSY0adwjiXJHWZbmQPs2E4kfgwzxIg0nqZsdXD0GhoEbKhjjRGkojLFtY5mbLUUkjMgC5dxLMktmGCBeUj7ilCNWluzSOPpwDhTuF+mM58CFXJAwuQQIzkiBnpywbmgVpMLT697HxVuK3m4XQIV4JaK1lJ6qLpmSOBDxwDB3m2Nx4onvn0HzcQXBvMrwRxJvPLfxQPt+AEJk2/mx0JGjeyhujQS9kn1+PX6J7HdVgULMUJ9ZCVaKlrrv8oAneoQon8WccvV1rPo2ZAWkof/m43PYKvjIJxkXjXEG72bPH19TMBC6w0BCZPBQUdecgY1lJuohV0PbLJV4PqVj+GDxi1oJm9XngfygqCmU8wCwfbshgrcCdWWM508K/RJ6w4sWXE/fmgvhk3MCGmgc2tRkJIt+HXUCpMxIiFNmFoZ/EjLg0qzBX/Z9Bqu+/YxfGTZhXoyPLKxUaEam25iPubAnZCFWE+ddrl9L37+3WP447oXUWG2iol41eIwf3IShodMkIyAJw149ud16yb8Zc2raKOxIUpjgMEqiclnF8WdHF/FWnUYF5ODWcPHYVrWGGRo4hFFwhTBsxBmKEkMDXhM5En3KqkN3x/cgRVVW7G5sRgtZreIt1l4MWSm7GagTeNAtE2HP0y9AldFTYGRZ0pCQHLgM0B0+3pnNX72zQNoCHciRxuP26Zfg7fXL8P21jI0hdnhVJ6a8IR7okWPqSkn4Ky8KcgPH44kYxTFZGEcRtPfoBiKoIMZxB66/EjMhVp7K8qt9fiqdD1Wl+9AQ4QD1jB52CBlRJzDiDEUay+ediHuW/syCl11SOgIwxOz/w+nGzIoZDlKhck9dJ+rBUtW3ocyQztyHFF4edZtSNQZsdVahfu/fwkHXU2CWLvODQ2v46EamaB4IjrZHo5ZI8ZjRtZJOCEyW3n4zA+heZMn5cUTfG4mmbRuPFBb7p3IaX4YxWSySVT3/sC3quuS2HTKD695gRlQ5KjEyv2bsLpkK6qNNjQYbHCKNSw0YNCOH++ZqbNmkIPz++lLMMGcjma3HVet/DuKDa1It0fgpVm34wSKxQc2LzZ4BCxMJrrCbcFVqx/AXl0DhlmMePnMOzE6jL02DSySB5uaivBl/VZ8c3ALGjwW0lRiGHFAdFCqndfY6Gkfow9HmjEeqfpYpGrjkJ+chuy4FKSY4xGvZcMsO1zMCt689VgegWVh+ydI1hz1Gnud6jkfs+DaSO8q2+tQ0daAA3UVKHPQMXXESlsjWolG8mFEPklUTKaUBKinkwSNGWdmTMDZieNxclwOzBrufsAeZwuu+uZvqDbbkO+Mxauz/oBMXYTonKFAwMJkFjVKdixe/RA2aw4hjszoo7NvxmxDFnhVDBfOk/Ecd7ZQvtUV27Cubj+2W8tRaq0jt53K0FAptGe/kHs5j7MsYJK5CLQ5zawLE2t/0mOSEW+MRJQxHPGIRqRkEtdjzcQkYqJ/SGQN3Gi2UrBEfGzXWNFAomuzW9Bo70BVez1qLE1od1jFQjLO46Y2uXltEh1zpxOtI6lz28IoMcOUgHHmTExJHoXT08ZSiMZLW2Q/gLMzzWvsB/Grbx5GY4QL4zwpeO303yKR8vUWZwaKgIXJIBZg8bePYI2nFFEOHW6acBFuSJgpHnt5g6NONll2IpQfFzVJFqwo3YAVhZuFBjTqHWgLc4h4tbNRCt28kwWrCpzS+FzJwIJnLZcZ3xOCTLFUU5wJJ0UIis54MRmf87GAcsBF6anASJcBCU4D0vVxmJU/AWdmTUasJlyM80wjj/XdKZUdw+fbfsA/1r6FVqMb07WZeP3U38AcMiPL9AcoTL5dojHoFxuewXLLToqnJJybPAGPjfkpTDyZQNd7G6NYq/nBLk8utEhWNFk70OBow/6OchSRmSuurUC1tVm4+BaKuB0Us/GENY9p/srklMESw53ASObS4NLA7NLBRKYiwRCBUak5yE1MR35kJuINUYgnzY8hc8rrk1iAvsLrAncXreisdxW/g7dLvoWDHIC5hlFYOu1XITOxjKBoJjf/7yWf4NmSL0SMOU6big9Ou00slRgsuCwWMG/MkHY6anC3otHShvr2ZjRa22B3OdFETpeT7F5Da7MwjayWHWQmLXbyOVnQXlRFGI2INISLNNbohOhYcsC0iNNHw0iOWnxEFBIjYhAfHo0EXRQiSVwsMFnzui/KElDL9isXvqgha+XB5d/fj03kOOlpsL0u+0zclXthV1lytqAiKMLkAl5tWo+/bHhVrFpLbTFi5bn3U0+WI8nDQRetavO6SuIUHpN4boknIoRTIvayGe8OSYxj7BlzHtVTDiMhqePbYaGrgT3Al6irYdayW1ET40Qkxdl3TFqIJfFTu27p4/7DxeBVxxfcKEJaTJIwVzxo8a7R00GslS/yXyXbgNFFJx/1pJpXvEWQWNjRj6MtgbYkSk2lbbiylzejSI9X8sTQxvfx/b3xsrN/99XoPgTB1qWZvF/mg8fjIRMOZMQmdy+vj/sPF4ELU2lUtnY4wiX5FQF+bldraSaiZHeDs/TZ9gFJWy6L0VkW3aOEegLqnmNDdrJYe7nYPuv2AzUe7Xkjl0bt4F0f4FobbO2KJ0ym2q1DhjZl8A0ZJAIXpgJe8JsYGSuOuUfW0RjXxf5+wET2S6ifpna7j19AktAqufB9QxE+KN+MFbV70UDhEKf3w38FXh3Gr9PGadQOP5e4fLUONvu1llYhTMawqDgxyxVqBEWY3GZ2FhLNsjCZiAZegSDOhgb8ikGVx4rrVj6MX63/F+7e9wr+d8szuPw/f8ZOR40QaL+QZwMOC8wDVcZskWqtrXAqKzCSIuLIGQxgfB4ggiJMNknsuSaRN8gvJ7CZrdQ0DKkwed70iX2fYJOnUsyVthhdaDK7UGhuw983voGuEbwPKNwemBZ7wecGpvuQplHwgZFojqbOHhRW94ngaCaPC8SJxLBY4cizZla01w6pMJslCz4r3wBbGE8wdsFJMerWtnLssR4cmHYSBq1BPjcw3ZUd9SJk4ksJBn6dd9ClDhpB6y48E5MUQfEbDZgu6pEHW+qGTJgsolanhbST3+nqCSsJ+M3iNdhuq0EjuUXsGIUSTHdFO9FP3DVQz040Rod0skBFcISp8GZ4TAKMFOjxhHRZczUxNrRMU8FsSjHEI5EnsTsfkstgb5JnkN6uX4+frv4Hbv/239jlrkUTCZ4nJtQWerdUDU0GF4JzXrn7coc62FwjzKzRoUVKdEL3CkKE4AiTZ6AJ8eYohLv0ot0OjRt1Lg5PhgZm2q4tmId4qxZhZN905MyEUa/iV+3CnaQX1Kg6ox3LnHtwxYoHcPPGZ7G8egsa4BCzNd68Vj1Z/x5tb+C8NMTQ3xaKsdvdFBxRpfzqYhJ7+aFXzGCZWbmYeH2UaDy3202MqOogJyAk4uxeJguCp90WZEzFb0+4BJMMmciSYjBOn4rrM+fh+ow5GKXjSQ2NGM+bw+xY0bYbt25/BVd//zDePrQO5e5WIdSBhzH+wZ7sIWu9HJZI8pvW0fqIAEsdGIIynaeimnr5dZ/fh42mWkSQNtyTfxkuz5o+JJ6cSgQLhOd0WSj8QIzfc9HQMU/mf1G7AS9u/gwl+ha00zjKvY5XBpiprfzm9oKxs3DJ8NOQrY8WE+qMwbac6/6wcgPu2PM62gxuxFnC8OiZN2NGWBqixARi6KC7h6AcBwx2LLa2FmOXo1pMZBfoUzBpWD4xNPTCZCbxxuziMIkfActPOPjFJTK1dJwfkY45eVNwckIubPWtaGpvg40YbtVL6DC6sauuBF+WbMD6un3QJUaQpYkVHXEwzx/50dc3lduxrr1IPIR3U5/4tngTdjeUIW94LqK9vn3gDTHhFKCkgypMHnn2WCqxrq1IfG8nTReDM9LGEUNDL8xewSpLTGI+8ZPEGBJtlikBp2dOwISUfESQRrbWN8JG4z4vbWnWO1DmaMCaoi3YVLsPtW4rjLGR1EH4qwr9C5ZfOP6oZB12O6rgEg+3qaPoXSi312PlgQ1w6LXIjE0TM2beHm6ggmQEVZjc3yqczfiiYZtoZjK55OekThKacsTgxSQ+5FFFr2HN1SPHmIAZyaMxM+8UCqk8sDdb4HQ4xBdQ2klTyzzNWNtwAF/t/B5VjiYYw6OhN4bRnSwIWaxcnrejxGb+vaofUOysE159qjYGko20nzoKL27bWHcAB6pKMHIYaaneJCyJbxmHi6AKk3tag9OBD2rWifNorRkXpU/rHH+GFOog6sMjb6bxEZvgJDJ9MxNG46ysKRiZko3S0hISKg8aGjjJBPNrF1utFfj84Aas2r8BklmLxOhh4rqWymOxclkslA7S8DfKV6Pa1Sq68D0n/RSjopJxoLJUrHuykVBL3I34tnATRpNlSDbQSEqdKxgIqjAZDZIVy8rXwcbzkh4PFmedIcavIQdz10eQfiHGKlkgERo9RhqScfGI6ZiSNBoGnQ71zfVwuWkAoTx2oqlOb8O39XvxSdla8dURi8eF+KhE6HhVBeVpJzP7fMmXaCWDG+HW46dZs3Fh0nhMTz8RFY01qLM0keZLaAlzYG3ZNmTEpCAnPFkoQqAIujBbyAX4pHgt2vVOuFxOXDXiLPHMMfCmBgBl3PSLznQPCVRe2mkioaaZYjEj8QScR9o6TBMFu8OONnsHXKR5vAiNFzaX2Oqwum4XlpX9gBJXA9GrgTvCgBcLPxezPwkuExblzsJwXTiSw6IwO/1k6El795IzZKWO0aZ1oaiqDJOzxiGJrJi8QqmvxvaNoIYm3I4yTTuu+s+9KAxvI7dfg5em/Q9ONeeH2Cn3gUqRWqUvf3yv9wF26ngSn0MOXv/7xrbPsLJuNw4ZrOStukQ8yUtReIKCY2wuu9XkpqIlZNij8PKcPyCf3C7Ow3O17RQ0fVW3E3dseQHNlI8/NXN+xDg8OvlnAT8kC65mUmN52cbyPd+hlojlkWRseBrGRGdSQ4MzLgwILCRvQXkfM3yv9wGmQQ13ErURmJp6IubkTMa0xAJITRa0NbaJR108FvK0oc3AES4VTv8dJLgNh/ZiQ2MRak12dJjZrzAhJiIeHfFa7KkuFgvU+GMeF2dOFWNnZ7N8OqDH07+TFFzNJLTQmHHn90vxgX2HaNAV0ZNw56TF1DePwLipwIcvXej1gozulxU28VpO+s8ia6G/FVIz1lfswdqqXdjRVI4afTsJVRLZ1HsMFGzyancTmWGeqzCbIlAjtcNCMS6HLjM0mWJNrRyB+sc7776PyxZcopz5R9DVhRdLnZCWS72EDA21rKi2gkgOxZTewNEbgwIBewEJpLPjNEm4NuM0PDT553hm7u0Y7o4ik8prezWIdOgpjtUTH0jwRidqIp2oiLVjv6lZfIuPBZloM2JO1mTyqv0LUulCaGttU456R9CFySYpPzldTGyzMJukDnRIdrqiNusoQj9S7n6Zz2jzcw+LgReKJdPGXyJjpvLTm5tPX4j/mXAhphqzkNpmRHKHAYntJiS1G8Q2vCUMvxu7AAuzTu0q1odNavqiRVcoR70jeGZWKYUdgkKpBXO+uUuMBxm2CLxy1i0YqY+XMxzHOOBuxlVf3odyc4dYVL3sjD8hVyu/KW2V3KixN6Hd5aAzfhlKQlpEAmI1JmHN+ptZGgiCp5ncFtq4wChNOCJ0JjqS0EYhSocg4PiHxWmnkExez2DWGJCg5WlAXkytJaGFId+UhPGRaRgXmYqTaJ+kkT+SGAxBMoJuZhnsYidRXMWeYIfOgTaK0XoFUx4c23DEYXVTx6VwhYeYxLBIwQcVLC42x/w6BA9FPObKImTiu3yKQFgREmFyT0s2RIvYij+22+hpJR+3l2YqGn2sg+PRRmeb+HQ4051klF9pFGR7kd4VXqiJfN4lhkBYERJhchASj3Dh0XKfK2+pEouSj2fwTG6FpQYSSZLpTqCYlMdCIR0vCfXLBR/hDwYhEqaGxoNoQRQH0BWtdRRAH9nwJNTg9UQlDYcgEc0cliSJTyL3hUB00D+CKky1U7EwM+KSxfjAjT7YzMI8vsH08SIuhtZDnmpUPPGhJ3u7RNhL5/bR5MEgqMJU28E9MiM2SWgmN7q4oQIWMdF3/MJOXkFZQ7U4Zp8hPSapD+ayIH2vUtphmlcVQRWmCu6RmTGkmdxmkif/QlCDp0W+6KdHqhp9LKMRbcKTZXr5Ff7shFQaM7vY2z2c98d2SuO+HwBCJEwgRU9mhtrPRPBcZW17k3zRT5VMQ4B0HHFUtTaIiXYG058WltiN0v4myYOB4AnTR7VIfjRuJIpvAvArAw0drcoVwrGuhn7QYG0VK+c5LBkeyW+DqnHk0CG4muklJF5OkRXFThB/T09CvaWFDOxxKEUF9dRZ+Tt57MmmRXbXyqFCcOv06opccFb8cPLs+KGshBoHv+WhCPNYt6k+4Ffx65xNgk4eL1Mj+3J+Qofg1ekjIC44zZMgNJNR3dYknth743jRU/50DptZBn8zLzts2DEuTJaMl3R4xEgwRMoeLVXTZG8XwvQW4PGgoEwPr5avFg6eVtDLn/EO1uT5YBBczfRqP08cJJqjxPJ/DkfqLc2iBx+P4NmfJhtrpkcMK3EG/tz+sSxML3A4wqQkGIkoxcy2Oa3gV3OOR1hp1Gy0tYnwg7+ll2hmYQ49gmtmFbCJZc3kFe16/oQlgVeJF1krfILnYxeSJEwOwYMyqUYs6mLaWDP5235M/1AjuGbWC3zKD2hjTfyBeYiJg5L6KrrQlfHYEKv/VnZNAmhRVHNQhF9MJ//aboyWf/Vr6BEaa6BQwoXn8Ce/3TqhmZWtdSL92NLO3toqE8kuHf8qLs/+cFiSl5QuZoCOBEIjTAVsbkcNy4GB/B5+z6KyqZZcIP6IoXpdBrPr6BVv3yzidlc0sZmVxELonPjU0DK1D4RYmECe+Bg/P9ckJ8hjRYckr5HxBudTBXssgelgD71DPHonYdJ4mZ+cQbQcGWpCLswR/AU7XrJHxHa47Gj38O/YHYNgyfn0QhZgG9HT4bQLAfKXVkbpso+QKIdAmBFaPSL1vFJPA4uHhCmF+sMtIQA3mInpJiX+fBXQ4SHNdMtzW+F6I9E7pG/VdEPohanRw6Q10pGEVrcVtWRqZc2UXfljAn6lIw8dLdQ529zy6sNw6rRM73EpTJ4FiSbNjNGZxdME/jX4x3e8jWJXs1hmMRTP+EIFHvkrYcGzxR+jPUxeRRGhCUOk98s/Q4yQa2Yk9dSZGeMQadfBTh7fupZC/Gb1k1jRdgDVsIlX5YR+HiNKyh+gaIATP3SU447vl+Lzg5thpbAkwqHFyUm51Hn5XewjI86gvwXmCy68lljwx40v4rPmXeLNJ16BEOUMQ549Bjed8RNMDJd/c5NXfjMr+u1hXGh//FKponz+sjPZsmVgo997jdzVeJTn1YU8Mu6zH8KTq97GVm2N+JiFh7/C5dJgsi4TD8+8CRlEBRV+RKxOyIXJcFMNFe52PFf8Gd4q+xYW6sn8fT1exRbm0SHLkIAJ4TmYMqwA01JOQLxeXnPKLJa/8CGbbGbPQOToC+97VGJ9y+Jj9k75UQCbUBYiP6ds9liwue4A1lTsxBZrGUptDXBoKVrWQXRK/kD/nJRx+J/8C1BgSlCm8biD8F4tfWgwJMJkTvGDW/7trBVV2/BKyQpstfAUmEt8yYvHU34OyJ9J414+KjETJyVmo8CYgXRzHFLCYzDMGAP+rjoLVmZTVzTHe1Uw6qaCp/xlAr3/ynvFwIu/HDDVOVtR1dGMio5GFErV2FR9AHvryuVfbKBNzL9SA0iWMLi1JLxhWJAyFRfmzUAs2ZROP5YL9G7EEGFohKmAK2Jzxd+I3tRaiGe+ew/79U3ikyrqLxDxGhr+eUIOwFnA/FOOPOmgIwZmxg9DbnI6MqISkRqTjCxdGszEwjCtTmgyv4LDP7+h9zJxLiLPJrHYWOvIXHpcFOg7USodQlVTLSpb61HUcAhlDVXiUy/8OgX/OA3/MgP/hpmbBcgFcbuogdFOA3Is4fjpjAswK3G8eIlY/l0TzsUbd7cjgyHTTO+eyqc8Z9JOTD1oa8L2pmKsKtmE7Q0laDFS3EbjKgvXF7xIjANzXiTGTyf4JybYrJnCDESIrKkmnRE6L2G66Z/Vxd6m3FmsTgdZAzbzdE58d5DFcLPZ51Z53ScsAN3An2GLtelwQkw6Zo2chHFRuciMSBDvY/p709mH1CHF0GlmL1RyMj/c5S81V6EVBxorSFMqUG6tQ2lTFWo6msR0mY1Ujyfr+XdTxISSF/jUmwjf8x7wysB9hk0m/zAb9SOYPWEYHpmAjOgkZEWmIDs2hcx+BlKVn4nkr42J6vl+n3YwekkeEgypmfWlVFStaIM3A9iwdZBGsYAttC92kxlsqkZ5U434lk6b0warRAJ2u8iM8ncBPELjVELUsjoJI+1jLTPpedQlk0xm2UTxr4niwuiwcKST+U6PG4YM2nJ0wxFNhpMFp34SzbttPiQcVRhaYTIGyA1/jRItpXv5e892GgdtJEgWoTwu9pzA9wZXaaSYN4w6j/h6iEYHA42vLF71ujcOX2B9hzqhxNAL0y+4CbwNnAnyHXLT1bv7gyog3nt7w4cDrk/c33ngH2q7AqlroDgqhNmT4J69ux+edUNoGDjA2HEwDQ0yjhLN7B2hEYwfhFIIQ0TEEBl3pqZ7n+nqQ7znXi+f+/Ytpr8bD7pfDgjdigolo3sQERocmZGa0H3uUn7DWjC3W7ovBiDJXrMMshcMMrt8g89Ngy4jMBxRM8sVV1XXYO++A9i2YwdaW1uRkpKCySdPRF5eLqIiwuWMnRiAp8iF+u0PvV7wj8FkF3n5D2MQdQQZR1SYTz7zHB586FFYbVbiBwuKWUFBOYUM8bHR+PiD95A3IlukHy42bdoCi9WK006d7ldATH6XlfBxcgYjUB9s274LFRXlOHf+OUpK6HHEhPnMcy/grnv+IhTt3HnzcMmF5yMiMgIVlVV48aVXsHP3HiTExeDt11/FSWNGyzepPO4mAG90577VasMpU2Ygd2QePnz3rcOVyyAg18/rvqfNmEmWpgW7d24dgnoVsDCHGmRapaz80VJS+gjpr39/UPJ4lAsKGhqbpMkzZkrJdP3aX9ygpEqSxWKVvv9hrbR2/QbJbrcrqTL2HzggfffDOqm4pEScu91u6bMvv5bSskdKZ5w9X/pu7Trpe9pKS0slieprbGyk87VSfUOjRJorffv9D9LHy/4jrVi1mtIaRBkqXC6XtHbdemnT5q1KShd279kryj548CCdyYR88NEyanuOlDvqRHGNt6JiuV2hxBER5iP/fEIQmzNytFTnwzhVrnsPFEvDMkZI6dl5ktUmC27/gUIpJS1bys4/QaqurRVpKn51082izFtuv0uc33n3n6Vh1BmS0vNEpxmWni22u+/5s6jj08++FOdPPvu8dN7FC5TrOWI/6qQJUm2d3C4P9bTmlhYpc0SBNGnqaZ3tU7Ho6p+Kex586BFxfuWSa0U5XKeoN0Mu85bb7xTXQ4kh8Wa97TiboB07d5Pp0SAnK4tMaXy3DGyS+DQ9dRgS4uPgcLlBWiNfo7HU48e8cn65CCpVub7g0otx5x230ZEHBSPz8fzS5/DCc89h4cLLxXX2nj203X//g2hqasaLS5fiheefo7wj6bwFZ8+bL8ZatTzOqzaT+KYcyeCJfzXl59deiyWLFws6oiLMWPrcv/HCv5/DkiuvlDOEEEMemjBv2tv426kSxoweLc79QafXIzxc9marqqrEnrRC7HuDd1Hjxp6IaVMmibR4GnvPmXMmzpl7Jk4oKPDKx8IH3nztZcybMxvnnD0bzz37NHRaLaprarF9+w4lH4PrlutXBdzZGn62pmDm6TMwZswoyuRBWFgY5iv1jh5NaSHGkAizi1QZslA0RKz4IJmcwUtOfCo2hWlOJy/gGAi8CiGo5fQOCePHjUNa6nDlHMjLzcHYsWNI2yQUl5Urqf7LUs/9OWMiPzVHXOl5OSQYcs1kqBp3oLBY7AV8CHbxj8bYbOI4KSlJ7PvkSXc5CnCSHPD0AuJ2fLz808reyMjIEHtyksS+J7qX6s9gqGl+LoUMR0SYI/Nz6a+EPXv3oK29Q070QVNLC+obm4TJmzZ1qkjrSzDkJClHgwC5DC2tXp+0UWpoaWklOWsRER4pzlXwd/FkyItEGDzR0SeGUJpHRJgXX3gh9DQmtlMc+NU3K5TULtjsdvzulj/ASc7PlMmTyBGKEekGvfwFV/Iwhen15tPBigrlqCecLm8z3Z27u/fsg406gpyqRUdHBzZt2kRWQCInLEWksk1g56uFOhj/YI2cAnRYOrBtx046Yjb2tBv8iE59TDcUGCJhMgNkopjkE0YV4JqrFkMixlx/4//i6aUvopmconZi5KHaetxw46/xzcrV0Os0uPGG61klxL3p6akwGgywOuz44qsV6KDO0E4e59IXXiUPeZev8YMhzAA9afYeElhtfSNpr00IzhsU0+LeB/4Bi8VC5Vnx6ONPobXDCp1OixOVyQq9XofIiAi0trfj2X8/L8rpsFjxwitvUMfr+U3A6Bg23Ro4nE4cqqoW+dkzDjnkCCXU8I3OJKm9vUP65Y03iRiMJwd4EmHk6PFSKgX5SWk5FOzniSCe4zxv3HvfQ5Sf7snIlU46ebI0ZvwkKYViuYsvX0Rp2dKtd9yt5JSkxuZmEbhzvDdi1EnS2FOmSjf/3+/Ftf9QnMnpM8+aJw3PHCGNHneyKGsYlTs8M0969/2POyczuA033PRr0daUrFxp3KQp0phxp4g2/v72e0Q5Dzz0qJyZQEMHlTdRtGfkmPEi/1XXXKtcDR2C/vNR/sH6qJgbHnfov8FAbvu8uZg4cQLiYuMQFRVJIUQ8TjzxBFxy0fm4796/YSqZWF9PcdKkCUhOTobRaEBMVDTlPxG33vI7XHbpJfCQOZ0+ZTJGkeZzdWaTCXPmnA2X0wFzRDhyMjIxd85Z4nphUTE+/HgZTj9tBu79659JM60wGY2YRO35zc034YLz54uvjDG4DXPOPoucpXgYSdujoqIwfvx43H7bLVhwycXoIKsyfdoU5I7IEfmZttNPOw0OO9VrNiMnOxvz5s7p1PRQYYjnZqkqRZi+8G6EHJ77yeQFJboR6DunjM7sSkWffvE1lvzsFzhv/lwsfeZfciKhMw/Fid6jELPJN77sr16vJg4JQjJmMhHq1h1EWi/UiWRmWNdZn2C+cq6eObuPnCo683ndxMLxFky3PAprOq9TXh5vN2zcjI20uWg87EKv1HaDbw6/euQnaaAIqmZWVVfj1dffpJBjP9xuN+LiYnHKpJNx/rnzEU1mlMG1fbJsOVauWYPGego9dDrkj8zF4kVXID0tVeTpDRs3bsLHnywjemU2sUccHm5GekY6Tps+QzhIA8Wnn3+FJT8nzZw3D0uf/VcPxvtDIcXFp55xpjjevmUjkhMTxHEPMEf7LZA6Hc+mUj4hAiV/QMvMWJjBwA/rNggngie7vTd2Gi5d8BPhAlXX1EqTp58m0ngCOmNEATkvPAk+QsobPVbasm2HXFgveOmV18S98gQ230d1pGXRRo5JZq50x91/6uEwSZJb2XfHipWrpQnkEP32ltuUlP6x/0CR3Haqv0aZiGdwjV21qvUp++4X/aKktEx67PGnpObmFiXl8BAUYdodDmn66WdISSSgcy+6VCqvrJZa2zqkT7/8RrrksoXSilVr5Hx2hzTttFnSJT9ZJO3cs1fQ2NDQLO5JIs8vf8w4ye2WKfdH/4skTO4g4tHSuk3Sug2bpQ8/Xi5ddOnl0jDyQPkaCyk08HgJM1uq8xLmoOFDHMXUosyS0nIl5fAQBDMrUaBtwclTZlAc1oF9u7chSpmuY4jCqQrVeWhtbYOZrodR7KZi1bff4bJFiymfBvt2bCbvNtavpXr51dfx+9vuQlx0FHZu30xxaNe4duGlP8Ha9Rtw9aKF+Mf994r0tes2oKqmFhPGjUV2ljxFx+AZnm9WrRHH8+eeLTxjFQ6nC1+vXIXNmzfD4XCgYGQBLjz/fESEG8X042lkZpmW7Zs3IilR/kks6n9Y9p/P4PG4MW3KFKQMk6cfuV1bt+/EV199jXaKUcePH0v1ze2sj6/v3rMf88+/AFaKV//2p7uRmJRIvNGLdmkpRu6J7o5ZNwiRBgSPRMKkuEs2sWs3bPGrVZ3wc/H9Dz8RpnM0xXkOh1Ok+SuDzSzHpAWjx0lOV5f55LyX/ORKKiNHevDhxzrT5GeL2dIrr70l0lRs37mb0uUhoK6uXkmVpLXrNwoLw+kcy/Ke880770JhMbw1s1a5j63SwsXXiLTFVB91AJHeRDEuP1jnGJavpSj3nTrzTGnz1m0izzKKo7NyCyh9hKBLtImGjILRJwkr5o0ufvjjjIxeRDwYaGA0GTFy5EgxeF+1ZAmWffY5mprVD+z7gNSNp8x4ZqSs/CDWfLcW995/PyLJkfn3M09Brz5J6RX8OoIHxSWlKCouwb4DhXjtzXexccMGoSm//Pl1Sj4Z/OPDffm3qjPFnirPRhUVl5EGjcPzzz2LF59fiisWXo7bb/09aQnnUzf5L8/s/OqmX2PFypWYMX06XnphqXDKGE89vRTL//O54MsXn3+KnTu2Y/GVi1BYWoJbbrtDaOXEiRPx6CMPi/xc3r+eeALvv/sOXnnppT74INfvF4pQA0aHxSbNOvscoZ3cy0YUjJEeeOiRrn7k1aGeW/qClJ07ihygkVIyOTILFl0jVVbVKVd7h6yZ8lP89Jx8sfEsDJ9ftmiJVFXbpWWqZvJM0cuv+9NMWVNUR+arlWtEu6effqbkcMrWgeHtT+3n1Q9Cg1gzG6Tf3XqnOJ4x60yyTlYllyRWRqSTc5eaUyBRZ1NSySWismbPnS9orlHaWn6wkspgKzFCKikLbMwMgmbKCDcb8dF7b+HxRx5CXm422mkc/ccj/wSZFRQWlXTrUCNG5GA+hSuzZ5+BnOwsrFq9CudfdBFp2NtKjt7BxZiNYbjm6iW4Zsk1WLDgUuTmZGP16tVYcPlCMbPjDZKGctQF1gp+3Z2hMmD58uUi/dQZ08SYRbwR6cpQr4DTeOpcg8efehovv/Y6hqek4P2336QQib91JGPLtu003tqpbAmvvPoG7r3vQbI+D+I+2tra2lmDsGHzFiU3g8v1bz8GBVmmwQV35nfe+0CaMmOW6O1zz7mg00tVwWfc63n/4qtviB7O2wGvnuwLOTTJ6RwzRRnKtuRnvxT3z5g5m66RIaY01kzWWl/NJKdEqW9Ep1d6+ZVXi7x/f+Ahce4P6pjJ+VjreJ9XcJJUeahaySHj4+WfCrrZKuSPHk/tHS+NpDYXjJkg5p95vvbj5Z+JvLJmUpnkzQ9MM5ky/whYM+X+2x3cmS+95CI88c+H6diDbdu3o6aWv2jJgbLIIvJwr+f9VVcuFJMHvJamqIS0eAAQ93tt58w9S2hMdVWN8Bxl8JUuqG1tE8tWGLI2cHpMdLQ45qcnXehdW6ZNOQUXzD8HbTT+X3/jTXC5VV0HIsTibUn4Aet+WI09u7Zg766t2LNzM+3peOcWMY14eOhOkzcCFiYX3ZtAeZKZwdeFm63MePiC19uQ5ooHwiaTSZg43vxBTe28qhzs3LmX/mpEPWFhsuuvhgCNTU0im1q1/LiMjKBqSmmbOXOm2K/fsLGrbH+NJbBL9c+HH8Tf//onEpyZ7tmAhx99XLkKCoXGC4fJarejprpGlOJv86aR38d2+xkSBoOAhcngp+0Lr1yCJ596VsRoGzdvxadffIU//umvgmlTp01FcnKiiAP/+Od7xVTaXvJCi0rLsILivd/89hYqRYMIEv7oUaNEHKfGpf5gczrx0SfL8MHHn+DNd97FXff8Fa+98SaVIGHhwssoJjQLZk2adLLI/9JLL2PVmu9QerASZN7w7HPPi+veU2fnz5+HmNgobKbx7ne33oEt23dg+849ePu9D/DgPx4ReeQ2yffws9KkpAS8/85bNF5GEO3P4OsVq8W1uNhoLL7iCrhdbtxAWsvPZqvIMpVVVFKeVXj62aVy56LyomNjlI6uwWeffYGS0oPYRPwb+LonL1DvCBgcU6Vmcawkx268tlXsM3KkU06dKZWWV4h8X369guKuXDFWqXl4DOQpvfGTpkpbtvY/nad6s/K9cjzI57yW9rpf/KrbiFJxqEo6aeJUuq60R9Q5gsbXG4QnzecizlRueurfz0sjRp0o2qS2n+u7bOGV4voBGjPVeNF7Bugvf3uA8uZKYydOlhoaGkUaL64+a+65UooyMyXam5ol9jPPnNvZTo6Wb7n9bsGDlDSZL/kjR0vNxNPBIigT7dQwFJaU4ZNPlmMHxVNWqxWZmZm44PzzxEtAqrnjcYXzffjhR9izdy9slC8tLR3nnXcupp5yMswUr3prJDfN+3z7jl34ZpXc+xnccH4GmZmZhWmTJyE2Jop6uXxN1iANOmgMfPGVN7D2h7WIouuLrliEKZPG48OPlqGyqgq/uO4ahJtoOODsVGBNXT3eevc9bNxI5pas3uSpk3Ht1VeStoeL9bUvvfaGKP2X114DM1kABpvHN996D3UN9RiVn4d5c84W5fGylx279uCdd99FcXGxWMg2neLRiy84D4kJXT+ozvk+JN4x/5gHZ82ejUsuPl/4EYNBUJ+a+EKYEvlQwFc4PcFjhiyN/vP6wLcyL6gEdrvcR35G5+V+8vWF3m71nx5ARQqCMmb2BrVp3Ez+q+l87a07OFW+ws2RnQBZkHzs7x7FUei6UVTmLyeDS+pkk3pPZ4J/dF4WB0p9XvCuqzd18K1CzSb/eLMv+mnQABAcYfZCTCcEtdxYqo4PffLzFZWUruWMDG5e13mXEVGaLW7sYox/JvnAq7KBGyVvNrGn7e5Wl+h3XnT1Vm4XJYGwvXcaD8vM8i2ylh1Go/i2Lqo6z+UyvS8MFL4FDhL+bj+sIvkmRgBt6QMD4c9hdRG5UN5UAgaPzjtFpzhcQTICZZ7ckm6UBFpkAODJQn9cHQh/QuoA/YihRSDG+0ccZfhRmMcNgP8H9+luI3ZIT+AAAAAASUVORK5CYII=;" vertex="1" parent="1">
          <mxGeometry x="230" y="-2270" width="74.22" height="91" as="geometry" />
        </mxCell>
        <mxCell id="yCuCPkyOC491UmM06Bov-8" value="" style="shape=image;verticalLabelPosition=bottom;labelBackgroundColor=default;verticalAlign=top;aspect=fixed;imageAspect=0;image=data:image/png,iVBORw0KGgoAAAANSUhEUgAAAGsAAACJCAYAAAArM8aFAAAAAXNSR0IArs4c6QAAAARnQU1BAACxjwv8YQUAAAAJcEhZcwAAEnQAABJ0Ad5mH3gAADnESURBVHhe7X0HYB3FtfYnXemqV8vqlmwV915xDBgMGGzAdkwPIeGFl+QR8giEkgABAgklpJBAEkoIJISEUAIEiI3pBGMwxlUuuMjdstW7dKVb9j/f7J179zbpyvZ7/xPw2aPdnZ05c+acmTNnZmfvxhgCfIFBgVjv8QsMAnyhrEGEL5Q1iPCFsgYR/Mo6KjfDIyFCRkaHuTXovJkI9egL/SY/CpqEzxv0eAy89+/3lfiVBmNjkZycjLLhpcjJGYIYxvnvmtAFmjf9YHxw3LGgX3qBfB3v4qPFug0b0dzS6r0C4uPjMWTIEFSWj4BdzgNhCm/37r3Yu3+/XJkcx8XFISUlBcNLhknebG+sWSOfsnp6nBhePhKeGIlUSSgAJovBrJkzcNON12P2rBkqLkRpRwGTVb9QOzo6sX7DBkyZMhmpwuwxo0+NHSP/YWgzasn5F+Gj1Wsst3hmIC09HRectxTfvuJylJaWmLe8uOfen+M3v3tIUgkFUUWMyF9j8uRJ+MF11+HUU05S1z6OtfCMGANzT56DpV9egjlfmo201FR8/PEn+Np/XIGWVt1qjk1R4bBy1SpcdMll2Lt3nzcmCJrBSOB9a5qIihIYx8h/BNps5GKgcOKcOTjvy1/G2QvOQumwYukIPXjsiT/jpHlnYmf1bm9qE4bQItuZGWk4XxR63tIlOEE6R6rIff2GTfjGN/8LDkevN7EXXY5eI694uAoffPiRN9Yw6hubjFPOWGgMLS4z7v3lryXGY97wQnqkUbV1u7F+0xajs6vbGxuKHqfb2LJtp7H647VGzeE6RUVT4vFb37nayCspNzZu3hJwj1DX8mdX9V5jzdr1xv5Dhw2nxLm99xS8J/qax737DxnrN1QJj71mpBednd3GRuF367YdhtPp8sYGgvn3H6gxVq9ZZ2zbUW24hQFfWWHAe4uWXqTk9N77H5qRAkXn4CHjvIu/KrItMybPmG20dXT67t11730qft78BSpOo0HkPn32XEXvqaefUXEBTcxsmKJqS1fMyc7CnNknqPONGzeqI+Ho6cUPbv4Rxk2eitPOOAtnLTgH4yZOw3e+ew1aW9u8qZiuB3f89B5MmDQF804/A4u+fB6mTJ+JmbNPxOsr3kRPr1PiLsRLL7+qxs35Z52DguIyTJg4FZ1dXYoG702T9HPmnoJzF30ZM2fORtGwESgsliDHF196VbF9Nu/NPgk1tfW45KtfxwlfOlFoL8WhmhpFp7WtDVdfez3GC8/zF5yNU0+fj4nTZuABMUNWvPH2uzhp7mlCaw4WLVmKU049DZVjxuOOn9ztTRE9xFBhWFEhfnb3T2SI8aDmcC1efXW5966GJGIXsyBb5D50aI7qxB6nW8UFKMtMLnbT1JrWHlpamtUxRwZLpnK53Pj2f12FJ/7yFBKSknDhBefha1/7qgyIWfjHP1/GQhFat8Oh8qz5ZAMefvQPsNlsuOqqK3HnHbdh4cKzEB8Xj2nTprFnY8zYUUiWcYr2+txzzsbXhdaFF16oBtvq3Xtw1XevRl19HR579FFs3bwJN9xwPWJibcjJy8MLL7yARYvOVqwaUp3GljYsPf9CfLJ2HUaPHo2JEyaISUmB2+3Bddf/EM8+/wKKxTTdecftuOmmG8WPsuHue+/DI398QvHb1eXAt6/8Dnbt2YfFSxbhzjtvxxXfuBwlw4ahvLxciyQ8fIILRfmI4Zg+ZSqlizVr16o4U978K+bT40G7jNsMjc3N2LBhMz79dLsMQylYsuRcldJnBrstZnDVR6tVF6XpeebZF4yi0grVVddu3KziPlm33sgtKlVpt27fYRIQo9Qq3XvMpOlG/rARxspVpin9/cOPqa58w00/8pkRHnt6e8wLAa+nzDrRKCipMKrEDFpx/wO/VWUtOe8iM7/8aWvvMMpHjzfypJytWz9V6XhvwblLjdxh5YqvLZ9uN1wul/Crcgk/q1UdeK+2vkHFEZ+s32TkFo8wTjjpVGUuN2/ZKtfDjREjxxr1DY3eVIaixRAJLGXReReGmEErfnLPfcbQohHGxZddbtZFcJfE5UqegpIyo2LUeBXKpOzC0nIxmV8y/u2VIxEy0nqkdX736msxe+48MRczcPX3r4PL7ZYBczEmjhutLOSWLdvkGIvp06dh9MhKb04gLSVZ9TK3dOlly15TcdOmTkZcbAz++vSzuOJbV2K1OCtSrriydnVfI9baKM1uoiACUj3Obk8wI6T8WJlWKAid7t4edWq2T/GpJO6OO36MMaMqpTfLkO816Z9IaxYBYdSo0dglg/wq8doYOPgniXWg9eh1OlFWNgL5ubligh1iSr8mfD8DGdeUZWDQXvJAoKuWkCB1EH7Yi3ww2UNsnB15hQXIy88X1z0VHrEEbrcLL774knJaVBrzoOG9FALxwlhhUT7OOGMefv/g/fjtA79CnMQxX119g0o0stKvKJogYkTpcFX+zt3VKu1UccX/W8xfRnoqli1fgcViopZecAn+/f4qlT4sTMkrzJNxKk5M5uo1H4vH+CEOHKrBv5a/Jh5SDwoLCzF+zBiVjmV5vHlOmzdP/vLCX736+nqVZtv2HcpMWkN3dzdcohDpH0hKTMSjD/0OY0ZXQnoZvn/jDzF11hw8/sRT6OjsFApBIrPCK1QNfellC9W7qtUxKytLHTV4f1RFGd5/+3W8/+4b2LjuI7z9xnKZ5yapRn7b7XeodEEls1958OBv7se/334Dry97BU8+/hiWLlnsK5CI9bZWp9Ns1QRjGFzSOnlMlEoTcXE2maNdhw2frMb3rroKKTLRXv3xGlz4la/irXffV2n6wtSpk3D7j24R5Thw3sWXYvoJc3DN969HYoIdf3z0Yelx/smmHjI41ln5JVSc8H3q3JPwioxzr7z4Il5WxxfwqoRn/vaUKCpJpZ05Yxrefv01qfsfpfGVoLGxCTffdituv/PuYH0Ewluo5sPKQ1dXN15dtkwiPcoa6Xu0BEqt8t+fPkbG21FYsnixKu85GWfZu8M2E2ayBit4XVlZJn89WLnyI1oiH3jKgZ2dfMqkiQF57fFxuOmH12HNRx/gjNNPU2kfePC3/vyS2BBhWsgJPOq6vqFBrQD86bFH8c9/PI83XnsVaz/+UMqYYCazQJdpCsGPkpJhcs/A5qrNMvGehBnTJ4tSpqgjw1SJY8MiqFSx3MLnqXj3rTfwyO9/i1ixKs8895xyriJBlyijQAj+/Je/odclnUGEc/aCBd5YsyxC88srnb1FHA1C0ZMQVlmB1QzFtKlTVYs+fOQIHnrkDzKmmUJd9tobYqKWwy6VPmv+fJVWHAZsFa/GLYaXabIy0jFcPCOCZtXLq/I03TI2rlu/SaWTeY1UwLz52OOPwyamMDsrG9nicdrtiRAnQwQXefzQQtA4de5cJAjPDU1NeOSxP8r4JGZP4hn27DuAN99+R6WrravDm++8C5kXqnsJ0oNHlA1XXmOcLU5iGNs32Lj2HTwEcb6wfMUbuOrq7+POu+5WY/dtYiUqxeT5oJQUA6eMzQcO1qjAfH/7+7N4+dVlqoEtWXSueM9StmhUgd5gvnhB9JY+EG+wP7yyfIVRWjFapS8bOc4YM36qOi8aXmFce/2Nvknk7x56ROJLjYlTZxhLLrjYmHvafOUtjqgca7z5znuKFtP9/P4HVP488cwmTTvBGD9pqiHzInXv2/99jfKyeI9p8oskXeFwY/L0E4w333rHR0N5g5Juj0xmw+HZF140isoqFZ3KsROM08861xg3aZqied5Fl6g0GzdWiRxKjWKpx8JFS42zF5+n6sQ8N936YymHJYWCsfQGTY9T+CSPit8yxfuYCVOMe+/7lSFTCDODF3crb3CEeLFmvVSQa8ooX/ItOGepIZ1BpfX1LDbEooICFIlHkhCy6BiKc86aj3feeA0nzJolnlMnmlqaxDxW4ok/PoZf3nevr8fMk8F+1syZkBk5PvzwI2zfsRMzZkzHP198HqedcrJKw6TfvfLbuPQrl0jrjcWR2lpkZmapcWbZshV4U1qnOHaoKC8Tez8K5ZUVsMXbpGfXSau9xtfWc3OyUVyQL86Rt1pBneB8GXs/eOdtnCrltrW1S6+vQqP0tLknz8Xtt92u0pdJGZdddpn05DisXbdBmXUuxv7m17/CHbfdIrxKW5feQNJW8qxD7pAckWG+KceiIowT5+fshQtkbH1IzP9K/OCGa6WHegWj4BHHKw3FhfkYVlCkHCaGCpnPnTn/TDzz9F/x0j/+Dps3TwznITQZumAzWpuXsFbS5NJSJlcpaFgTEu2+aFZIa4x/OUDSNaaXaRfTEglc0WBemixOICdMnqa8p5eefxY5ogxddI/QW3r+RZA5Hz758AMMKy5Q+U0wFYPmn/Wx1EVuOWXs6RW3n46QTSvXArLPiT3LSkoynaXjAdbNb6KD+PJC11FD5xHHzozmX38CEggl4oOVkiBR5g+JFkURpGulGR8fK55gkl9RWp5BoJLo6TE/PaiGphYMHZorY1W2um82K0ME3atcaQqbyzIaqpGoUq38B9VFbsdLz0yReWE4RRGkkCxKClVU5HEyGsQoV1FXPDacCHwy0/DpSCoXkj5Q+5EQvlX4wfuk0R8dE+HK5GRw9kmnYt++/TjzzDPUqjQnllXi0f32d7+Tlt+DRQsX4tGHH/TmCAQrFrH0Pm8K+rvfF8g466LzK1qmvKKTrRV+Of+f34q2c9du/Oi2H8sk+t9SabNfsaojR1Xi+9deg/kyDUhSKwMq+Wcag2LfIBmkQ9DQ0KiWmjKyMtUUgFA60hr8jGNQKCsYZHlgpuSzgb4Gnf/viNSOPo+KIv7PKmtgvefYPLTBgkFpBj+v+D9tBr9AIL5Q1iDCF8oaRPhCWYMIIQ4GL7ilkNs5+Rw4Wu8j3OITfTk+e+VDbPOx3mcXlJNLQqME75bMiNA+brBsdTyPXJHMkMAnaL74YGWxoDVNXbjhw4PYLtpyxVrFzKQ6q4Y/u/msMIZE1TUxO8GBZ88ajzS5F5wzvIoHJ1iT/b0GzvzHGhxJzLZU1r9EFgotJ+tdAwmGG5OSDDx4chkqku1KYUSIpNib/rWdiopBW3wKOuMSLSFJgj1MnBm6bAyBcY5Yu2LJrz4rPjtWWNVR5oXdcQnojPfXnzLq8sqqI94bQmSnr824ZpF7VacHa+pb4DTJK4RIi4W2uVzSo2K9PSUQMRIZKz0n1vBYAq+FmPc6RtqZL17ykGb4ljXYwZoFTshNOWj5BMrJ5mFww+aLk4m/0NAbbChvnjLWFROPLiHtvaUQYgZbJNyychuebEhQrcSKIaLnb03LQ67LkALNbOZf89lVIGkiBvmxLpxdnC5dm5efHbOnqmppgbxsl+q9uKdFehaf2ZkJuDslUo2d0hMPx8fgkU/q0K6MnZZfDNKdHbh7cha+NiIXyTo2srLsqvsSmqcUVzcuLEnCTVOLkCvX2pb2BTLKTQJ+ZVpq+BkDmyKdDB51La3nGrymeTso4cZ/78HbzYDDphVMBCvLlFvEZq5uCFW7x4l4GfBYAMek5/d14f6PdoOvHlBZVGdfgSz4mQ1kO6CVDDKE450yY31Zb1oSBnrDtE9WmTDdEbcHNy6vUorqsSUop4yORZwEK8xyzL8RlUXB0pamObuxYHQGsnraVWxHXDL+Umvgtne2gftyfaRNehawTfkjQ24LAlU3uBCRd11RJvAmsqZljzok4fuvb8VbzlRRVDxiZRzLdbbj4tl5SHb5N876YaqpD2WZg1+qy4FvlGXgxonZyHJ1SpwHnbEJeL7NjrtW70GtpFQKC+GepL2RUgHf7XBa+ywhRA5+aNN3w7s78XZvCnpjRVHSowqMLvxidgFOy0xEkku/OGeqRpHzyqwPZZmgwrKlk1xemYvvVSRhiIc7fgx0io19qsaFe9ceQL2ks3bewFFQ4NdZn5X5LEMpymPg2nd24fUWGxzi7cXKdYGnC7dNGoIFBZlIEyGaszKBcsa88MqsX2URTMS9RVdOGIb/LktEpjgafNbUHp+Mpw44cNOq3WrmrhUW6TGUjiY7wfocrIimHk5JRUV98/XteKctVhp6gtqePVRM372z8nD+8Bxwk0Ko2AKpR6UsggkzJXxLFHbj+ExkOjrUmNZuS8YrtW78cNUe1Ml9aw+LBDIVQZ+DDuYcKbLKTNMXg2vfq8bHjngZQuwiSwNFoqhfzy3FgnzpUZJGyaMfzYcoixF6kqZgmRmzEK7z0SReMz5b5lvtqhe1itPxUq0L94hJ9I1hnxcEtLpAafvc83d34e3WWLW6Q/mWitxunVGAM3NSAnuUnASQC7qKumeZiFELssokjsrFFZUZqisT7fQS9/fgHnE6ou1h/TSkQQQtVH+NqKg94p5/b/lmLG+1iaLE9Mn9ImcbbhJFXTDM0qMsIIWAzmJBiLKUw60oeMmEycklFZrEa8cX4Kqx2cj0KqwjLgl/OWLgVnHrgxVmvmcSiGBGBxNYmzCSUX91j7pe3PM3nWlwiNfHJabc3jbcd3IJLig2FRUJSv7iDQbLJ2LP4u9hBMMXI1RIiEv435Ie9oMJplvPlkMv8fm2BNwlE+cjcl8rLLTowQ1dm2ApUVGcR934npg+cc+dsXEy0TVQ6OnGL+YUYn5OKlJVygjQw47VG/SiXzPIXqQZCxY3M9Mkarc+Sxhies7D/nrYg59pt17XKLhmgxyUh1Um2uu7RtzzFVxCojPh8SDf04nbp2RjoTgT4b0+C8LZQG9Uv8rie7rB2X2ylxZD5Vjd+gyX+dsVNIlP7XfgZvESG4WGm5OvPrkc3FCmTzoD3fO3W2PUuipfQuCYfs+sfCwtzQk7RkWEmEGf3L2ZIirLVDD37qlLH6ggHaX29cl/EuEY9m3t1lucjpfFS1RuvaTty+nwMabAq8CYiIgy2f8k9Bh17bu7lXuuFCXXRb3t+JW45ws54ZVrrv5EAyV7ZQYDKxeiLC7Oprl6kOtoRn53E7IdbUi0lKEfhgTDahKvHWe69YTPrf/k4DG59Vp9IbpR7ITE9o0BJg9EYGatqBvf3SkTXulRdM+lQZdKg711ZiHOCnDPw8tOI1mEk+NoRZ6jCbndLUj1BL70Hfax/s5uDw7ExMIttFNdwPgUPsvqG6rHSXo+euT+jfs3H8Yfd7aiLk7alLSS7J4O3FISi2/PGKVWoQcKepNsKMHVJfNmi41oJEJhZgqBWYe+BRqMDgm3vPoRnnQOUYvcXC6ie05F9ef1WUGW6JBtk1GkS+ZHCVKlyjgDxfExvkdRIcoiGKGFwJew9U8paESoqxfm4zY+F3toex1+vaVJeYjjbQ48ftYoYcCmHiNEA2s5PGev5PMi/cxIHxn0/XAgDaqSgeecK/KcRz5rYxiAqgPQLaHK6cLXl+3AfiSKV+zA/WL62KOiVRSh1GCVs6o8m75w5hVEWGVZoW9ayJjwEogECrBJwlM7juDFT4/g/tPHYmyyXT3PMUECDOHFxPzs5VQITQ3PD/ZIyzvSjAOtnahpbUejtLl2w4a23lhxkW1odTglnZUp8zxRKp2WEC+t1Y2sJAPJhgs5Nmm16SkYlp6KsfkZKBCNsQVr5fE8GgWyBlTYyuZO/PT9nbhqxnCcJWOUeiFJ9VRLHfuRWX8IVVZYgow0Cx1IeRQ4fUOaCo5n/fUoptfKqRd/f2N9G6o6nFhd68TmuiZ0eWxqb4hHTDTbHHuwW1ojf9CSTDEukDvznBZCrWbLf7VHQvogZRgn8XStbYYbmWJuJuUNwawcYEJGMiZKzzC3ghlKccoAR6g8+SbPtCZUEhtkmGTHjH57Vv+IUAMLdAF9paIJ41i3rdeFP2xqwnvVNeJV2eEUE+qIsclRRCZHsqvp8Gj+Aqb/OhhUCueZKoklgaq1xexQ/XbpeQnuXvV0PNnVi0UTy/HVihRUxNv6nx8JFEnz9PjCSziisiIW7L0Rcj9MBpOw6RiY7S/UsDANe9+HXW78YuV2bOsw0BybiG5xf3mP3GmZsnckuJ1Icfcg2dmLRB5jPSjMylCCzs/JQiJ3ZXnLVIqVvF0uD440tYBP4mqaWmWyGgeHLUEaQwI6JfTKdTDzVF6y04GhMb2YMSQB188px7jYmKBtCmGr7YNZfqS7USCI+PFTVl9QiUNzMIam47HqZvxh4wEciMtQY49OZxfXNc3ZhaEyEo0emonSTDuGybhXnJmGwgw7MiVpquifomZgToZgsNcy0FTRzLbIRVOvB3XtTuxvbsV+aSh7m7vxaUMzWuJSlFfnFKUrhUt6Nooydzuu/1IlluYng7/gG3Xd+0GfcrS2VMFxMIN+RCw4wg3OxP66twO3rTuAlvg0JdB4+ZsmLXqY3cC4jATMGzsMc4bEqUcz9K7YssMN/GYr9l74Cgvfm61gCv6MJXmhQ/T24R68u/0gtrU5UeO2oUPmTW5bLOKk5w6VOdCDcyuxIDfR4ihFhslTWIn4EE40/rjAu8egrCBBRFBIeDBvDDb3GLjgX1uwR3qUW1oy9x8UejpxzZyRmJ8Tj2IKSaU0EUreyoNJMzhVtGxpIfDILSt7xXQ+d7AXf1q3C3W2FLVVLF7GsjnJHvz99DL4f3nDzMOgOAlbYJCsjhLHQMGbVXPqY5CMmVE0O/yFPnqDZqwG88bgSGc3DtjSxKOzScv1YF5uEl44dxwuz0tAqSjK7EWhPp4fVvZNmsEIjjHZDeSG0GWQCntNZVwsbhyeiCdlbjglPV7uGeKJxqOq3a16oglS8yjlVjs94G+YdQoR1jsQVj6PHkdFhSz6oGtJyA1xhtWciEra1u3CE9UNuHnlTqWwgHwCl0RwjOIecQ5p+RmJSBYlBYo9ChaDCfcBk92+aao0htlIMuzxyEkxJx30KnuEV61qujFuobVfIha9uAkXv7sXf9pbj08dHlVfKs0jhkuxNwAeI+GolOUXJNk2ueBfLk81y8maHhe++VENzn1lC24XN/yVmk5sbe9Vg7sPXuZ1bqco6dkd9fjGW9V4Uwb8BrmhqXuTesGroJ7hZygUgZn7hC6LfB4Wzfyj3YVvrNiOt2s6JF5EJXFsjBoslo3ymU01OGTPwEqZe9y6rhlnv7wZ311bi7VONzosyg3lJage/eC4OBjKw5LwVlMv/rxuD7a0udEsA3O32Hm2vnRnJ26dmo1vleYoT0rjtcZOLFrVpCa5BFtuosuJbI8DlSmxmFMyFAsqslAqAxcn1QmmyLxOEtmO1NYoBHHhIw7wcp/78tQtGsUYJXSase1i45Ztr8XqQ83YLeetMoVwivnTSHE5ULWkHPq7BweFja/+YzU+TshHbwxHWAoVSHI7kGM4MDoZ+ObsSsxNF+9V7mmO9fRiIDgmZVEkVNIHzU78teoQVtZ3okG8Ov1OlxBHkqcHhV2N+ProAnxvyjDfJnsinLKUDgR8DM4KZzo7UJGegjFD01CeZkdRZiqGZScgT4qgcWKwuu7h1EeSemWER5rpLomsl4v9TQ4caGnDzjYXPq1rxb6uXrTY6VAkKCUqKMZMOtz0alVWs8fACztq8FZDL1YfaUN9XJrMEc3XnJgp3nCpJxdnFKXh/DFFmJMVr1ZGIjWzvnBUymIGDrK7Za7yp61H8MzORtQmZiszyOpx+Ya9qTQhBifkp+HyqUUYITfIpHUetFyUtdirLL4CUxwvZqPLod5T6rG0Zg1OiCksviCR5JJGkJGCnORE5GWkIdUWg7zsNKEfWh0K/VBjOzrdHjk2o6GrR0KvTIqT0BHPiXGSTIwtnHG8kutEKStN5lhxSck47I4TPkVZMq2wKovglEP1SmkFf686jFWHW7FXzvmelsvb27iHPa+7BZdPLMLFZTJntNsCGm40GLCy2Ju4LLRaxpWbXt+GHTGppmClInHSilKd3ciR8IMzx2BeWgIKRIgUO5VoBQulspaIsgwRjF2E8uAZwxHvduNPq/Zge6tDucuOuHg4pcL0GDXomeleqHuiSZGlmBHWXmrGm1BRvktz0qtB/u1SfqKnVxTVi5lF2bh0Sj42tDpx9yfCp+RjQ6laUhGgLMIUozgckmafNIoVjU787v1tOBzDl+mSJF6UJvc40R/lbsZPT5+MOTJx5H4MawPuCwNSFk0I91Q8uInPqmS2b08V5dF78yDZ3Yty8Xm/OWEIzi7KUvMQKkkzYlbFHEs0rGYwSVrxc6eV40SpAM1VdYcT6+qb8XFrLNbI+FHrcKoKu2IpECmRgSXLmETrr45ecxUOTMXeq45iurgopShIXJyEeBFiSVqKKCgVM9NjMCUnEyVJJvd/PtCF6zaQz5iIyrJCr5bUug28VtOER6qasUf8ey5tkQMuIA91d+Mrpcm4RoYGyor9LwLrPoRXlinZALBwuqi3rqrGijqX2jpN2bCShTIKXFyciP+YVIp8qR9fc4nGJluVlSzKen5eOU5JN5XMhqHHF5Z9SP7skvTbDjfggMzPGo14NDltEF8G7TLHcUiJ7T1UqJVx85xvHGYkxqtXajIS7UiLdSM7zoXcGKd6RDImPweV2UnIE4lRaCxfNzTOoR7fLxP1jSaf0ShLg0rjcMGHio9trMHTe9tRJ7M4J3/IWYScLhZosSjshvFFKLPTArHZEUHC9yKqnsVCd0lr/MYrG7HZkAFUBl8qKlF605fs3bhnwThUSBp6etF2aUIri22czoRWll1zpHmWa5oXrUAdyBf7qg7MFlwZTYJHNiDyx6M+p1K0gsI1MAr7aJWlQV4579ol5vG65Vux3p0kMuTjfzpRPZidHouHTylDoTBAPiIhHH/eGrP65ul+Cde8vhVVSFebQRjL97WuHpWB358xFuMkho8QTEWZ+QYCKj4AvLbGyTlpczsAGwQdFW4z4NuX+RL467jFEoZJoBCtoVjaIuN5v1BCnoShEpifrjTpka4WROS2Gym+f7AxkOcJMpd8fOF4XF6apORH5dM0rmoz8J3Xt+CwpOlLeuGVpcCOCvXC3C/XHMCHjgRzC7CYknx3J26amofvjR6C4XExQXsqgiV/rPCuAFjgu45CftEspFoROf2x1YvSpJxGiMRvmlyIa8ZmI6+3VeTJPReJ+MBhx283HlSLyZEQXlnCF60nx4qXjnTjhX1tah8gn7ByYPze+CG4YkS2aqGhZu/4KysYwSXo6yh0FxahzaEPHHX1zDIocFqCK8fkihzzMcTdJXEedNiS8JedrVh2uEuNk+EQsWexO9aIN/OHtftRn5ih3GDa6yvE2/vPiqFRPTmNFqbp4c8JhDMDfXZ+H45WUSQRvJJgpcXzAJ6OtqCgevCRzzdHZuMrw5OVXLkiU5+YicfX71PvCYQrJqIk6IX9dX8HqnvM6iTI3GNqqg3fGmHuLI2MgY9ZND1uccnXHm5Uz5U4IFsRKMrwMLk8PtB0yAdXaDbX83X341cCFcFAOV49aRhmD02W+Z1Z6y2OWDy9q1k5T8EKC6ssJmqVXvXU2mpx0ZPk2kC+4cBP547AUMnhz0TFREWyX3Di++CWRvx+e51aGXEIXZrhYOrHA33RZI1Yrtpi1u3GXRtq8Nw+OgNU1PHgxpzrkRqHkFw5uXJUJtJcXSquVaZEK6prIT5HSGlhJctetbm5E63iSNJj4aRxbFosxsfbAlxLc2p5fFoby2mWhnH/1jYsXrYV9+7twVaXWzHNNkfGdYgW4dKHu1ZB/lBJTXLc4HTjh8LH+f/aiif3daHNPtCFIT+CyzNF7pcZ1zbnDE1FeSKf6bmVHA5KIzkkdQ+2UWGVxUR7O7rVRhKaKP68wsIJ5SF7D3iur0OZGhg4JlL5HaKw3bYM/Gb9AVy0bAfOf30bbt/WhNdk1OVHY+mdcoNNNOVZ+dPQcczPuQ/Hh10SXug0cP3GWixd8SkueXU7/rSjHgcSssRTo2Uxn7cdDYLLDwYVwEWEC2aWIVnmmkSbTCq3doc+Ig07KWYlfr6zAQ9sblFmsLirHk9fMBkn+EpW7HvPTZBIf4wFw7qCwf3hqeIZcZ3RXMQ1qdFT4uP+dG6ciTMwPDsDxel2DI03kJeWgty0VKQn2JAifrFdsnATDaF5YYWbpGvyQWe7w0CHtNj69i7Ud3RJCzZQ0+bA3uYO1HnYUPhYhw42c5ti4cSflqWTSpPoo5kU9ycbWrK1vS5c+PJ2HBZnjnW9YeYwXFuUFLDXI6yyOMjftaMRD29pURUo7TyCly+ahrHmbYW+Co8WVNbiDzmYxqgFzjvml2LThv1YX9eBWpcN7TIBd0vvNk1tIJtULlfek8Tx4V4/rmrTjMRLiOEbGJKcufgkl3sO5a5a5nHIeU+sXZRCE8/vd8kIYhEBe1C84USqCKxQbNS0/HSkleTgd2sahKRewQhcdT9W0PxuEdN7oViS3bY09WThP8fk4yejUlWv04joDVgfNXDFmyvtBAWgFcUU/lRHBwqKAooTZU2UJvbgCSV4fuFo/GTeCEy3daOAb7L0tKlHE7qVE2r2Lw2pMSEdh5KGYH9KLnanFWB7RjE+TS/Bpxml2JZRgh1yvSc1X+7nSKvNRrM9XT2CoaKIWLdH6DqVqc/ubUdhdwPmJLtx3xkj8cKC0fjFjGJU9ohToBR6FLUNyBZs2PxwCP1uJ0dn81fnCrPN14asCFWWEGY1KsUa2KSFEZwQf3SwS7mTVpiKIyd8GcHPyECrZC43mf2HQ3lFXCz+I9OO5WePxrJzxuKBWXn43qQMLChIQbmMWEN6WpHV24bM3k7VA9SmT+llfKzBZ16J4gazt/GcgWY0WdKwVzB9huSjYkhnrN2JhXlJuGFyJh6anY/XFk/AC6eX45K0OLVphy3brKOJcK/v9glTSH2CKvpEzFm39Him5S6qitRQ5YQ1g7Shq5q6cenb1ahLzFJLTKclO/D0vJHqFzm5RGJlQPUOVYmIHTUsIq2600MiSJENhJVhs+E5Q6u0iz2tThyRsaemrUOOneiRsYjbrNtl7DEfm5gs0kJkxvIRiBupCXYMSU5AYXoaijJSJdjU+iBHSDZQvaDrHfYUjsdCrh9s0IEyIp9cYlr82g6sdSaoKUy5qwXPS0MdI943eTLlSycnWFlyxSeiJHDSM2uxOylHjRtFva3468KRmJkY5xNmMLSAokWgsnpFWSMClBUMzSiPWomsvu7x1nOdlqLRwVSe/6hDKPxCPb7KCgXpL69tx5UrD6BBTDo7wimJXXhezDAnzVZ5BqqZkLuM5BPMK08ZJ5M1Tk/FZRZTePN71Tgk9aCQwmEgiuoXWtoWkD4D+WMPoInidIJLXwzsJVxNz5b2xwd6DNxow/h0UUCaEKWZZT42iPCKIkLFcjwQXCXKkW+D3r+hVj0fZO2yejuwZExJyDSJiMgVhbF4aIKMXS7ladGDquqKxcNba5WzwbZ3POBnKKgqUWg+jD4VQlfOmTIKghHBvMeSPxA0ZrQAXMr65boabOqKUdMVLpRPz4jD4mLzl2iCEVFZNqnfsNgYfGdGBYY6OfPiY+kkPLGjWVx6i8Ioh0hSiwa+vOH2yfaDIAseGVrYdNNVRNRg8uPdMDmmNgrhP+xsV3v9+TYL7+X2dOCr43LVM7dwTSO8ssihpObNc3MTcGllprLVbA3N9hTcv6MFD2w6rH4JzWnKwAffEMiD97Qv6AeP3JXbKFKJ9HiA0CR1GQPbd8c84oL3k8XKMs+5RtgSoK2BlBkEIUhHiXL7w+52/HJLnfqFb3Oy3YX/mlCMMwvSlVOhYGVGEF5ZFn44Flw5rhBL8xKVi8ybbXGisN1duGVVNfZIRThIaro+E8RDpHoxcRAjfMXm5+9vxQcdvarX0iM1nzP5JaVIiqIGpiSdn3kiGhIfmIqlsqbcXvbykXb8ecM+JdCBeu1WMGu30OCS2XUrq/GLqiNo5WqJEOUcclG2DZdXpKvx1YegaoZ13YPBgXC/dKtb3q/G8hZDPdmkyLh/YFKyBzdMyccpQ1PV4K29rWhg9QaZh5tv0mUOtLQyGxcNz8TkjES1C5fbS2iW2Q6ipR0JrKyi4TsxTxloOVjXTrlYI7w9LSZqxb4mtRLuEo+YCN6R2x/YVBi44/ct8fp+tu4QtvbEq9/FVT1KJuPnDI3Dz08coR7mBvSqoMqGdd0DE7EoPjWOUYuod6zai+dqXWiX8Yu2N0EmcBlia5eKB3PVmBSUed/+CCyHNAJbNYvR+wapLA26rnx5LVXMbrE9Bl85YQROzrKjwGZDtiSj40ME1cN/rfkPqYcZZYV5bUgvpgk21Er3v2oceGnDXtS6Y8Efy+8Vx4r1ZK+icJPd3di0uALmB+cjg7RpGUh7j8uDX2xqxPLddWq3r7kdm7ubunBxUQpumVmkxqnI3qmJqHqWBltdvaR+proOv1hfi8YE801FtU4nAi6L68W5ZVn4xth8VTjXq0PF6oe5I7dRhKHZtChVaHJpietkGTEu5CXFIU+UN7ZgKMYVZWKk2GeaDC67snHwSBFYm4SuGI8cK2jaaF5ptpukG20Xe7u5pgGf1jaiTiJre9xoiYlXr8i6FE/MqamY9dDzLG7CUTEBVfTzzycD++Te42LuVuxrxl5XPByqgdOCuFHoasd1J5Tgy/lp6hmhr0cFw0J/QMoiyA4Xet9pduOB1Tuwodsmg6Q5R+DWqjSpzOhEN84qzcSCygKUiwQj7e02zaAoS9oU33g8ryINO3fXYrdIlTStu3AJbsvmUhI3hCZ6epCdEI/0+Dhkp8h4KrP9tMR4VsibWsBKyiVjWrhd2m2gqaMbzY4edEhF+OIEd2vRbeaCr4JXMDbpaZzzjM2KR3J2GlYc6hU6fW/y5KJbq6TZKS1ieXUDXtlZh2q3XS2GMy8bYIazE7PSbfjutBLMEYvBuV+fvxh3LMrSYC/jz+A8XFWHl3Y34JD0IwdXsr3EuRZX1NuGRZX5OKcsG+WpCcgLakF6zDLEDHL97m+nj8AomY0vP9SFVzfvw75uN5rdNnTFJ6A3JkG1So2+BnxWKXCuZalxBNA6cOsCx6Sc+BgMT47BuePLcXp+PF490IUbIuzIpRzYUxtE+Xs6e7Bsdyv+uaMGh+3pamznwhd3Iie5XCiK6ZbxOBf/OTZH9Ux+dSJ0ThgZEcYsiznqA0xK13Zrrxv3rD6Ij2o71FimN4GyJZGhHLeMTRku3DdvvJqZa0RaG2TJHUL8gIwh67oMrNjeiI93H1KNgb/f55L07HW+38SQCnNLNduoRrDC+FyMPZ9KIU/8Jgj3tuut02kyWE4vKcDisdkYmxCD4jjzxQGaz8f3d+Gajc2qsQQqS3qSVPSpqgN4amctdsVloF0aFV+5pYpilCVwI93VgbnF6bhperEMFSZdJR7vMVr007P6Vxoz04uit7O2qQt/29cqJqBRrdQr8yLCzehtx+2ThuCK8hzFqEYkZXEMUnTlD3fikj7Hmur2Xhzu7sWhjk5RpA2HxG2r73ahsdOBNqdHTJ1DCZRQglAthgLxIEtMZUZcLAqzMuVooDjVwDCbB0VpKShKTkBxcpxahmJtaXwZmJu9xlSW2bPoYGwWB0P3rCMioq+98CE+ihtqPriURmQT5bOXZoh1mV+Rh0tLUzEtMzGCt0wZE8FyDpX9UZtBDWtmCpQ9ba/HgyfX7MY7TbHY08Pdu2147uxxmJzq/xYUEU5Zp4qy4pWkzTQa9Kz4kJKK0y42k7FK+khEqgyrTZLm0ZwOWBUTKkQTprL8C7n0UjdZelaH5Hp0exPu3NakflSfvbQiEZifF48LxpagXPTHRkDnJxz9gSBYnQMGGdCBHhk9tPFiBn48qwKvLCjDY18qxiVDPBgriqJAlFi9EtUCprnS44866FpZJM+JMBXNMthCOVmn45IlabhYqxduOVcJF9QCrwTylyG0uFBNOqRHuj5BskxLuRq6SQfekp4mfy8clY2RzhbMj23GX04ejpfPKsfNU0owQYiTx9CpzNHhmJWlEFQ5jgkUZpEELlfdfPo01bpMhqVIL+c8xHCskfRcbtJxPshFGLkFIiBDMLzNISwR3VQIJvAmUkyZp1ZYhr8AUIBsJH9ZNBWPnjMZZ2Tb1I5bPt7Qc8LjheOjLMIiED2w8y9bLltxuLqy8BgxmbzL8WCfjD80o8HSDSvrqOAtNahwk144jkLBsfigg4bXXORSKym8YQE3tYxKiEWuUDaddNbp6LmOhOOjrOjqHYIU8YzSPQ7lpXES+uv3q/BuUw8ahCDHpGNHX4xZ7/Hcf00xc/zls6Z/Hnbg6Q27Vc/nL6hxh1XECaxSFP+pZmhGHUccnbICGg0vpCX1yxunjIEoT0/ERKNVLVnRFd+ZMBRXvVuNWz7Yiy1yn8tbbNnamSB4DKYTaNJ433odeE/BS8BKh+d00/kwiG93rhVX9MoVW3HTR/twMJmGzqMWss+QU+v0IxDHz1CFwzF7g8cCtt4tMvG96r3dqOrhNjE7GVIfV8s0nOLuxuHkoQk4sSQXFalxagzQnhvF0pcXZ4WuINNRdQw0bPrIQK9va7MT7+2twQfNBta38AXxBNXjuUmG3uqpOYm4bybfUjR/puh/G8dFWSRwNJ2e+bhet6nTjR+vrsaHLeL6c6+gOB28y72Edpm48qXwYSl2TMzPwLgMD0oS4lGQkoQcOXLulCaSMz3NyGBZVI7oAy1ONxp6elEr87I9MqGvavCgqq4FdQ4Pem1xygU3lSSeokye06VHzRsqHu7McoxQr5NScKTKE+/xfwH/Yz0r2rowHc0cN+i8dMiBh1Zvxx5bKrpixTWRzBwFCP62E1ccOI/hNgMeuVZIz5OrEnlpychMMafcrJLp5DCYnBxpa0NLt9PsTdIYzBUQm3qOxi+X8qcV9IKyyik0Uj3dqPS04wdzJ+Fk8fLo9vfVk1lSpHvHA/9LZpAistrzUFUyhgvER0Rz6xu78OLmg1jT0IlGe5pabKW32BfUJ2VJhclUlTglkEtvNpecmMrQZZvwK1ZyyDkXonOcbTipeAgWj8zF+Oxktaappx7MHcxJuLhIGEjaYIQoqz9i+v5ACg1WlZmbCE+BppFPi3fKQFJ1pAXbW7qws6ELu5vbRaFxarWc64S9XDiOOKj7OQzmlb9eY/f0qsVV/gJOlvjjZdnpqBySgLFyHJ+bilLv04LguVK4eus41pPH4PuREI5WXzhqZUUDeleH3R7sbneIs5Dsm29ZW3N/oACoPL7Oxt1Ae6TnbTvUjb2iuINNLehwyThjxMLhMeDkYqLmTu13pyJViUiQcc0uZSaJYtLibRiWnYkR2WkYV5iAYklCxXAiH261ITK/pui4DEb+NkqjGi/15FuN/Y2hRLAs+5Nt32ZQ5da3g8j0dU9ARfERyjXLq7Cp28Dds0twtu8zDwODj0FVpvda/tABYDk9ct4t1eAxEpIkbYIInG+amD//ZXJh/jVhPY8WbExsRA9XHcCj21tw+pA4/OTUMeqXBKJRWF/wVteHEGWxcAqAgTdYIFtb/64qc5omSSvqxnd2YXmbOYgXuzvxs4lZWFRWoOiFQzBz0UAzz9/18w1QCl5q3nje0eHY4a8r54GPrd+F+/aJhxmbrN5quawgFj+cNUL97EN/CrPWWcvdXC8x5a48TwlEiMHn3Oe1/Q34+af1uHtHI367+TBqmNsCLaBAWBQlJkl9lqhNzJN4WsEiYv7gnUuEuUxDhN6LBFJmsIlCKBh/8F5LvDaGgVxERz88QsSmwFWOTlsinhKB+T5HZd5SCF0W8PPEO9Vi4n+z5Qju3tmIX35ah3XNXQErOSGlUtjv7T2CRzfX4ZGtLXhy017UBdWLBYQW61cUP0v0riiK7rf6amhvB+46oRDzpVdp1ZltPbh4fR16L1x5fUOY9mYyywuGSZ9JBk7bD3qJl02pwHfKZerAz1EJWfU5qjBfme3vg297RYBPbDqIhza34LGqIzJJbzNXb7zGL1hainCPzDnoLrfLDJ4P1PgAMLhKwcVSUfwi27Xv7Qr8aqirLeSroX0Nk5EQUF5/2Xnf9+OPfYNJokgWERQg51++z1F5v5SuvjJbF+Yrs33w7hZT0C0y554N/vKMk08keMNr3kOUFQIRrJJtH4WoHiXhBv3VUCmIhEvcbbh1RmHQV0O1ZxWZaB9FmRiQdPulFoCoUgclYl35rMz6OSpWsVUUNpCvzFLOmrS1PevqRlCWNaUYLKbmnyAmCSoq8Kuh5ht7hdKjbp7u/yyRLjAsEQt8zHqPRwXFr3l6jJSihqkwI8JXZh3+r8z6BdEnwk0VIigrMKFPy0H5dY8K/mpoXk8b7jupFOcHfD9KD3y6SBILZUjHht45WkSoYgREVW6ERByTaBIDvjIr8z2atUhfmbX2oECE3ghbk2gY5sco1VdDafqsXw3lR/3nmKbPryhiYEIbrKBHywm27yuzTu9HS23hvzIbpgOZsH7z0YvwEoykbW+86lHSUZR73iLuOZ0JD78a2o3bJw+J7quhgxwURXgx8ZdNDd8YZn5llg9YRWGWr8xae1hYOmo7YCAGbCNMRZnuufpqqHiLZM78amiu5auhLMzCRviaDVqwIaoFnDD1ommjYKmwSF+ZvYVfmZVrfmXWP7+MBPN+WGV5t9sFQhjQYxQ/6r+mx+5TFL9xeP/cEstXQwmSthAKR3OwQ2nMPLXCt4ovIcCtD/OV2XpJ69u6HRHm/f5S+cCX5tQS0ns78Y645+zSzKw+6q++Gpr6mTd9kRHZbND8hXXr+ZXZOhfuXrtfufXWlQoTpBlINyplUVF7tXveEieDpe5R7bhJ5lGh7vnnDZGVxWU1ClmZxCC3vk259b3KrVdLU/0IMKKyaEkJPlGtkZn19W+Y7jlfBPd/1H+YKCojyOv7/MDf9r1iDKOzYJOo3fqs3nYVxzFMu/X1cZQ3Y5nHDFaSEZXF0ZMKa4tPwp0rD+OtHtM9p6IKxD3/+Zei+Kh/H/BXdPBCi9QHuQiuk/WaDol262+cyHlYp1IHl+bo1j/8SZ1a/YkkmcjK8oKa39niUj2K+/vyjG78aNIQLBBnQiuKpPsKnzcE1908l3+iTCqXPexrMoZdLW59prj1dB+56L25tsd8uUHB2gz68AYJ/VzRfKVGRijJmyYt4Yez8jFf3HO+h8XXcvjjjX0FfqBF/oeArFjZ+SyAIuX7yOHk0CYC1OdMw529l44fhv+oSEGKp0fJl68yaVlrl9w0hKaaQh4+8qnnLSu34akGu/r1MCVSNRfgNmEXRia7kermd34lG+PFJvsJqFLMM7MsjLe7ce/cMUiWa2/UZxJU1BGnge++tg5Ndj2K++URDtwE1GazY0dXDHoDNvPEIJOPlaZk4bIRub7XpEKUxb0Et7y/DU82amV5YU1lkXrf7AAnxnfin/NHIt2bx5/Vz9jghb8OXI3g86hTX9qImiTu4DXBDuLb/RAC3rDW30+PyrpnciYuLcvzKSvEDFK/JWmJ4G/7cY7gA2myYPNKgXpWxUVkxptJwLTWvIMd/irrM+t7l35QNoHysUohWCKmvPgrdImuHuQmxAfQDOlZbCG1MiDdtuYI3ttzSLnuAaWp03CF8OBdNtHNSY7Tktx44tzpSGEUjUWUDwUHBygMUzbcElfT48HSZ/6NhsR0iwy0uOXcKxMFLVN1sAhE4vkmyrljh+NGmURniankkMPhJkRZBBXGpSW90BgJOmNfsmdP5caPcK3uswY2VXEVRG6mRALlQmn1JSkNU6rcQxIst7DKOn4gaQZdJKvzeVBbIALUpKUdrLeAROHRv7IiEY+EKAr97CHKRngUsrFm+R/uWV/geOLzZ5MGLYD/B/N0nh4Y6L+pAAAAAElFTkSuQmCC;" vertex="1" parent="1">
          <mxGeometry y="-2460" width="73.03" height="93.5" as="geometry" />
        </mxCell>
        <mxCell id="yCuCPkyOC491UmM06Bov-9" value="" style="shape=image;verticalLabelPosition=bottom;labelBackgroundColor=default;verticalAlign=top;aspect=fixed;imageAspect=0;image=data:image/png,iVBORw0KGgoAAAANSUhEUgAAAIwAAACJCAYAAAD+DdCNAAAAAXNSR0IArs4c6QAAAARnQU1BAACxjwv8YQUAAAAJcEhZcwAAEnQAABJ0Ad5mH3gAACaNSURBVHhe7V0JgBTF1f52dmdmL+77hoXlMiByCvwi8iPIERAMGA2gAUW8knhExMQzf7i9gjEREY94oJEjIGq8Ihjw4lZAOYXlWHYX2HtnZ2em//dedc/0zM7swS7LzDIf1HZ1VXVVvaqvXr3qru6J0QiIIooKwqIfo4iiQogSJopKIUqYKCqFKGGiqBQqTZjKWcge/WgCZ2DOJGSGQa4lVK+FzrmZygmsmx9C1CdwzVBmHoHwBEkaWA6f66kqnG9whK5acNkEARcEXSW53W5s2vwlXHQcOmQILJYYPYaup+TfbtmKvIJCdErpgHZt2+gR5CjZyfRT2Pvjj0hKSED/fn0RE+O7tmxwpUPzl7P/7T334733P8BTixbg2nFjVYQZeh3OBd5LQ+QRGJyenoENGzci6/Rp1KlbFz0u6Y6ePXogNvZ8K+2y2+m8gwkTiKIih3ZZ/4Fak9btta++3aaHKhRyXD+O66BN/fUtmsejR+iY/dDDWjOKmzjplxQXEBkUbnXgpN7kepgJHHXr7XdpTalO/1y1RgXWBAJEcLk92rxFT2rN26ZoTdq0J1kN10HrP+gK7dix4yphRUQPlqYi11UnKlmeH1XpXI52uw0tmrcgnwVr162TMAMFpFkyMjLIF4MffvgRzhKniiC4PB58/e0WGY2jRl1TQe2iV4GTepMHH0GSn0nblalKKwCup5JYh9+JjgAR3lzxNp559jnEWGIxcfx4PP7Yo7hp6lQ0atAA1jgrWrZqqdox4LqgCJamItcFq2c5KH0Jh1Swnib49YzRwXz8+c/HUF4avv7mW7iJCAbefPsdmqo0NGzYEOmnTqGw0KHHAMXFxcjIPC3Xjxs3XsKMivLx2PF0bN2+C8ePn/KGB3a6LoYgN7+Ayt+K06fP6iEU5zeD+qrPuZhjGHx++kwOtmzfiZ+OHCsVb8AbTuJzuu3f7Uaho1gP9IHLXvH2u5TegunTpuJvf3kaM2fcjAVzn8DO7d9g3Zp3pf3NA4XzzjqdjS1bdyCN5DfXwfDz0XCMQ0fSsHPXbr8wP+jZB17HYH8Gtdc3VN6xE77yfDUy0ktNxXfop6PYuXO3+MsFNUJQHEs/JWq3x2X9tILCQgkjm0amI1bB9zzwBzkue+V1iWMcSTuutWiXqg0Zfo2fpluzbr02eMgwrTmp7Wat2mst2qRoQ4aN1P798WcqgZ540ZNPU1wH7eixE9qCxU9r7VO70xTUQVtOZXCSmXfcLdOAeUravfcHre+AwVqblFTt1dconT4N7jt4iKbFG7SWbTtKmeyuuGq4tv7DjySewSkv7d2P6tVe27vvgHb9lGkytbBcO7773pdIB+c9YvQ4mo5TtEce/7MeGhrbduzSxl83mcpWcnM5V/7vCO3jzz6XeM7a6XRqg4ZcpQ2+crh28lSW1Lk5tU/blK4aDS6qf4o28Iqhkt6Mw0fStNYdOmmX9LxMzATG1m07tHHXXe+VQZU3Uvv0840Sz3AUF2sDBg2RtjiRninlcX+069jVLGpIBNf9hJbNmiK1U0caHWeRm5snYWlpx3Hi5EnUr1cXEycoDbJ8+cughhT/mrXrxFDu26e3nDM++89GzJp1F7H4CAYNHoiZt85A//79sP/AAdw841bRYOYR49Ji8Ke5C/Dskr+iebPm6NnzZ+jerYs33oyTpzJw45Sb5XjHrFmYMuVGyiuGtFwWRlwzBpu+/BJDrxyCxYsXSFzasRO4+7f34FRGlp6DytNNGuOm6bfQdLqVyuqKHj/rTvI3UwlMYM0xbNhV4n9zxQps+GITCoqK5DwQRQ4HbrntdtIs2+iaoVi0aD4mXz8ZBw8dxpRpN9N0vs806i04knYMs+68Czt2fYduXbvKgqF7t85o2qI5Dh4+gk1fUzuZsOSvz6PY6caIESMRH2+X8mbefie2bt2K4VTHxQsXYPLkSVTeIWqjafhx3379SqWNfzp6HLfdcSeVtwtdu3ah8vqpyMBGDoROnFJgtt37wEMymp5f+pKEffDvj4m5KdoDD/6RmFqitW7fSZh8NO2YxA+84iqtKY2mN1a8I+ecx7iJk0VL/OHRJzSycSSMVmHafbMfovAU7brrfyVpGQtJw3B5nOcrr70po49HtTiKN2uY9IxMrVO3HlKfPy9YrNG0KXnw36XLX5N8bpw2XXPR/GmE//HxP0n9bpox0xvWs3d/SdsutZu2/8BhSc+alGMNbWVGiculjZ0wicrtQCM4Rbvk0j7aO/9cJXmZ8cTcBSL3DVQHb93ouOiZJSLDnxculjBnMWmYK4ZJHbr16EOjPkPq4CbjmnHXPfdLO7EsBrKzc7QWpHlY9o8/2yBhjz7xZylv6vRbvfXm44Inn5G85y58is6Vhuk/eIgqr2dv0mp6eRQZTN5AhNQwzP6+vXuJlbBixTtCvI3/3QyNRtn4cWNgt8WRnTKOzoE9tIzmUX3o8GGxSfv17UupldbZf+AgrFYrHvz9fYilazlfi8WCR/4wB7FxcfiBrg1Eo0aNcP3kCXIdw2wTxFCNnCUuTJ95O9k4RZh1262473e/8Uvz6WefyrF378vw9Zat2Eyjk12D+g2l/l9//Y1oQgMxVNc5D9yPTh3by7I4lurHoZJnwIiLi43F668swxOPPYx69euJBv7Nvfdj6PCR2Ea2EoNWUnh35UryxaB9+3b46pstUv6XdGTZWIYdO1RaOqEiND7gpmlT0KJZE6kD38qg/sE9v7mb6gPs3rMHNPXIJdvoWr710bJFM1wx+HJQh2PV6jWSWZs2baQco7wmTZpI3jt3UXm+JiKvhum/vhnNm+rlcd+Y2jAUQhKG0VumFg/27v9RGubTTz9Dgt2KdtQIjOt4WiLObd78tahaRgtSoSkdO1B1VNbZOTmom1wHiYmJcm6gTp1kCk9Cbk6eqU9UhXlKs9vjyecpJQTbvIueehbfbtkGC3Xe0CuvIPJa5UpuYEb6yXQ5Llr8JCb+YjImXDcJEydNxoJFiyWdhxqbRrCkYXBYp44d1YmA43TnX7ygXt26uHXGr8XQfezhh9C+XVsi/gFMvmGKTI/FxQ5aDKip6qXlr0gdDDdnzkMiRE52jk9ukVHDwIGXq3MdLHuH9m1lCj91KpMG32G55v1/f0TEj8WdNA3bbTaQ1kCRPjUue+llv/IefOgPFKoh+6x54aCOAyjfyiJOPwYF2zBNiIGnMjOxcdNmHDl6REZIs6Y0v1OhqamdEE8E2rDxC6R0SKErLBg/fpxQRTUBRIu43C7ylYaHOi2WOt0HuiLGg4SEBP08OJ/T09PRvWtn7CE7gG2Pr/67UUYmNzCXaaERw+RZuHA+unbuUqrPuUyr1Sc6X2elevpQ5jgScJ52umbWzBmYQAPnsr4DkF9QiA0bNuLnY9VNRU5z/3334sr/+R85NyMxMcG/XlTxuDhzWyhwmrGjR2HzV99i7sKF+MfyF7Hyn6sQTxp++HBlT8mgIsdpH7jvPgwZPFg0vxnm8jg5l+ff9hVDmS3D+U4Yfy1lbsG6de9RGTG48ZfXk1qmyyiyGRnGSUlJ2Lf/AL7YtEkqPmrkCG/FGM0pTW5eHg4ePKSHKOw/eJimlDwiZGM9RBdcl9ScRyD+OOf3+OC9NRh+1VAy9opxz333C1EMsNHIeZ0+c4amx16lXO/LeogKVqAJwRhy54hmTRqjHWkZzstBxmdigl1UPZ8X5OeXKr9vn0txSXdlyBvg6oj8QTCaCBOjefD5xo14/a0VtOQvFK3WqlUriU9MiEfzJk3JpyGf2rpvv4DyyAWWd64olzAjRwyXxv3P5xtpLo3Fr2+6SUUSbDTCJv/iOplPP6Hpim/4tWzJN/x8uIJWRtwhs+68GydIXXPXsNqedfsdEn75gP4qIUF1XPBGk1CK5mPzpk1parRj6fNL0JYa7fMNX+D/5i0EmWwSP3bUKBJMw3PPPa/sLnUpXB4N23buwtGjaXRmIHh5wUAGL01rT+K9Dz5E2omTtKLT5H7Nv957n+y3I5RCoxWHIuucB2dLu61cvRpffr1F6sZ1KCF7YzvZOsdPnJA8BRxHkcGJq8mKdcK1ZC/SDLls+asUEoNHH3lYbA8Glzd79v1iP67812pZ7RnlOak8Wm7j+HFzefrxHBCaMHqm7dq0FgOXR05b8rdowUz2YcaMGWKg8RyaTDZJUzKyDHBXPPzQHKR2TMH3e/aiT7/LRXX37jcAe/b+gPZt25C2mO3tMj6W1X0q3md7JCcn4tlnnqRlZTzN3cvJsPtewq++ehhGXj2cOtOB62/4Ffr0H4ThI0ejc7efYfSYcWKIe0FyysgOUbC5D2kVgVVr1mLGzDvQb8AgtG7bASmpXXEbLWctMRYy1Cfh8v5s8AOjrhmBsWPHIIsWAxPIlrh80JUYdvUodOnWE2PGTZC75F6UIbRR/sxbuJ0tOECaunXr1hg2dIjfZWNGXyPlZWRkYvxEKm/wUFzF5XXvgbHjqTzz4iK0uOUiNGH0HJkAHdq1Q2syZi8f0K9UQa1bNqPV1GUSf+PkybCZbANGA1pJfPTBOvz27julY9PJeIsng3bmrbfg4w/fp/x9U1LdOnUknwYN6ushPnC7cV6tWrREAs3HBgZf3h+/v/d3aNywEe64627pIF7JLF/2dyxf+nexs/je0W4iLBNj2rSpZFwqrcdo0bwZrTaai/HoHSUmMJeMUBut2h6hkd2716WKZHpr9Lq0B/75zlt4imwmAxzz/F+ewssvvYiONGCOHkvD3h9+kPym0mqod2/9XhUFNCON2apVC7JLeFXoGxAMVY4m9mRqh/ZoQ3UdPfJqVTJXTK+cKu9pvLxsKVJS2uNo2lEhCRP5pmnTvOVxfkZ5CbKwqByqvKeXL5bKk49zUgIGB69Mip3F1Dl2rzotBcnQl6sPqpqsjs0xXH1fkcHLLi52wk2qOZ7mevOT93KhBNJP/MFLWZbFZrWZDGhVx8B6cCg/NmENlRBPxqcpWtW/7DqpyYUlV23GZ3xFqGs5vNjpDFpeVVEFwighKrKiqDCMmgQIaK6gOUo1GMWKoUyusg0jItAfbtHKXhsKIWQoD6Uu4wA6CUUKhiKS/wAqC3qWVULZhDEqrQ4VhpGhXGPkoQvuF1cT8BbIqp5N4eBlhwoPBbM8ZV1XVoebL/ZWk1xl61JZlFmnclDlKSmKiwvVOJ9EcTEgSpgoKoUoYaKoFKKEiaJSiBImikohSpgoKoUoYaKoFKKEiaJSiBImikqhdhLGfO+a/ca5HH1Pg81R4QeqZ6nK+T/JLoUaEObifDTAEnvcysne3vP55KYK8D5YNYFP2VliIbvDY2p2zNd6whjCeZudxXWVIGfnd8h9/z3k7d2LWAoK1jcMvj5IsOB8xvGRt8bKhjFTYg+dJLZsCdtVQ9F86FDEJCdTvSv+xLqqqMWEYc3Bo4/FY6ePRLcbjv/8B1ufeAL1ixyIIy0TbIwajcJH7gxzh9REnHFuSGCkZb+btEpRXByaTJyINnfdyTu8vXHmPM8HLq4pyaPBfeI4Nk+dhma5OYgLEF1pGYNoxrl4awy82VsrY5ox1+l0fDxSH3sM9a++miJMFWWxzlO9Q9es1oBbjx0fPMj6cR8SHEWlyMJQIb6WrmmyMDQ//cLwr6f5rL7DgeztO2ggBBjDzKrzhItAwxjiUUe43Ehbvx5Z8+ahnlN9ncFhtULr0gXFdrukNDgiV/mdXKA43qTFXUQncVT/2MOHYcsh7SgpyO69dgLaPfQQv5Kph5xf1E7CsERG45tBDX5s/fvInDfXS5gzjRqh12v/QBy/RySvyIYxih3Y/cBsWL78EvEkC2vAmiZM7ZySgpFFwExSSl9B7YqV+Z9Hsn5UGej+C+KoZkHDeUuo2hbKX8fjmYdCCeQRQc4/LgIbpjR8baua24D3jD3+UTWM8pfJsp+YEnllqaH6XiRGLxmFNTQCazsuAsLw0CMxL6jGqD24KKekKM4dUcJEUSnUXsLoNgsffIZhDFy0/MyxWnHGZheXZ7dRK/CUFZ2zKoKL7NGAB0WZmcg/eAix+ifL3DYbGl/aEzF2u5c0RoOEHYWKHfj+93wfZjPi9fqr+zBz+GtEcn6+UTs1TKghEGNBQpMmaDKgPxoOGiiuCX/e3kQWBvui+iY4aidhgvU2k4gfLPL0w5/qMlx0OqoUIoowhuIwK5BQyqQUhBPq23dlXcNxgbN0sFk79EwuOShvLUTk2DAuN9K/+hJFu9UnzvnWeX7deuj5i4k0f6vPs3pBtsruV19DUrF6XuSKtaBpjx6o27+/aBSmTMzJdOz94H0klKgPNjpJ27Qc9r9Ibt+e0hC7TOUx1/iWvCMpEd0mUnnGF0Hp2iNr18J9OgsWvRkT+/ZB0z59yGdoLQ6vJg0WtWGCIBR93S4Uf/EF3EuXQnvhBTjpePztFdTTquH84Pbg9PKX4KF0nqUvwLH0RcRS5/N+GIY8/T9xEtkvvazSkCtY9iLc/OlY3rbJMJXH8SUvLkXm628AhYUqnuF2omjVSpS8oNK4/075bNlKEWaChBIoMhF+hAk2GPU29+5PCdyowvHB+iVIXv4KVfnL2z4i1/B/2dikMvVl47tYHhhyvF9+ETXrl4vwkYYb2a+hTad6x3s7Vvd4O1/vJwMB2fjFBfuQTnkbpeQaSePbqGTOxvCqzxWRKye/SEb4EIYbOaCh5bRU7/tQ5leUKtBpUmQZ+fuB0gX7wT2joNCmYO168Bn++rK8jg8SLztGAjtJOtQcqPaV+GuXwIv84SWokRU5DmEvfxKVyaHOOYS1ETsKD1LHSEWYE4Yanj87z4ZmXj4a0iqBlnUSw91dp9gJ5OYA2dm6Yz+5nFwk0CrHYINF88DuLJFwb5qiQu9Kg2Elg7hOYb5Kc1blEVheQgnlkU/xOVQWO6qTncrhOKVhLIhzFCEml9I4HMQXCuNglUWtQJguq/WGpmVx+vr1OEmu8MgRJBYUoJ5T/WSgh7hQSEvJPKsNThndxjCOQSwRpHFREeL1FY+bNAOnzbHHg0M4ZR3KJ4kIYKO0DBelybbb4Yi1UnpapVJ4MsVzeUYDFcXFItdmRzG/REbga3kjtp2IZ4y8bJsNucl1UL9jClInTULSlVeqZb9RvaogDJbVYUoY6kRaGmd+9DEO/+kJNHQUl6EKjepXoEdY41TYaPFBn1hCIHisi4rKiE9E76efQmKfvtSzoXOoMKL3YUKBqlXiQuabr6MeTTtlV5KJUsHhew5kYZRdvi/WsHH4GEdFNXAW48CKFcSe4L/mEokIH8LwiGEbgacc3tFf4kThwUPe94f4b4klBvmk3vOtYepolPP0aCjtOI8H8enpohmUXAGOZT43Dl8whM2U5PzyK6StXYtE+W0lDXF8t3bDBtj0l7TYxoi95BJYhg7V2zhQq5jFqNk4Y8t2LNlMjs8/h2XPHhmJXHOtTjIa9u1LtlEcpeIHDJw2BkU0RSVefTWas43DD0ErgqgNo4OqULhyJb576inUpdWMqHYyKK0Uzg3PVWRDs96ECWj5wO/VNeEIWjGlLZyPkn+tpUqTDDQFuokkbnl+RXThIPZpFjLW49Bg5ix0mvIrWqJVsLOjNowPPPXYqBHsNEptpGVYs/CSVvGZjtTYHjYcuWFI/Yeni4NHvx/DZGHEEkXsbo3koumJtCb7bSSjrKxkhXbhx2tlEDaE8UeQRhTesDoPc0jVuZ6GDGURoqy48ESYEIbm9AYNUNS1K3K7seuGws6dyYA05nbugAggi4CbVNWX9UdxQgIKu3QmmbqbXFeRVWvUmJKH6ZgNgfC5D+OiFZKLmtioTnExto4ahYYOhygWB5Gn7i+uQ+vZs6nWYUoeWj4fmTsf7jWr5LQkxoLYLqno9Ne/A/F2CfOCZeD3ockYlv05FZEpasOYwALzDn5uWHZ2u9zNNWahMKVIEPiPP77L7CeX11EYy0zRFSJLmKBmCcNtaW7PQD9rF7PzA68udG+4oYx6CRUC5WInz5nIRRhqljDceubBZPJrhUVwZWXBlZEpzk1+Xk34oJalYYkQ9bIQw60lLrhPn/bK5XWZWfDwQ1X9WVak4ILZMFyot52pCtnr38P25/8mD/wYVmrIxLPZ+p1eTW581b0uEmyYeWTDrJZTpoKLph1HnbooEePW19RFtARvPvUmdJ40iQwRsmUqItLFbsOYmZpY5EB9GomNdFf3zFnvYwGV0pw6XGHqdaouN66NSFT37BmSKUuXTR1Z1rgI1DDVSphyu9SUINSACq7wOHWYapUQiAn8sKF3PjUdDU0ZQaJVnTDlkcDc/wEJzKdOmnLyaTWRZ4uXPS78kFFWGAI6lsvGCwhv3XyV1GhC4jMXEYcfTOaQbDk2u9exjC6ZioK2WtiiyjYMX165ZSEXx86fq4WHDiFjz17EydyswULG4umFC5DkctK5JSLvwwjhmzVH8vTpcPOjAwHX3QM3kaVul65o0LEDiRc5Dx+rrGH8yMJPllkQ3h7pdkHjJ8/ijDDDEWH0p9AGEtu3Q/trrkHr0WPQeswYtCR/sTzFVVUMU4oEwL85ZYdv/XpoMXKkkkvcaJGv3ahRRJaUipMlTFBlwnjVExHDlXESjnfeRv5zS1CwZAkKyfFRnB5W8JfncOavz8P9303+pOGG4zufVj7SaCG/es/Hh7C9D+NFaQOWt3uKPCyX7jQ+l+nIv/kv0IK1Uqi6huFG4unjvffw7bSbsffZZ3H4jTdx+M23dLeCHJ+/oY5vvYkDK95Czo4d3EJ6Lv6Q2T9IVPg3J6P8WnqHQVC1WZp0wRA4eGqqbapMGL5j6di/DwdIczTOOo16zhIkkbZJpPk8gVyiq0T8gc7uoanKRJgSsmHS167FmdWrkb16DXLWrfPO05xKmjFoA4cvLFRr69kc5K5Tcpldxr/WInffPmk/A2p6J1dm76tI9SqLDzXVNFUnjNuDHz78EAl5ufJCemi1ahLJSGIE0TXO7dtweMFCpM+dh5Pkji9aKIRj1FRjVA98tY0luTzpJ3Fi4SKR64TJ/bRgPjI2b1Y2nR/8pS3dmnr8BZqfq04YjSz+vDzJiEcIuyJaImcmxCM9MQEnyaUn8DHJ69ITE5FtY6uehCe5mWRWsmfsbieRpAQJpKFYuzABjXaJLNIYiAFZKvKII95NmlYcaVhDPtEuuoA80OS9pwKggBwfycXoRxVeCCulUV+KqHrXnQtoWc21rkJ3OIuxdd582Ne/T1ONuq3v6dMHnR5+FLCbl5Im8GliPJBUh/xMGjcc767C908+hXolvIxWSfiXPYz9spGyrD46dy7cq1eRwe7rUI9eX50aggJrHOrOnIWUqVPIKKZ2IlKdpan4CGlWMov9EzNo5Fi0GFhJo8fxdE75c5K4CRPRbs6DyrAmcNj5bB2Sqvqzd9lsQONGQJOmQFN2TfxdE3LJOlkEFrhJE3kofQk5Jzl348a0wuDxGRkw+pePBlnY7yYy8EYplsvrqA1cdERSomoDbgZKzL/dlEykS6JFRBIfdcc2X0KJW6ZofsHOWF05aKUV26aNrLiM8s8nWRjnRa/RRKIagj/MIw0SxJlFo/OkESPQ/50V6L5yJS4h1+WtFci3GRoq/OGTxufjG3exKR2QSqvCbiQTy2a4vm+/g5QJ11Fn611gag7dxBcYPqOjhJDsLBacatgIrUeo30ryu7yCK61zQbUThm0O/8rrMIaADt+pLpyVtBLZOjzqNNI2IOd7NBCZ4IHjZEIkkCZhbWI4lo9lZTtOn1oYTppWTtvtyIqPRxYfyZ0hP/+QlnHO/hNJyTjauQuGLFmiNHgpnBc9IPA9GuC/59I/QWwY58BB6Lp4MTUK2SkGvPkbxQWOigA4HPh22DA04pfaCfyaSR3e3vBgZGxvYCn5OZLWtTO6Llvu1xayJVPawyQHLx7ST8Hz0yGKM8I5kdH5amDJizdJSbCmpsquxGp5BbcSOC+lKUoEIKCPw7TLqw3CB+UNAooJXBYTuWJbtIB14GDEDRqkO/YPVE7CB8NKfuulPZWW0skStL3PE3yEqbEe5ILOsbAaq2PV4W3YIHVWQZUcq2XIXpPNcl40zDmBb2DxfQiTo/lSj6zZUVRtIC0SxzMJT9X8fRq+ZeB1dM7P0iJMsLAhjGP3bhxbtgzpLywVl/HSS+qjQBEMmXUys0iW5STTC37uOMmavX07kSayZAwPwpAmce/fh7Q3XkfWa68hk90bb8hrs5EMviPrOX2aZHkdmf94VWTLeo385NL+QcfvvhPZIwlho2H4k2HxJXyTqgRJ8nhAPRowwL5wblpVN581wTMRn/FraixLEmnLRHFKPn48EMs32aOEqQKkvQMbMDIa1EsV3cNfafAhmAwUpq+U+G+wFOGIMCGMerfa0aUL8rp2k3ePCzt30d+tVk3J/eDtlLCFr9uZMKxlihPiRRbjnXHluqKoS1doDX3vVivZwp82VX8vKciNu+KBg9At8MZdeeBrg7xb3aBY3biLnD29vveSQr5bzSLyYxO/d6u9EewJW4RP7fhpK9+5jCeSceOSn9+tjnTI4414q5LJcAl8DHy3ml14k4URPjUUxcJ/zC4IQgSXBk8I1QdvseaqlVcXsVHIBRjvAvH4wiMF4UMYmoI8uXnw5OSSy4NGfv6ooIw+TT70pZqXB2KFUL5onF9Fu8xbrKEMGCHqYmxeZ77E0WqIZVFy5ULTj55c8vPP80TYm4/hYcNQFXL//SF2LVtOeagNVFb+tNfJ47Tc5nsxFhSRDVNPt2G4Q0L01YWF+eEjycT1dNmssveFX9RT9FQ1549EN/3lDUi9dgKxKvynIgNhU9P4vDwkpR1F/aNp4pKOH5N7M6xduJ15i5CtxAUUFiGG30kuLNAd+4O5suLOlytCLJGGwZqRG9fmLEHi8eMk0xFyLB8djxxBnbQ0xPIn5qMa5tw0jPPdd7GbrqnHz1hMYLXO0xG/3+Ns3AiOdm3lXFjkhTqXtDKFcZARb06r4nhyUzsI5A9BLvAlY0iUHuDdbkCQfPmcy/O/28K74eKICIlZWXLOepBXQMHAr88m38ZbNKeSOlXbKyMBYUOYglUrsfPpp1HHabwp4JGN4Xw3lPeyMrQgJOC/vglKnSnoaQ0C0R9fWo/ss1X/OMp8XSD0OI4WbcAeRQTjeklBHqMpOYzBZ/yhZw8toT1eZU6hJEdBrA2NZt6K1Cm8pzdKmErfh3Hs2oWsTZvESGTEkA3j2LoFhXv3wO6uvNpmsdRyNRh8HV9pCHm509WpAc7RPL9zo/KrvpYePdCg16WypdJ8rdsSh6QB/VG/Vy+abyNn73L43Ljj7Q3y6qxeHSJM/oED2PvgA0jIyBB7hp8txWrKCGbwfRq3aYujghr5sZSXaUxTX/G05ptCOC9x+jmrCKYqp1Pag9NQX5qah2sneZBj8F/RgEauRAgXZcgfcuabdp7UVPSaPw9o1oQSc0l8hZ6W82AS6Xd6VYkqRTgjfAgTCK4VrZA0MoYPvPIKjn/9DZJOHEfDvBxqVOoMUuvZ9gRkN26sv7Rv0Eh1YvOTJ5Hs4l+VpU6kzspPTkZm/QYyPTDqFRSibvYZJJQ4RRM5acSfbtgQ+QlJ1NnqQ8wNcnLQII8NU+ZCDAqsNpxt3ARF8k4VfyzIgyZZGUh0OoV8jMx69ZHdoiU6DbkSHX91A+QXaGt4G+X5RPgSxgBrHdY+RQ5kPfs0clavkVHooo4/1qIVhr32Ki2xAsqh9JtHjkTzIlopUeqiWCtSr58M26xZ1HnU2Szxrp349t7foZGjiE7UN1w6P/oo4qmjpYOJSJnPLkEuLZGpkUSzZDZqhEEvvwI0bMAMIkGLcfCOWXDv269e/yDETZ+OtrfcqvKort9JCiOEJ/XNFGaVzd9WsdtREGenANUD/IpbMT+LIS0jO/DNzh6PEhnVKi33bQmnjed4Ihffmqc8WfMYaXgVVmyjOLl1T0fKo5DfKdLrwlNGCWsyfnzBZfCLeAmUB9VPkvAfch4mCefBdVZZ1yqEJ2GCQvWc3n8Csz8QakHFPVZer/nivYswbxhpjQp2ekVKqg0IT8KEbHn/DlScKIs2lYMsYioJo/RzuTYSET6E4ZYvp+/9+8RYBVXgwnOCf2lB+UAsMTcgk0acfs44HzW7kAjzKYma22hxMjpLLLHyY5/51jgU0opFVke8PA3sTjotonT8wnsBHdkWkR/2NCcj28Obhhz72ZBW+RHo4KT8uTyO5zKL2WA24hnk52dChXo5nI5tGnMxZn9tQPivkgzwcyXjFZQYmpo04jobltRJxr0ML1gkfmPSuOHHvUYdCv5IgNHh/FyKX/fgfBmchY2MVXlISOA8WB5+PcQAE5TzMJbJnD/Hy8eRVBD4fXBOU0sR5hrGBB79/CMPyUmQz4Twkc8DySKgtLSS0TiNpOe0RAazdmCi8T0SPY2WSEcmFSdhx+Vxx3OckQ8PAPM9FS6bV1ycv5GmFpOFETmE0WEM5IrARI9zQ2UKu0gQcYSpECrDFJ6SnE7E8GYmw/EWBRNZgmXH0aGeRNdmRBxhqqw1vFD2jevsWXw1fz62Pf4YdpDb/tjjOLNlK7GByFBGYRwV+uFm7UXt1DAVghI9piAf7o0bYP/4M9g/+gS2Tz5B7LFjRBjdYI7CDxctYYzFIT+btrr512z5U7DqV20t/Pzq4pttKoSLljD+04nu996uvfimmoriIp6SAsAapRofM9RWRAkTFFHihMLFS5hATkRnoQrh4iVMCIJEZ6WyUQ2EKZ1FPL985iyWXXLyTCeMXYyzxPTbkia7N4qgqPrDx+ISbJk/D/Hr13v3x/JTZHn6a1qJGL5ghV3IOBstoRNLfKThrZjNH3kEdcaOpbEQ8IQ7imogTIkLu//2N7jfeB3JxU5qZF8Lc9aRdDeUG8IRZ0XbpUtRp1cPFRhdF/ih6q1BBEkdNRr5iUlwmZ/kEoQsEUAYY8zwXpbMNq2R3LYtnbEsUbIEouoahuFyIe/Tz7Dj2WeQdOYM7C75tUMdxhs3CoGFXeg4w2bhV0gs/B7R7DmI69wJ8rGfKEqhyoThi2VlwYZubi4KP/kUWQcPyktggghYdriojq0u6Qnr0KvUF7ZN02oU/qgeDUPw8SP8CRISEWRvXShUG2EiH/x0WrdZuEWi3AmK6rPqIph2quqmpoiSJSSqjzAR3MhRflQc0XVjFJVClDBRVALA/wO+zzqXjXSVOwAAAABJRU5ErkJggg==;" vertex="1" parent="1">
          <mxGeometry x="180" y="-2461.75" width="97.34" height="95.25" as="geometry" />
        </mxCell>
        <mxCell id="yCuCPkyOC491UmM06Bov-10" value="" style="shape=image;verticalLabelPosition=bottom;labelBackgroundColor=default;verticalAlign=top;aspect=fixed;imageAspect=0;image=data:image/png,iVBORw0KGgoAAAANSUhEUgAAAGIAAACJCAYAAADXJu1PAAAAAXNSR0IArs4c6QAAAARnQU1BAACxjwv8YQUAAAAJcEhZcwAAEnQAABJ0Ad5mH3gAADL/SURBVHhe7V0HfFzF0f9fP+nUey+23CvuvWGDMSFgQkIJmBpaICRAwhcI3VQDCQSThF5DdcEYMGAwGMfGFXfJ3bJk9a7T6fr7Zvbdk96d7tSNMT/++q1e2zI7szM7W947jUTAzzjp0PqOP+Mk42dB/EjwsyB+JPhZED8S/HQE0VOXozPpOc4Jcm1OOUGE5IPGd1TQVaYFpldDyYfjtBevBzg5gugqk1ToNB86ybROkaHk0wO6O8LJEUQIJnWmjr3JB86rLRknkNvt4EdlmvyY0g4veoNNwYXQAUI0oN7ASRtZc7EajX+tmBA3BSc8dJTgotAsOeGQ3HC4XSK4JC+8FOwueqqhFIJ6pQpKfhoYtFoY9QbR0sIMJug0WjoaEQYD/Wl9QQMjHYO1xmD0nUj8MILgEgLq5KHggpcY7iXGswAk2OnOEUcpdhbtx8HKIhyoKEaz3gO7jhivpXhaEggdvSQAh8YNjy9PZpi6GhLdN3l0MNCJwauDUSKheLUwU7DQ/ThDFAakZaNvXBpGpg1EoiYGekqnZwH6BMThhxPDDyUIgocYzS2cGe6kcNxRg22l+7Cz/AgKUY0SVx3Km+vhFoyWmSnxnzgS6MgK4Dv13WwfnJYjK1FJXJQHMVjckKClcw6RujCkGqORaYxFnikVo9L7YXhcX1hIHLKAQGe6lvJPhIROqCC8VFk2NSyEYmctdlUX47umAmwp3Y8SWw21cC88WkkEhfnMNT7QLcE0Ld8Q11rEmCwwerSINob7WMQxveI5n/uSy/nQmdVlh43Ezke7xM1AfiYfZSFzIqZTCIWy0pPW6CiCRTJgaFIfTIwdhNNicjA4Op3Mml5ojU4kE4XI4AxVlx0hWPRuCUJJEKpsfs4mp8LbjG3243iv4AvsKD2EZoMXDr0XLjI1bFZEeorMR5NXjyiPAdFuAyIdBgxOy0W/5EzkxKci3ZiAeEMMt0lOIWy6fCb/lxFYPdYnWUwcuDEcaj6GY7VlOFxVgkOVxTjeXI0GgwcNeicaKQiRspmjP85JR0I3EaEmN2mNW4/5o0/HvITxyDFEIJJ6F46jLlFBICWdQa9qBGfUSFU+6K3F69+vxK7GQpQ469BIlWXmU7sXFBqoglF2A+JdJrLR/TA6YwDywjKppYch0hyGCJhFJ2qg/Jj5ejrnVqigOxXlNGwWWSCKI+Cgs3p3MxqddpTba7G9ah+2FBXgsK0SjWEe2IweWTgE1hKzW4s4jxl9wpNx3vCZmB41GMkwif5EjfboC/WsVwTBxDZSpXY0HcNHhzfgq+LtqDSRt0MdLYPV3uLUIpEqMYTUfUhULoak5CIvIhWxxPRwYjO3L4XAYMQymYoX015FO4S6tpSJkhcLqJlCE50dd9dgX3UR9tYdoT7sEA5aK9BgpsZE2szNSUd2NNKhw+DwNJydOwFnZowhgZhJJLL/pRQRjMZQtPdIEJzQTqQdc9fj/cK1eH//WlSFOeHUeMld1MBMzI/3hiMnPBFz+o/D9KQRSCG2R1EbV7fwkwVRdaIzFMMcVLc60p29zhKs2LMWu+uOochVA6tPw7lhWBxa9HVF49bxF2NsXB/EkDi49/JjuOrC774K3RYEa4GViPymKh8Pb34bxaYmOIkCoo/sKsj06HH24Mn4bcZsZBos5IGwgWklIhRBAu0+7PBx9xAiU2FOiXLWhDKvHZttR/HKzpXIbyDX2kgmjrSEORjjNGBO9BDcNW4B4ki/TXJyAWaxcLHpXF2E+rpbgmAbSz4PXtrzKd4sW4danQPk1MDo0iBdE4ULBkzDL5JHI0MfK0wO2/nAOvoR5bsIJPREoLtlMJvYy+K6W8kD21x9BO8UrcX6inw0mcg1oWcG6tiH6FJw7+TLMUKfKkxVm7JCENBlQXgperXGiecOfILXCr8mT8hDmWioEzPhnLjRuGrEXKRro4UA2NVjcBFBR6kKUQoFdB5Ip+pRcHQYoffBRXJn30R6sr4mH8/v+xQ7bcWwU5+oI/c31RGOJ6ddh/Hh2S39RkfosiDYbr56ZC0WHVyGRrMXRnLt+nvi8eDpV2OoJo1MkKwBPxyYfAqskr5i+c4PQQGX46DOvYF48vSOD7CsfDOqzU4xmu/vjcXLM/6CTC27Ih2jc+LygQs+Tr7FOwe+hNXkIiEAY02ZeGbazRhNQoii7EIJgdOeGHB5rUJg9IYQOqZXHmuYqcaJ5MD+ecQFuHXIfMRb9XBpPThCLvwLO1fQgJKHtB2jS4JgfFXxPYqpDTAZsTQOuHv0AvQ3xnaogr3BnB8SXaGX48aQMC5In4grB88Vo3MndeJbrEdIY0JDLewua0RxXQWc7LpRv5AenYg8E7eHU43NvQFVnX0cZbd8YuJg4R9yx97oYee+c7agS4LgojNiEmH06ISXUFhTjkJHlfAkWsHnquvO0XFqwyeTZuovCpoL4dK4qaGSlhjD22WwSpRdEwSjXxJ5AjTUZ1iNHjyb/xENetwqYXD2chHijrq0UwI8bgjWevh+aJADj82Nx/DCtk/EPBrPJiQaIlo8x47QZUFkIknM6zNc5K59XrkTC3e9S514oyBGTW77JLRfsZMHrltbyiW6z+JpFZFMvzw14sW3dUfw4LbXUWzk/pNyIR4lelonKjtClwVhpiSJlhiiVZ5B5Ymx5RWbccXqJ7C5uYRG2/6GKjS6XPRJBbNTCQwWDC9s8Wh7ccWX+ON3z2GfVEUeE8Ug3mhpVJAdm9QiCJ7R5WYaijfdEkRCeBTlLCflvoIHdfv1tbhx3T9w2+YXsV4qFuaqsx3VqQYeS5XAidcq1+PKtU/guZ0rUR3mgJMXURjEGzZNaZGxLWMInlvg1RVFkIHo8oCOO6S7dv8Xb9ZshI4KSzBHwdbQhGbSDBf1UDxVnOAyYlzSAExPG4ExyQORQsM8HtbwZNipCGYQj6Trqe777SXYULwHa4q/x35nBY2nPGQZJIS5dIgyhaPBYYOdGma0XY83pvwJo8Oz/PsJziyINLosCLaJj+9biafLPxf+8pSMITgjcTTe3fopDnuq0GSgjpuUhefvw506pDjCMLvvaEwloWRYEpCgjxArXaxZP4YZ2DYgutn15OVcdj4bJLtYwj1sL8NHe9die0Mh6sLcYvaVOcozC/FuMybFD8TwkafhqdWvo56ex9n0WDX3QepTI0NqgRrdmvR75fh63LP/HdFHjDSl442Jt8HhdeOzhl14YeMyVGqaYNdLNN6gyGQv2ZUzk8vLBGd6ozBn4DhMTB+GNEM8jBRFXn6U56Y4Ce+raM9mMslB5666CDadbEA9VK58lCf1eDS8p/EwVhdswbaK/Sgz2dGgd5D9lxszy8Do1sPi0mB8cj/cOuxi5BgisbJ8O+7a9SaajG7kaeKxcuo9NNDrXHPrliBW1O7GbZtegtXsQqrTgtVzHkY0sY4H8xXuRjEz+XHZJmyq2IcmjYsqQBUWi9DsTVCgJqenkETEp5tikaaNRWZYPPIS0pEdl4IUEpBFw2t0csWVY2totbbBiOcnzGT+Y/B/JXA75iMzvVpqwNHaUhQ3VOEwHY95qlHsqEGpo1bMsPJuEXYQeX1bS52hgQO1vkxzHM7OmYSpsQMxODJNzCpwQ3ru0Go8XLSC8pcwOaovXhp1M/HlBApinaMQN6z+B8ojnIi1G/DpnPuRo41uYQC3KnZlSz11WHNkOzbXHsRuWzEqXA1+uzSYJWLRngL3NywkZrKejrHGCMSZIpEalYDkiBhEaE1I1CSILTImrR6RZI9ZQMGJJ22UPGiw2wTjazX1sGocqGxqQKO7GaXE+HJrDZq8ZICIDg9prZe8HaaNmc5pFGFz6w+TDOhjSsLwsCxMzRqKCYkDyby27o1iGlijHilYgWcrVot+8lcZ4/Fg/4sQcSIFsR8NuPTDB1AUY0eEQ48Xx9+IidF5ZGaYNa3g/oSX5FkobHMPO8qw5uBmrD2yAzV6O2qMTti0LmHiWoigc5aRcEAo8O4N7m+EkOhcPONoHVDNj4XX5luQ8foaAAexa0Q880X0QavRUYsHosjsJLjM6BeRitMHjMWE5GFiswAz3kSJ1Mu6DM6C3fY7d72F9+q2IMyhw80D5uGGzNOFk9IZdEsQJcTaKz95CNstNbBQR3BP3gW4OHey/8Qf56qmlsCaYqfQTD5IjduGOkcTKpz1KKg9InZVHK4uEfd5rdtOauEQ/YzMwJ6Aq8h9CmfD2mZ068TOjDBquSaiPy06DgOTszEgIQvZYemIIW2LN8s7NdipMAnDExpc1Wqq3c0bF2O184DwmB4YdCnmZ5xGmnMCBcGF3rnpRSxv3k1umxbXp5yOm4f+gpxULtSXHeu8j/ogMmkB75NgjWEB8dx+LZpQaatHvdOKWpsVNdYGEpwT9a5G4SZWWutEOs6zluK5vGxIWsHlxIRHwKg1iDhGMmOx4ZEw03WUNhyRxnBEmy2ItUQhOTIO8WTFuQExw2Vz07a1t13k9Ac/LSbqL1/9MHYbqxHTrMfiMTdgenx/oT2dQbcEwTs2/rHvIywu+1LMO50fOQoPjLuUWpCybM5oJaD9ajAj/U2ajNb7fMY2mH15NnGcHwce2cr7RFrB5aj3szJFsi3nrTm+Lt6PoFDly5CjdhyngIzTJSvvwfEoJxKadHhr2h0YZkkVnmBnEDr3dsCqmhmdIM7Z3tbolOUPIlhwyb/w9kkJRULrfT5j5rLGxVLV4ijEU0imu2kBIZUCP+M4HHhqmls6T0230OFHUPsskKN2zKbjUiWcZEoZWur0EkwWdYkdouMSgoDVN8ecRi6ozPMysvPcMYuJMfbvO1++ClwJbnlKoDs+ZRWyFWet4GsuhkuVHQJ5BzkjZPGBmQSgg8ftorCmTExxcNlGajAxNHDtCnO7JQguLMIYBovHKHztSmeDMBF8PyQTOgSnZHKUQHd8g7Zg+fI1M77EbcWX5XuxrHArvqs9TGaTDVYwlpJwAzNR0BJdbgCdhXqccqiySKzK8ThjUFouaWCowoKjW4Jg8LsG4R62vBrUupoEU3rSojoPmVks+F2eKlyxZhH+uP1F3Lv/bVy/4Vn8ccsL4KWqtixtp6o+nvHIoStQunXe/3ekgrprEoTeo0VeYmaXGdtlQSjmwqI3IZw6avbnefR5xHncV31+fiJFwpu9vKj02nH/upewT18j5n7qzW5URrjwdW0Bnt22hLrOgG78BJHEzY/npHgGgWvP5jo3Lq1FSJ1FlwWhmAuLxoRINzlnVDDXcV9FYYuNPtFgFh9wV+FQcyUcPNojiAZCpDUbJDJV20lQNnG/DXqLRF8+fLB6XbB5eJuARKZJh76G9C6KoQemiV/cyI1LEZRwP3GgvJisM4NJ6CoZXQN3iZUe3pXqpTNVWUwLdZjlRjs+qdiCfe5aNCh9xgkiSRaEB01CEGSyedyisYgG2hV02zSxfz40PY8ykIc7+ccPB7XMPYdi7lrBRPfTZwQdtXLMBoMbj+Uvw4LVj+LpXctwnIxHA1EnXlXxCYTj+efaRYh82EiSICQXrC4elmpgMZClIGH4DEen0Q3TJFdBuLDxKYIedmEbdA7YWCd6VLtgYBKVWsmCZuFnk3s4KWGQmOvSe3nSkNxG8lgsLp2YdPNovThmtuH5ynU4e/U9uH/b29jYcIQE4iFXl3VEdjVb0R3CZfaVS3VwauQ+yaIjb1Lb2ZXqVnRZEApjeICUFZHKyw1CEE16j2wn6bwbg/WQkMWuQCaX/0do9Lh7zKW4Jm0mhulSkIMYTArvgzv6nY/zY8ciwxslpq15+r3S0IwP6jbj2u+exU1b/43PKvcQ85rF1IqnhVbS7G7QzSI90kyOCgmemW8iukwaFkTXRNGtKQ4FpaQBs9fchRptM+JcRrw5+c84LYz6jR8I3Abt9J+9Fj5nLeV5IzaRVgqv7P4IK4s3o8jUTIyiISdpM0/4mV0aJNE4/Yrxv8TpkcOQoQsXfj8xgzS+awzksv968G0sObZRLIYNNiTjmbE3YoA+hgZ2nR9b90gQ5VTlC9c/ItZumQlvjb4dUyKzfE9PLth682pEqacJm+oP4I2tn+AgqtFk5DVmdjO1CHNqkaaLxpjEPPxq0AwM1aeCx8PyYKxzLOStNBdueAJbHMfIHPLSqRapnjCckzsBC/LORCr4NTQFofPU3UfwnXcZbGtXl36P4846YQJOTxiKvLCkLrSDEwemgFtknNaMfmGpmNl3HPpHpcFol1BfSzadTAlvBWJt3tdUgm8ObMHehiI0atwIj+DXCvQifSC41Sq14/Mmsgr/3PEhjWNYJzVi7o1fjtxTXYitxXthMluQHpHg044TJAh2DNeV7MYhRyXcpPanRWVhRFSu0I6TD6ZBrjrTw5uEB1tSMSV1BMblDYer3gZnkx1Oj0usfTQY3ShwlmN9yR58vW+TeNHeSEzUGlgkOvqT66SuGQuizN2INw9/IzRN7GAxRMHtcok3aEukRmws2o0mGnzmRGdSJy7e1pYTB6DrglAMGeXHtnhL0X7xjhlrRJ4+ERMSBwk7Hby4kwveOG3WkJOhicJMEsjs7HFIio/D0aNH4XVTt0v9g8PoRZXRgQ1kzj4+8h02HtqJyPhoxJrjqLbsaclLqFw/nug8YqvCksINaKZ0PP29aObtsFVXobKBrAQNLnkjwY66QuwhPk3IOY16JhZrW+50XRCchy8fnvo+Zq/C/+r2wUX+Y6QVmJs7UdjZHx/IvSNGK+RzPxCjNWJEWCbO7TMJg2NyyINyoaauFpKXX8In+0+aUqJrxOfHt+Oz45txsKqE7J0W8eFxoj3yTMLehjJ8WrZN7GXK0yXg6j6zcW76GAyIycaBqkKxRu6iTrzU04ithfkYnzmcym3bVHtkmtgXryE38FPqJ3hJU1frxHzq9KKpmicFagPeBv4P+IqZwQKxaAzoY0nAnORRmJk+AhanHnYaoDU4qbuniNzIuJ4FthJ8UboNq45vRaWmGXaS7QFbBTbU7KH6k2mOyMY5aWPFjpbs8ERMTxuJ8sZqFFkr4SRTVUnCKCg9hNkZoxBGZXLjUPqNHnlNrBF7XKX49ZrHxKRbaoMRL599B0ZpkuUIJwntyqMDyC/Cyx5Xvv0YXlq/Arvcpagw2MVYgTPmHSdGjx4Gt0R9oxd2Mkvsif0meTzuHXAR4qk/YrApqycuPb7rA3xQthGNJjdim41YOPQy/DJ9JJnwVip7pBGcjVZnxOv7vxTE8BTwtLRhyDPGyxFOErosBJXk2H6zh8O7L9JoLDAzdyxOzxiNkbG5sJVUwdZsI1ND4wcyW+JzFmR2eEDLKG+sxfrju7HDWoTacBrBG3lx1oCs5Dxy8Y+h2FYthNgnLgljo/v6eWU90ggGbzb+1bpHke8ppxaiwcLBv8VlqeN9T388CKol6pqHkJ4ShUfhPD2yz16MTcX5+K58Lw42lqLczJoix2FTzaf84RbeC8uBp100Jj2qdDbxPglPydzcfx6uz57tN1fW416V7WxuXKrYCcdrtlXWOr/6nRJoR4X4EU+vmeksiXqUqeYc3EQDtWcn34Jn595BLqvMTP6+CG8tCnfRyJ48yDoy1aWRDhTG2HE0zCqEwHES3WZMiBlAOfmzvhcEAaRHJogdcUxAmYtfhaeLHxmC8lpwWT5tFwFx2OdJJFbyK+28NMqIICHcPn0BLu8/G8OkJKQ0GpHYZER8sx7xTQYkWU0Y6IjBolk3Y1R0ljzWUrXYHpsmG6nr68c24PH9H5DU3ZgfMQKLRl0pdk/8lMGD2Q2Nh3D1hsVooE44q86EN8+9FznkvPMYu9HbjEp7I3lW8nKZRWdAelgc9T3yN58C5d8LGkGjSX2k0AhGla0OvFnslDNPXYSbWHm8vlpsemPE6i3U+OQv1IRRh5yktWBQeDJGRKRjJIUBYUn0nL8nqBKCikk9FgRbyMTwSPGuBKPCWitmRH/q4KZW1kT9oY+rvIudvSDmrbK9kz0wXsNm5vN5oBaob3RDEFxUqyg5g6QwGkv7bjW67aghg/VTB0/vHKsvFwM+5mdeUqbo0AOZHWxavZV7regF06RBvCGCTJOcPfvXhc1l4vynDLbEVVqrWAlkZEYnU8tXsTMYt9tBNwTBEm6VMp9FaM2I1FF7oML5LaHi+gr54U8Y3AVXORuFaeKXbtL0qi8wdCCEVu61oscaweBM+idnw0D9hFPvQXFdZVcbxCkH7gWr3VaxgyXcq0e4wbfvmyvOJ8G43Q66LgguKIDLXGa/ZPKNyafmya9DVUVinuWnCq4ZT4FXuRrFhcVtEIIQ6KIAFHRdEEGlrUH/eNYI+UGT1wGbJPvPSvBDmxunFniy84irFG5Jnj2N8OgRaQyTHwp0fUDba6YpR5MKvW+UaXM7aUAjb+wKIbdTGuwx7S0+BElLYqBGFekywEIjiFZ0na29IgjmK+/lsehk9bR57WiS2Iqe4k0/BHiqnN9GVRpZn/jU1o66m+g1jYjUUKswmMU1a0ST+AT0T1MQrBGHqo6LjpqXX/smZoppi56gVwTBiOBXbg3h4tyhdeOwVAIeWgROZZ0qommPTjuJotJZ3zKY65OQ/uMQBA/qwjU6hEuyC8c7OvLLjpKPTU8CRpY9I/eHQyCdSoPi/00eJ6zkpvMYgrd6DorlnSs9Y2WvaQTPr6dGJ4h9qC6dhob/ZT8p06Q0KP7f5GqGTSd/pYx/8iBK0/6XyjqDXhME+0fZ8SniLVO3ziO+SP/jW5XoIXztyuZykUawE6tBjL7nQmB0Mw+myJ/NnFFmbLIY1LEXW9FUC4fwL059tNSB6iXWGtwO0Q/yx7ES9fy5uJ6jm4JgBW1NqhDaJzydNEI+529bVDj407RBRHGKSUc2SjJcJIpidyl11DyG0CCOBNFmw1g36tcbWtUCXn+K0MojTLEdvpn3ZAfDKSYJFXgTwYGyQtF5846MFG1MrzCx+3moeCnaA13zroT48GjhTfArVDUO/nq2HNGP9dzLnaLg9fgj1aXinKuRzg5KIBsDFKQz6L4gAgpjp4K/Z5ESEScIdNN1jZM1gpkuv8TRil5VxB8Q8ndDimvlaX7WiDSqb2BtutPMepUjvF4bzx9eJHh0Xhz2ki3lC9+HGE8tBDOqWtRKjWgmr5CZzWtCGdG8n8O/mQW00U6hxxxSS5/XbJMMsWKQw55TcWOVmC7uFmUnHSrWqCpZzpsjDPxmEcWg+1nmFIrpX0E1TzqLHguCSVBGnZxZoiVajCV4CbGoodLfKHG07lB5siGqwBpCDkhjrdglLoQQw1vO+K1a/0r5i6Vz6BWboZ7GiLfEiPfUeB6mxFoFq9jS6wNH6w6VPwpQ46L/ZVYaHxk9YmdjckS8qE6gRnQHvSIIGXJzTw2PRaRTzpZHn8/vX4Uq8r79vkpwimkFk8ud9B7U4MuqHWR2+buDGqQb5J/WbIXMg+6glwXB7z/HY1LKYDHC5h0dbxZ+jb/87z/Yai8Vv0vEy0U/aqj4yKf81mip1IzPavbipi/+jh22IuEV8h7X6bFDe7wOoaDHWy5bIMtBLCPuc9fgms8fQ7GZt7BzL6FFgt2MCeE5uG7yfORoEoWHxe8H8KzlibZWXEU2n8qxPbBzwY1FfkdCwv+qduHlLStRYKhBk4F/Twlis/HcpBF4dMQChPwevo8fnUWvCEJdJp/z594OOCrx0I53sLn+EGwG0gKKwO6e2aPFgMgMjDBmYVLmIIxPkN+54x2D/DYBH1lNg71nJkglTnT1cz5qqGllm8+LPDzWkc+B4+5qbORt95X52G4tRIXXJn/gkXpnPQ2OYtxGXNxvJq7LOQNxvm/T9gZ6TyMCwH1CNYnkvUNfY0nJdyh00JVekhdTqETeos7mK8yrw2lp/TA0Ohd5xlSkR8Yi0WQhN7jV/jLjeJFeYaA4skxaLmTwKVdGqZB8lO+Ir6uJP7qif80aF8qcjeRQ1IgXSAqcxdhStl94evzyCb8d5BI77qlxeL3UgPQYE5mDK/LmYEr8QPCcay/a9d4VhJKRwhtuaeL72tTePjm2Ae/sXYOj+gY0GFyQxLcrZLPEmw5YMOKbGnxOI1b+biBvY8xNSEdWbDKSTbHI1KYIQ8BfrGS2MiP4kwv8K5AMLt8leeCU5PG8i6rmoOtmoqIQ5SisKkVRnfyjseWNNeIFE2Y4H/lb3xy4oSg14U/+JLrMGKZPwTWTz8MQU5b4oK545YqjKBUNRHvPQuCEaQRDoYeP/IZ+jbcZx5prsKlyL74+sBVHHVWoM3vEG5m8/qumnr1zFowIJBz+fTeeUmCTFaZnVhD3iOFmPZsHWaCcg8vroiCPfPlTpna3U+TNL6Izw/nIDKcs/cCXXEaEQ4MEpwmjUvpjet9RGByRhRRjNCKp5KD9mT/ZKoR8EBQ/iCDU4Hv80wf8K79FZI/3VRXhSEMpjlmpxdaWiW++smD4/TT+KBYvMsmDQjmwcZHz5P+tpCvl+N9RV43TsUD5G99aGuvIP48cIRmRHZeMVBoT5IaniR0ZA6MzkaCxiNYf2ivy5c0znOooSpEBDasjnFBBdBa8fMRvcfIv5/KLLwfcRThcWYKi2nIcp8Df8HZSr2NzszdPzoCq1TOEZfJdtNyjvzChLcRwPb+XoIVZYxI/QpIRm4SsuBRkR6Ugkzw4/owpfxyUZ4/Z3IUEZ97CW77gEJCihQC/yB3ipAmihV7fkdFCCJ1wQ1PAnxJtltzC9rNno+4HQoH7WQN/65ukxJ/t4U+AhtFR8cYCWdR6zeMcvpLvcBnirOWkfXQyWhucdI0IJJzJCfT1OY56Pke+Dg0lTyUw1F6Xkta/FB/afRgApaBAhLrfDk6cIIIQ0/k6cqtUVN6/hXYWnS+rfXSDp93Cie2sg7TuniI0Y9TC6yF6S4pdQC9R7gNXQCXW3hZCG/jKYoFL6k6FoCKj6+CsfkAhMH7APkIppmc15FzkHOSzpiYbtu/cJe6MGzMaBkOwzS2tqX6s6LoggtSporIKBfsO0Jn8gDUhLNwES3g4EhMTkRAXK+73LkNkU7RrTz7mzD2LKqLBru1bkJAQ7DsgvWi2ThB6rBGceOmy5fj9H25r6VaVDHU6HcJNRtx43e9w6623dCgCJkVtzoKLTWaqElcWxDzxZPf3wQTBuXDofUEE0tsTdJk6pVrBkJ2ZgcXPPIVn//EEHrj3bowaOQJWWzOeevo57Ny1xxcrNAIr5X+llCqT7CewllNVihYi+V4PhRC0wr3riPSqRgwfOgSffbqi5YHXK2HWGWchf/8BLLz3b7j2mivlZ4RGqxUHDhxEWUUF3C43YmKiMWTwYMS3mDEG5079AAkzv6AA5eXllKeX4sRh4IABiKO4u/YW4PQzz6ZoXuzdtpU0Ik6kdDid2P79dmq1wFCiKyLCgu07dqLZbscwvrZYRDxGTU0N9hGNOp0eY8aMgpYYbKMyd+zahUxqXMlJSdhJ/VBpWTlMpOGDBg5ERnqaL3UvgQXRE3gpfLB0mZSUnivNmXuOuBagEz6/ZMGVUmJGH+nlV9+U79Pd8soKqe+AYVIy3U/J7CulZPWl8xyp/5Dh0vGSMl88OX15RbU0fsp08VwOueI4afI0yePxSjt37xX5873KymqRzuV2SwuuulbcmzX7LMnpdIr702bMpvJype937Gylk7Dyk08pbrbUf9BwyeGQ4+7NL5DSsvtKf7jtDum2O+6k51yGXE5On4HS9u17RTyZyp6j1wwnqymbCG7DHHgq4o3/votv122A2ajHtGmTORpBg6SERAwdMhi3/ekWrPp4OT77+EPMmjkL9fVWzL/gN+KbegyHw4Hzf/0bHD16DDk5OVj87D/xLwpnz5uHBx64H1otTwKS4VFZCA9pzJ/+/Fd8sfpLMo2jsOSDd8iTkn/4iScPvYppE/9lkJGhIC9JySUr0GLp8uVYTXmxyX3nrTcwadIkNDsdROevUHz8OMXpJfPkE0i3oLQF1gjRurPypLxBIygMk1Kz+0hJdG/S9DnS19+ukzy+uArIbPlh89bvW1pcZWWVuPft+o1CY0ZPmCLV1NW3lMdH5Zw1gtOwplRW10gPPfakOJ828wzpaGGRL5Ycf8qMOVIS5ccaocZHn6wiWnOFRtj9NKKfuP/12nXiHqOW6Bg+apwo8/0lS313e45e0wiG0WhEdlYGhSwM6NcfiQmxOHToAO57YCEqKvxfgm+y2XDw8BEQU7Bu/SZh68V8EmmW0+UUarVk6VLx7e7TZ81CTHSUX9sLbIe8oPPfd9/H0/9cjOjoaLz91mvCeegMlE43WOfLfcm0qYo2g/KOwnnnnSs06/sduwI0qPvohiDYfZSLDyS7f14ffPbJCnxOYfWqldi4/lvMmD4De/L34657Wj8duH37TkyaOgMzZ5+FuefMx/kXXYg7/nqneOdO9K58oMyPHD4qzhPiY9sVggAlWLToKaKMzIzkRbhFfp+vLafaVpkapP9R/JcREx3jO2tFdna2ONbU1Ipjb6AbguAkMiva1JGg1WpF4DGEJSwMF/3mAhGb7SzHLyHP4/wLL6FBYDWuvmoBvvrsY+zctBErP1wKnZjDZ8j5h/mYyX1FZzCGRtbTpkxCXYMVd/7tXhIs5ddGar69hyriGxsb6X9rRHWSRis/awU/q62WBRAWrn7JvWfokWkKrGPLRLOqZR0vLhF32X3kYwW5q83Ndmrlcbj3b3diyKCBSElJgp1MlYo3ApMnTRR58RRG4DMGmzLWTzZL/MtDz9D45eGF98FiMZNL/SFee+NNEUuBOcwkWn19fYMgXnmyg8xjKNQ3NODo4WMiHcd3kzOw+qs14ln/fv2UGvcYPRIEQ80gXjWrra+nFtmAGjr+56VX8eCjjwhmXfRrWTNYU9gWNzRaUU79hsPpgrWpCf987l+UF7GTI7EgKVx2yUUIJ+Z9u249Fv/rBdGvcDhWXIxXX3uD8pM31vCv/zLCqI/q37cP/vsGPaNy7nvwIRw+ViyeMfL69hXHx574O7V0G+w0pigsKsHSFStFPQInDhls6u5duFCUyw3o3XeX4Pvt26lcCeNpzOHPge6jx4KQIVdg7979GDJ8DAaNGI3Bw0fjnvseFAwdO2okbrn5JhEnOyuT7G4k7GRups86AzNmn4kxE6bA7fYgPY1/GIQqRoJiYUVFRtAg8CrKXcLCRx7D2AnTMG7iVEyeOhNrvvlG5CfDnxnjR4/Er88/l0yaE5ctuEqUxRRefOFvBAO3bvseYydOwaRpszB52nRMnjBBPJd/LcYf2ZmZWL9hg6Bx4pTpuOPOu8T9q666AsOHD6OztsLrDnr0AV4Gk8E2nEelp40YjmHDh2L4sKE4bfhwnD5zOm684Vrcfef/wWySv1VhouMvf3kOjRXcwr9PSkzC2XPn4p6770QWeTmJ8fGUbgbMZpMQxtQpkzGM8rOQPTZTn5OcnET3JuGqKy5Hamoq3B4P7M0OjOTyZs0QnhunmzVjhqArNSUV0ZGRNEJOp/wzMXrUKHkOLDxcdLqXXXoJ/u/2W6khuGlkP4ici6mij6uqqsbrb76NxMQEMX5w0thBq9VhMJnS31HjuOX314t8goLl2UX5nJBpcH86QlHFNtd3n0gI5joGQiFUjilP/vmjPQ7wmgU9pXKUfBjq2OrU+QX7MHvuOUhNTsbmjd+K++3l7odOR2xFp0yTQri6AgrUclRO/WkIQpGIJ3ftIrQnBI6rylf8kq64VkhXRRAxQkE2d/JZaygmZ2Lzlm003jmiSq3k54/W5+1D7tbV4EbTPtrVCH607n8b8OHKlagid1Or04pJsNmzZmLK5EkthJWVV+C9D5Zg7558ManGg6DJkyfi/PnntpikUHjyyX8Iz0TpJ83mMMRERaLfgAGYMW0qDHq5c2daOqs1nWUY4+FHF+Hpxf/CuWefjef//U/f3VaNSCGN2OLTCD8EFNReuZ2inQURDGR7pQcfflRKyeSpCnkKITEzR0qiwMP795YuF/H++/Z7UlbfAeIex83ow+c8MZcr/fqiy6SGxkYRLxh42mHU2EliKkSepmid1OPpjoFDT5PWfLNWjnyCsPCRx8U0xu+uu8l3R8b+gwcl6qCls86Z3zKd4je3Egyq50uWfSit/HiVfNEJBBWE1+sV8yssgCRiLrmOErl7UklpubT43y9Is+ee3ULP7t17pf6Dh0nkEhLTm8T9L79aK2X26S+lpOdKz/zzOTliMFBkFgQz/b6Fj0qbNm+VNmzYLD33/IvS8NN4PqePlJ7VV7I2NfsSdAEqprSHhY8uEoK4RhGEKl0nsyD4ZtJ8CTzEv+GjxkuXX3WtfJ/QUT5B+whWo735+aRuWgwbMhjXX3s1IshrSaWB143XXYNVK1e0qOGQIYOwaf23+Mttf0RkRLi4P3PGVDIr04W52XeAl1BDQKWtOVkZGDP6NEyYMAbX/+5qvPbqS3RXogGUB/tVeXz0ySqsXPW5MAVq7Ny1G8tWfIytW7+Xb3Devvyra+rx0qtv4O77FuLRRU9hLZlbXisJCl+6Qhp/LKf8Vq78BB7yzJTY7Aov++hj3EtjlMef+gd2iAUvHxspnUfyYvF/XkRZZYWYRVhKeTBd+w8ckuOEgk8gbfDyq6+LljJ45BipvsW8BJOrrxn4DgyX20Nac44wM60a0RrBF01A1oi+0quvv+W7I2NPfgHdl83VvgOHxD1O16ffYKn/kBF+efD5HXf9TcS98eZb5Jt0l83roqeeltJz5FnUVrOXI3308aci1kMtGnGzuGZs2rJNGjB0hIj33gfyDCuXsXHzFmnClBkin5R0OR9es7j+93+QrNYmEe/yK66WUui+KC/dZ3Ip7tPPLhbPQyGk1zR58mSEkS9fWVWDy6+5TqwNu9zBen+52ZVXVOB4aQkOHjqMfz3/EvbszcfA/v1w5RULxPOOUEl++6HDR0TgshZRa2PNnH36LDGZqED8grzS1Amipaobt++cXZDlNGLmfHgG9yqi452338RTTyzC5IkTMI0cARFP/JfB50dJE6657gY0NTXj0UcewgW/mi+eOewO3PD7PwhNueLyy1Cwdw8+X/UJ8vLysOzDlVi6fIVIf8sfb8FvL/0tUajBuPFjseT997F0yXu4YP75Ip+Q8AmkDbgFrPnmf2JOnlfAuFWNGDNBrBu0AUUeOnK06LTTc/tJGX0HSc/+5xWpqdnuixAaorPO7CulZudJGZyWQnJWnpTeZ6D03AuvSHbf6hqDacrpP4Q0YqQ4V+Mvd94tHIkbblI0QpIu+u3lgvaHHn1S8noohUjkETZcSS/6CEp37Q03Sw02G9VxvGjNjz/5tOgrFXyxZq3oL3910aWSy3efD2vXbxCrk8NHj2vJ85nn/iPyWHD1deKeEtpDSI3gNjdj2iSs/fIz3HT9tTCRdpSWVeCc8y7AzX+83a8lceQzzjgD8+adhUkTxsNsNGDhQw/hwksuw+Ej8lR2eyA6qJVOxFWXX4HLL70M8+aeKfJ4YOHDuOnmP8FOrZHhrwv+UNxD5TnTtze/AAZyuXmWV8PLeOKhVqxJK/FEMurM7DRynjfvPLLrlfj9jdfj9j/9oSVPzuvDD6nFU7/Cc2SPPf4EHn5sER55fBGWkyZwvArqD/iZApk/qrGSuA6NNoJgpqjRt28u7rnrDmxctxa/u/JyGIlB7y9Zipdfe8NXmmyunnjsYTz3zN/x7n/fwLZN6zF+3Ghs2rwFd919v3geDEpJTMTZ887EfffeiYUP3I2X/vMsVn28QtwnWy5MDIPjc4XkHy/2wZcJbyrwp5xnTusFvWxiQ0Gp7jffrMOBg+QUaLyora1pw7ni4iK6p0EBjS9ef+MtvEbh9dffwkqijxeLeDGKp0Fk8JwB/QUS1A7aCEJpBYHgxZkH778Hc8+cI4pZtmy5j1g5Cz5VQmSEBfffe69gzKEjh1oZxCcq4tQlKWkZfMzrk4MB/fIEy/cf2C/uMzi51qfIIjtfoqqqKr/8GGazWUwm8jp2+9BQPBfu/tudiI+JBY2N8NY77/meyfTExsq7S64jj65g93YR8vfw8XsR8vfsEPNkMjiFqqKdgL8gVGlFJeXTFrCMZII00OsMbSKoL3fu3EnxtTSylj9BKsD0BXKLEKzlNDY14eDhQyJ6pCWiJXOjQQ+rrQkuV+t7ROxSbty0maLI80hKdn1yc+F0ufHRR5/SVWshAUpPkDB79izhmi967FHKRYMHHniYTHGV7zkwd+5ccdyw8TuRk1K2OgTC5XHJq46hoHrWdvbVl+MTT/wdS8j+1dTWoZFsX0lpGb5c8zWef/FlOBx2/OX2WzGUxhALH3oMe0hdueWR20o2tgyffb4a992/kJjgEvb+zDmny5kGwfMvvIIGq1XMcjbbm1Gwbz/Wb9iIp/7+DGnTUei0Wtx911/F4hHjg6XLUV5ZhYMHD6J//wGoIG/rxZdfwzffrhMVGzxwAJk5mWl1dXX4lu7zs6SkROgMBhw+fBRLli1DuMUi9it9+7/1+I6EOHjAQPzyF/PQr19fGnfUkGC3UD2+wHnnnYOwsDDkZmfjnXfeIfN1CJXV1cjIyBDeGK+NMF8qiabcHHkJladsli3/SOytGjt2jNgjVUu0xMW2XXZtkaDosn1Qewl33XO/8DjYU1BPO2Tm9pduufXPYizJsS+8ZAF5DbJPrfjWfJ1Kns/8Cy4i/9om8gsFZWTNXoY8lSKXw2UOpTHMkqUrfDFlLP738+RRkWcl4nDcXCmHxhYPP/6USN86jpAkG3lt8399sZRMXpna9+ewZu23Io7wmtKz/aY4GmhMMHHqTIrXh7yxe8R4hPHFV2sETTzVw0HJi8PzL7ws4jCYL2MmTJP5R3nz87vve0B+GAIhJ/3YU1lPrWLVqs9QXFQMvV6PocOG4NKLLxRrAtxSGVabDWvXbcCXX36JkpISsd4waNAg/Paii6kVJ5AJCzFn78PLr7yBhiZri5ZyA4mOjsFpI4djAI0fuDWqQdXE/oOH8cJLr+A4lcdl/e7qq5GUGIfn/v2CWKE7gzXQ19fxesWuPQWiNR87dkyY1gsuuADTJ08QdWLt27R1G6XLw1lz58gNlP6VlpfjvQ+WiTzm//IXYq2EVc5K44tPPvsMq1d/BWtjE1JSkzHvrLMwddIEmIzGlhZeW1cPajTYvXs3srKycMWCBaSt/eSHQRAgCPY8gn+SgSMFu98lqLndRTCZakeCs1JWNBRntC2N/gUqz9vG6zz8c1TBl2mbvDtZWBcXhtj7aONoBYeaAHHOaflG+1QFMlwGZ8AhdNnq4nqC4OWHBpdLibqUJhg65qooiUGM7OR+tDayFTRy2naI5SQUuEJKenmPBp9zuvbLDpqzL0815LyVfBl83op2GRokP47dXpqW0U2QtGr0zlIp56CiJeDSH+0+DITCJFFd+bQj+PLnagUyqE3RXaIleJ7+4AwZ7WcarNjeEcTP6DE6Z2t+xgkG8P9ApW/093izQAAAAABJRU5ErkJggg==;" vertex="1" parent="1">
          <mxGeometry x="430" y="-2270" width="62.23" height="87" as="geometry" />
        </mxCell>
        <mxCell id="yCuCPkyOC491UmM06Bov-11" value="" style="shape=image;verticalLabelPosition=bottom;labelBackgroundColor=default;verticalAlign=top;aspect=fixed;imageAspect=0;image=data:image/png,iVBORw0KGgoAAAANSUhEUgAAACkAAAA+CAYAAAC2szLVAAAAAXNSR0IArs4c6QAAAARnQU1BAACxjwv8YQUAAAAJcEhZcwAAEnQAABJ0Ad5mH3gAAAUASURBVGhD7VlbaBxVGP5m9ppJNomXSsC+eKmtxkIxpoigMUXxRZRI0T55K4UGxAexpkUq+KJUwVofBG1VEBSx2EcD4kMR0QcbEUpfFBW0BBsTTLdpkt2dnfH/zslkZ3Z2N7vZcedlv+Wfy7nNN99/Lv+ZNVwBGoCZhr4UeEUrKY3hSBWzTnHJg+Q1gQ1J1oJXxTCaJavrtFLej5ZIBlXdDJpXzw9VQ7Gsospb0ldnleIhnNI8WifIZ4mSZXlisHJRbEWM750S6xFLrBNrT8uWsPbIgLt5aUu/+eHSIt74fBoXFxYxNnwrjkw8gKF0Soh2GppakKTY3yUb40dP4KLRh7KRhFVexfP33YmXHxmDJfkd1HEdAT/TvfNLV3HZTqCQSKFomlhOpvH19z+qLtBpUDRaZeAIeHOdZSGXdGGKwFQt4di4Z9dO5Wq+RLmDxucRoSmIin07v4y9x05iJZ3DcNbGF1P70SuvUlJFazk80EQVNt9BDGmXgzZEkuxnyw7uPvwOllL9ODB6Gw5N3I/JN09i5lIejkG9a5BqmnuzpF302QUc3DManrjYBKedhHB3XUcKUHgIYQvzmX78kx0QGwxbpobVKqfqV2w+M4C5nlwlTdUbwJVkFqM7b8dTjz4YJlkP7KFUsSxTVJRmm9IupVi7d0WlpONgh2Xg9Wcfw6A8u2mS/xdM1SW8LuCKBx3cUMzjvReexpC8QFJSYyfp+LpoQhQcLORxYvIJDA9aSKtUmWnUOWZQTNNxkbNXcXTfw9hzy1Y9qlWuETNJ6YCGMOSc3OMUsG9kB54cuUOmu+AcEC9JYUIyGVkwRq5J48jj47hWEkylbQUxK8mpzsZWZwWnXnwGQ8mEWtlEX52/hlhJciRvcZbx0Uv7caMQ5PxcC7GRpFaWW8LhvQ9h1/V9yPpcHHR2rEq6sDIZ3Du8Pezi4EodH0muYIuFEibfOoV/5d7WyRqy8lQQ8zxZMpO4cBU49P5p5EW89dBMHakmLeZ5kmv2qgTV07/P4dNzv+CKSvNAqppurCQNWbi5LC6lLbx2ehrnFvIoSDqjR38EGStJRcQ1VX/Mp3rx3LEPceHyEorSJysfElrqk16l6OAR4dkxEphL9uHA25/gr2LZN5Ba6JM6WuFBr7e0dqGUNBx1dqRBDqRfiwlMfXwGC5Kvw+0W3M0ggNLTGJjS2gVjSR1P6vYoxKrsUr/5Yw7vfvXd+kCqSzKslIrNuSmKzLwfr01ho9OAlUQWH5z9CV/+/Jv6klKXpF8pXmbLRfRKvEfrE8vZK5sw1hMrNTZLNmCu9NPjn53BzJ+zJC/0feDNnOwW75o6jsVUDgd3b8crE2M4O3Mes8ur4pII/KzQqB1RV44pidRv7rc2Jjm5extenRhHZi2PCFRoAa2+HstzXd9w4JAQC3O/ka0yhvi06nS/eWXql3NrpGmjME1vxEhSq0DKMnjk7FfFy69ljaA9UimlncrxHPRV01OQBhtklY0e3xyqW9GTe7j9FknGgy7JqNAlGRW6JKNCl2RU6JKMCl2SUaFLMio0JBlN1Ng+QiRVcCzGP3ySjq2+xlYQjJg7hRBJBscpsZssE9tkY7Ilqf/w0YhH29BukaB2/LeWZxLkt+w4XV+TZHNgtc5Qb2N0d07bOiT9g8V/HQ/qkPQn85pE/b2C15vsJZvAGpvqB1bU03RYzHOvV7Zz7m5j4HQKwH+yg1Ar9j0P+gAAAABJRU5ErkJggg==;" vertex="1" parent="1">
          <mxGeometry x="-30" y="-2560" width="27.77" height="42" as="geometry" />
        </mxCell>
        <mxCell id="yCuCPkyOC491UmM06Bov-12" value="" style="shape=image;verticalLabelPosition=bottom;labelBackgroundColor=default;verticalAlign=top;aspect=fixed;imageAspect=0;image=data:image/png,iVBORw0KGgoAAAANSUhEUgAAACkAAAA+CAYAAAC2szLVAAAAAXNSR0IArs4c6QAAAARnQU1BAACxjwv8YQUAAAAJcEhZcwAAEnQAABJ0Ad5mH3gAAAUASURBVGhD7VlbaBxVGP5m9ppJNomXSsC+eKmtxkIxpoigMUXxRZRI0T55K4UGxAexpkUq+KJUwVofBG1VEBSx2EcD4kMR0QcbEUpfFBW0BBsTTLdpkt2dnfH/zslkZ3Z2N7vZcedlv+Wfy7nNN99/Lv+ZNVwBGoCZhr4UeEUrKY3hSBWzTnHJg+Q1gQ1J1oJXxTCaJavrtFLej5ZIBlXdDJpXzw9VQ7Gsospb0ldnleIhnNI8WifIZ4mSZXlisHJRbEWM750S6xFLrBNrT8uWsPbIgLt5aUu/+eHSIt74fBoXFxYxNnwrjkw8gKF0Soh2GppakKTY3yUb40dP4KLRh7KRhFVexfP33YmXHxmDJfkd1HEdAT/TvfNLV3HZTqCQSKFomlhOpvH19z+qLtBpUDRaZeAIeHOdZSGXdGGKwFQt4di4Z9dO5Wq+RLmDxucRoSmIin07v4y9x05iJZ3DcNbGF1P70SuvUlJFazk80EQVNt9BDGmXgzZEkuxnyw7uPvwOllL9ODB6Gw5N3I/JN09i5lIejkG9a5BqmnuzpF302QUc3DManrjYBKedhHB3XUcKUHgIYQvzmX78kx0QGwxbpobVKqfqV2w+M4C5nlwlTdUbwJVkFqM7b8dTjz4YJlkP7KFUsSxTVJRmm9IupVi7d0WlpONgh2Xg9Wcfw6A8u2mS/xdM1SW8LuCKBx3cUMzjvReexpC8QFJSYyfp+LpoQhQcLORxYvIJDA9aSKtUmWnUOWZQTNNxkbNXcXTfw9hzy1Y9qlWuETNJ6YCGMOSc3OMUsG9kB54cuUOmu+AcEC9JYUIyGVkwRq5J48jj47hWEkylbQUxK8mpzsZWZwWnXnwGQ8mEWtlEX52/hlhJciRvcZbx0Uv7caMQ5PxcC7GRpFaWW8LhvQ9h1/V9yPpcHHR2rEq6sDIZ3Du8Pezi4EodH0muYIuFEibfOoV/5d7WyRqy8lQQ8zxZMpO4cBU49P5p5EW89dBMHakmLeZ5kmv2qgTV07/P4dNzv+CKSvNAqppurCQNWbi5LC6lLbx2ehrnFvIoSDqjR38EGStJRcQ1VX/Mp3rx3LEPceHyEorSJysfElrqk16l6OAR4dkxEphL9uHA25/gr2LZN5Ba6JM6WuFBr7e0dqGUNBx1dqRBDqRfiwlMfXwGC5Kvw+0W3M0ggNLTGJjS2gVjSR1P6vYoxKrsUr/5Yw7vfvXd+kCqSzKslIrNuSmKzLwfr01ho9OAlUQWH5z9CV/+/Jv6klKXpF8pXmbLRfRKvEfrE8vZK5sw1hMrNTZLNmCu9NPjn53BzJ+zJC/0feDNnOwW75o6jsVUDgd3b8crE2M4O3Mes8ur4pII/KzQqB1RV44pidRv7rc2Jjm5extenRhHZi2PCFRoAa2+HstzXd9w4JAQC3O/ka0yhvi06nS/eWXql3NrpGmjME1vxEhSq0DKMnjk7FfFy69ljaA9UimlncrxHPRV01OQBhtklY0e3xyqW9GTe7j9FknGgy7JqNAlGRW6JKNCl2RU6JKMCl2SUaFLMio0JBlN1Ng+QiRVcCzGP3ySjq2+xlYQjJg7hRBJBscpsZssE9tkY7Ilqf/w0YhH29BukaB2/LeWZxLkt+w4XV+TZHNgtc5Qb2N0d07bOiT9g8V/HQ/qkPQn85pE/b2C15vsJZvAGpvqB1bU03RYzHOvV7Zz7m5j4HQKwH+yg1Ar9j0P+gAAAABJRU5ErkJggg==;" vertex="1" parent="1">
          <mxGeometry x="402.23" y="-2560" width="27.77" height="42" as="geometry" />
        </mxCell>
      </root>
    </mxGraphModel>
  </diagram>
</mxfile>
